<svg id="Layer_1" data-name="Layer 1" xmlns="http://www.w3.org/2000/svg" viewBox="0 0 400 500"><path d="M282.16,291a1,1,0,0,0,1.41.14L306,272.81s0-.05.06-.07a.7.7,0,0,0,.15-.19.41.41,0,0,0,.07-.11.79.79,0,0,0,.06-.22.59.59,0,0,0,0-.13s0,0,0-.06V268c0-9.21-3.23-16.94-9.35-22.37a31.94,31.94,0,0,0-41,0c-6.12,5.44-9.36,13.17-9.36,22.37V272a1,1,0,0,0,.74,1,1,1,0,0,0,1.12-.46,10.19,10.19,0,0,1,8.76-5.05,10.08,10.08,0,0,1,8,3.87,2.2,2.2,0,0,0,.45.41l8.42,20.58-20.21-16.51a1,1,0,0,0-1.27,1.55L274,294.89h-7a1,1,0,0,0-1,1v19a1,1,0,0,0,1,1h19a1,1,0,0,0,1-1v-19a1,1,0,0,0-1-1h-8.11l9.47-23.12a2.43,2.43,0,0,0,.44-.41,10.09,10.09,0,0,1,16.24.47L282.3,289.59A1,1,0,0,0,282.16,291Zm3.52-21.28a12.07,12.07,0,0,0-18.35,0c-.39-4.68-1-21.55,9.17-29C286.65,248.17,286.06,265,285.68,269.72Zm-.55,2.19L276.5,293l-8.63-21.07a2.1,2.1,0,0,0,.67-.55,10.12,10.12,0,0,1,15.92,0A2.1,2.1,0,0,0,285.13,271.91Zm-27.88-6.42a12.16,12.16,0,0,0-8.62,3.61V268c0-17.87,12.63-26.64,25.25-27.71-4.43,4-7.28,10.22-8.31,18.22a56.14,56.14,0,0,0-.34,10.05A12,12,0,0,0,257.25,265.49ZM285,313.87H268v-17h17Zm10.76-48.38a12,12,0,0,0-8,3,56.14,56.14,0,0,0-.34-10.05c-1-8-3.88-14.25-8.31-18.23a28.34,28.34,0,0,1,16.57,6.84c5.68,5.05,8.68,12.26,8.68,20.88v1.15A12.14,12.14,0,0,0,295.75,265.49Z"/><path d="M33.23,196.81,20.47,209.58a1,1,0,0,0,0,1.41l12.76,12.77a1,1,0,0,0,.71.29,1,1,0,0,0,.38-.07,1,1,0,0,0,.62-.93v-6.39H59.27a1,1,0,0,0,1-1V204.91a1,1,0,0,0-1-1H34.94v-6.39a1,1,0,0,0-.62-.92A1,1,0,0,0,33.23,196.81Zm25,9.1v8.75H33.94a1,1,0,0,0-1,1v5L22.59,210.29l10.35-10.36v5a1,1,0,0,0,1,1Z"/><path d="M41.13,198.86H65.47v6.39a1,1,0,0,0,.61.93,1.07,1.07,0,0,0,.39.07,1,1,0,0,0,.7-.29l12.77-12.77a1,1,0,0,0,0-1.41L67.17,179a1,1,0,0,0-1.7.71v6.39H41.13a1,1,0,0,0-1,1v10.75A1,1,0,0,0,41.13,198.86Zm1-10.75H66.47a1,1,0,0,0,1-1v-5l10.35,10.35L67.47,202.84v-5a1,1,0,0,0-1-1H42.13Z"/><path d="M230.26,216.13a5.53,5.53,0,1,0,5.53,5.53A5.53,5.53,0,0,0,230.26,216.13Zm0,9.05a3.53,3.53,0,1,1,3.53-3.52A3.53,3.53,0,0,1,230.26,225.18Z"/><path d="M149.77,171.22l-.54.59a28.71,28.71,0,0,0-6.47,26.42,29.67,29.67,0,0,0,18.5,20.7l57.41,21.28a35.44,35.44,0,0,0,12.63,2.55,20.51,20.51,0,0,0,10.93-2.85l56.6-21a29.7,29.7,0,0,0,18.5-20.7,28.69,28.69,0,0,0-6.48-26.42q-.25-.3-.54-.6c-11.48-12.23-29.09-12.82-43.81-1.46L230,197.17,193.6,169.76C178.87,158.39,161.26,159,149.77,171.22Zm91.51,66.91-.59.22c-13.9,5.47-22.9-.14-26.69-7.21s-3.18-17.47,5.19-23.31L230,199.67l10.88,8.18c8.58,6,9.7,17,5.85,24.26A16.09,16.09,0,0,1,241.28,238.13Zm26.43-66.79c6.66-5.14,13.94-7.7,20.9-7.7a27.37,27.37,0,0,1,20.24,8.94l.51.56a26.74,26.74,0,0,1,6,24.6,27.7,27.7,0,0,1-17.26,19.32L246.4,236.23a19,19,0,0,0,2.13-3.18c4.27-8,3-20.23-6.43-26.81l-10.39-7.82ZM218,206.21c-9.29,6.47-9.91,18.16-5.78,25.88a20.09,20.09,0,0,0,3.71,5l-54-20a27.7,27.7,0,0,1-17.26-19.31,26.75,26.75,0,0,1,6-24.62l.5-.55a27.44,27.44,0,0,1,20.25-8.94c7,0,14.24,2.56,20.9,7.71l36,27.07Z"/><path d="M230.26,208a15.17,15.17,0,1,0,15.17,15.17A15.18,15.18,0,0,0,230.26,208Zm-8,25.63a13.14,13.14,0,0,1,15.93,0,13.1,13.1,0,0,1-15.93,0Zm17.44-1.35a15.11,15.11,0,0,0-19,0,13.17,13.17,0,1,1,19,0Z"/><path d="M172.18,180a9.59,9.59,0,0,0-9.36,9.21,9.49,9.49,0,0,0,4.07,8.09,1.48,1.48,0,0,1,.65,1.22v2.88a4.78,4.78,0,1,0,9.55,0v-2.88a1.46,1.46,0,0,1,.62-1.2A9.5,9.5,0,0,0,172.18,180Zm2.91,19.42v1.38h-5.55v-1.38Zm-2.78,4.76a2.77,2.77,0,0,1-2.38-1.38h4.77A2.77,2.77,0,0,1,172.31,204.15Zm4.26-8.51a3.45,3.45,0,0,0-1.28,1.75h-2v-5a2.9,2.9,0,0,0,.73-.7c.07-.09.17-.22.14-.25a1.48,1.48,0,0,1,.22.25,2.2,2.2,0,0,0,1.76,1,1,1,0,0,0,1-1,1,1,0,0,0-1-1,1.48,1.48,0,0,1-.22-.25,2,2,0,0,0-3.52,0,.84.84,0,0,0-.12.19h-.07c-.06-.06-.12-.14-.17-.2a2,2,0,0,0-3.52,0l-.18.24a1,1,0,0,0,0,2,2.2,2.2,0,0,0,1.76-1c.07-.09.17-.22.14-.25a1.48,1.48,0,0,1,.22.25,3,3,0,0,0,.79.75v4.92h-2a3.4,3.4,0,0,0-1.3-1.76,7.49,7.49,0,0,1-3.21-6.39,7.57,7.57,0,0,1,7.39-7.27h.11a7.51,7.51,0,0,1,7.5,7.5A7.51,7.51,0,0,1,176.57,195.64Z"/><path d="M188.84,183.79l2.73-2.74a1,1,0,0,0,0-1.41l-6.38-6.39a1,1,0,0,0-1.42,0L181,176a18.77,18.77,0,0,0-3.21-1.34v-3.86a1,1,0,0,0-1-1h-9a1,1,0,0,0-1,1v3.86a19.11,19.11,0,0,0-3.21,1.34l-2.73-2.74a1,1,0,0,0-1.42,0l-6.38,6.39a1,1,0,0,0,0,1.41l2.73,2.74a18.72,18.72,0,0,0-1.33,3.21H150.6a1,1,0,0,0-1,1v9a1,1,0,0,0,1,1h3.86a18.82,18.82,0,0,0,1.33,3.22L153.06,204a1,1,0,0,0,0,1.41l6.38,6.38a1,1,0,0,0,1.42,0l2.73-2.73a18,18,0,0,0,3.21,1.34v3.86a1,1,0,0,0,1,1h9a1,1,0,0,0,1-1v-3.86A18,18,0,0,0,181,209l2.73,2.73a1,1,0,0,0,1.42,0l6.38-6.38a1,1,0,0,0,.29-.71,1,1,0,0,0-.29-.7l-2.73-2.74a18.4,18.4,0,0,0,1.33-3.21H194a1,1,0,0,0,1-1v-9a1,1,0,0,0-1-1h-3.86A18.4,18.4,0,0,0,188.84,183.79ZM193,196h-3.61a1,1,0,0,0-1,.75,16.56,16.56,0,0,1-1.72,4.13,1,1,0,0,0,.16,1.22l2.56,2.55-5,5-2.56-2.55a1,1,0,0,0-1.21-.16,16.56,16.56,0,0,1-4.13,1.72,1,1,0,0,0-.75,1v3.62h-7v-3.62a1,1,0,0,0-.74-1,16.48,16.48,0,0,1-4.14-1.72,1,1,0,0,0-1.21.16l-2.56,2.55-5-5,2.56-2.55a1,1,0,0,0,.16-1.22,16.56,16.56,0,0,1-1.72-4.13,1,1,0,0,0-1-.75H151.6v-7h3.61a1,1,0,0,0,1-.75,16.56,16.56,0,0,1,1.72-4.13,1,1,0,0,0-.16-1.21l-2.56-2.56,5-5,2.56,2.55a1,1,0,0,0,1.21.16,16.48,16.48,0,0,1,4.14-1.72,1,1,0,0,0,.74-1v-3.62h7v3.62a1,1,0,0,0,.75,1,16.56,16.56,0,0,1,4.13,1.72,1,1,0,0,0,1.21-.16l2.56-2.55,5,5-2.56,2.56a1,1,0,0,0-.16,1.21,16.56,16.56,0,0,1,1.72,4.13,1,1,0,0,0,1,.75H193Z"/><path d="M287.39,202.81a10.72,10.72,0,1,0-10.72-10.72A10.72,10.72,0,0,0,287.39,202.81Zm0-19.43a8.72,8.72,0,1,1-8.72,8.71A8.72,8.72,0,0,1,287.39,183.38Z"/><path d="M291.79,194.09a1,1,0,0,0-1.41,0,1,1,0,0,0,0,1.42l1.36,1.36a1,1,0,0,0,.71.3,1,1,0,0,0,.71-.29,1,1,0,0,0,0-1.42Z"/><path d="M283,194.09l-1.36,1.37a1,1,0,0,0,.7,1.71,1,1,0,0,0,.71-.3l1.37-1.36a1,1,0,0,0-1.42-1.42Z"/><path d="M287.39,193.09a1,1,0,0,0,.7-.29l4.59-4.57a1,1,0,1,0-1.41-1.42l-4.59,4.57a1,1,0,0,0,.71,1.71Z"/><path d="M283,189.59a1,1,0,0,0,1.42-1.41L283,186.81a1,1,0,1,0-1.41,1.41Z"/><path d="M283.71,191.76a1,1,0,0,0-1-1h-1.93a1,1,0,0,0,0,2h1.93A1,1,0,0,0,283.71,191.76Z"/><path d="M291.06,191.76a1,1,0,0,0,1,1H294a1,1,0,0,0,0-2h-1.94A1,1,0,0,0,291.06,191.76Z"/><path d="M287.39,188.67a1,1,0,0,0,1-1v-1.93a1,1,0,0,0-2,0v1.93A1,1,0,0,0,287.39,188.67Z"/><path d="M265.67,197.6h3.86a18.82,18.82,0,0,0,1.33,3.22l-2.73,2.73a1,1,0,0,0,0,1.41l6.39,6.39a1,1,0,0,0,1.41,0l2.73-2.74a18.31,18.31,0,0,0,3.21,1.34v3.86a1,1,0,0,0,1,1h9a1,1,0,0,0,1-1V210a18,18,0,0,0,3.21-1.34l2.73,2.74a1.05,1.05,0,0,0,.71.29,1,1,0,0,0,.71-.29l6.38-6.39a1,1,0,0,0,0-1.41l-2.73-2.73a18.05,18.05,0,0,0,1.33-3.22h3.86a1,1,0,0,0,1-1v-9a1,1,0,0,0-1-1h-3.86a18,18,0,0,0-1.33-3.21l2.73-2.74a1,1,0,0,0,0-1.41l-6.38-6.38a1,1,0,0,0-1.42,0l-2.73,2.73a18.77,18.77,0,0,0-3.21-1.34v-3.85a1,1,0,0,0-1-1h-9a1,1,0,0,0-1,1v3.85a19.11,19.11,0,0,0-3.21,1.34l-2.73-2.73a1,1,0,0,0-1.41,0l-6.39,6.38a1,1,0,0,0,0,1.41l2.73,2.74a18.72,18.72,0,0,0-1.33,3.21h-3.86a1,1,0,0,0-1,1v9A1,1,0,0,0,265.67,197.6Zm1-9h3.61a1,1,0,0,0,1-.75A16.56,16.56,0,0,1,273,183.7a1,1,0,0,0-.16-1.21l-2.56-2.56,5-5,2.56,2.56a1,1,0,0,0,1.21.15,16.38,16.38,0,0,1,4.14-1.71,1,1,0,0,0,.74-1v-3.61h7V175a1,1,0,0,0,.75,1,16.17,16.17,0,0,1,4.13,1.71,1,1,0,0,0,1.21-.15l2.56-2.56,5,5L302,182.49a1,1,0,0,0-.15,1.21,16.54,16.54,0,0,1,1.71,4.13,1,1,0,0,0,1,.75h3.61v7h-3.61a1,1,0,0,0-1,.75,16.54,16.54,0,0,1-1.71,4.13,1,1,0,0,0,.15,1.22l2.56,2.55-5,5L297,206.67a1,1,0,0,0-1.21-.16,16.56,16.56,0,0,1-4.13,1.72,1,1,0,0,0-.75,1v3.62h-7v-3.62a1,1,0,0,0-.74-1,16.79,16.79,0,0,1-4.14-1.72,1,1,0,0,0-1.21.16l-2.56,2.56-5-5,2.56-2.55a1,1,0,0,0,.16-1.21,16.79,16.79,0,0,1-1.72-4.14,1,1,0,0,0-1-.75h-3.61Z"/><path d="M262.62,107.37a1,1,0,0,0,.71-.29l4.29-4.29a1,1,0,0,0,.29-.71,1,1,0,0,0-.29-.7l-4.29-4.29a1,1,0,0,0-1.41,0l-4.29,4.29a1,1,0,0,0-.29.7,1,1,0,0,0,.29.71l4.29,4.29A1,1,0,0,0,262.62,107.37Zm0-8.16,2.88,2.87L262.62,105l-2.87-2.88Z"/><path d="M180.87,316a1,1,0,0,0,.71-.29l3.68-3.68a1,1,0,0,0,0-1.41L181.58,307a1,1,0,0,0-1.42,0l-3.68,3.68a1,1,0,0,0,0,1.41l3.68,3.68A1,1,0,0,0,180.87,316Zm0-6.94,2.26,2.26-2.26,2.27-2.27-2.27Z"/><path d="M199.23,41.43a28.17,28.17,0,0,0,2.21,6.7l3.62,7.64,1.45,7.42a1,1,0,0,0,1,.81l.2,0a1,1,0,0,0,.79-1.18L207,55.26s0-.08-.05-.12a.53.53,0,0,0,0-.12l-3.68-7.75a26.7,26.7,0,0,1-2.05-6.22l-3.56-18.17a2,2,0,0,1,1.55-2.31,1.94,1.94,0,0,1,1.48.3,2,2,0,0,1,.83,1.25L203.61,33q-1,.31-2,.66a1,1,0,0,0-.62,1.28,1,1,0,0,0,1,.67,1,1,0,0,0,.33-.06,60.29,60.29,0,0,1,17.18-3.33,1,1,0,0,0,.95-1,1,1,0,0,0-1-1c-.71,0-1.42.08-2.13.14l-3-15.28a2,2,0,0,1,1.55-2.3,2,2,0,0,1,2.3,1.55l4.22,21.54-1,.2a7.14,7.14,0,0,0-4.61,3.06,1,1,0,0,0,.27,1.38,1,1,0,0,0,1.39-.27A5.19,5.19,0,0,1,221.68,38l2.51-.49a1,1,0,0,0,.65-.45l2-3.14a3.86,3.86,0,0,1,5.35-1.05.82.82,0,0,1,.35.52.79.79,0,0,1-.13.61L221.48,50.42a1,1,0,0,0-.15.75l2.47,12.6a1,1,0,0,0,1,.81.62.62,0,0,0,.19,0,1,1,0,0,0,.79-1.17l-2.39-12.21,10.7-16.07a2.8,2.8,0,0,0-.76-3.9,5.87,5.87,0,0,0-8.14,1.61l-1.08,1.71-4-20.62a3.95,3.95,0,0,0-6.6-2.12,3.95,3.95,0,0,0-7.51,1.47,4,4,0,0,0-5.31,4.46l.2,1a3.88,3.88,0,0,0-2-.15,4,4,0,0,0-3.13,4.65ZM209.5,11.56a2,2,0,0,1,2.31,1.55l1.51,7.71h0l1.9,9.7c-1.3.15-2.6.34-3.89.57L208,13.87A2,2,0,0,1,209.5,11.56Zm-6.61,4.3a2,2,0,0,1,2.72-.54,2,2,0,0,1,.84,1.26L208,24.29h0l1.4,7.18c-1.28.27-2.55.58-3.82.93L205,29.45h0l-1.51-7.71h0l-.86-4.41A1.92,1.92,0,0,1,202.89,15.86Z"/><path d="M166.35,51.18,164,63.39a1,1,0,0,0,.79,1.17.68.68,0,0,0,.2,0,1,1,0,0,0,1-.81l2.47-12.6a1,1,0,0,0-.15-.75L157.3,34a.81.81,0,0,1,.22-1.12,3.86,3.86,0,0,1,5.34,1l2,3.16a1,1,0,0,0,.65.45L168,38a5.21,5.21,0,0,1,3.34,2.21A1,1,0,0,0,173,39.1,7.17,7.17,0,0,0,168.42,36l-1-.2,4.22-21.54a2,2,0,0,1,3.86.75l-1.06,5.38h0l-1.93,9.89c-.71-.06-1.42-.11-2.13-.14a1,1,0,0,0-1,1,1,1,0,0,0,.95,1,60.35,60.35,0,0,1,17.18,3.33,1,1,0,0,0,.33.06,1,1,0,0,0,.33-1.95c-.67-.23-1.34-.45-2-.66l.62-3.13h0l.8-4.11.71-3.61a2,2,0,0,1,3.85.77l-3.55,18.17a26.72,26.72,0,0,1-2.06,6.22L182.8,55a.53.53,0,0,0,0,.12.43.43,0,0,0-.05.12l-1.48,7.54A1,1,0,0,0,182,64l.19,0a1,1,0,0,0,1-.81l1.46-7.42,3.62-7.64a28.62,28.62,0,0,0,2.21-6.7l3.56-18.17a3.94,3.94,0,0,0-5.16-4.5l.2-1A4,4,0,0,0,186,13.06a4,4,0,0,0-2.18.2,3.95,3.95,0,0,0-7.51-1.47,4,4,0,0,0-6.6,2.12l-4,20.61-1.1-1.72a5.86,5.86,0,0,0-8.12-1.59,2.82,2.82,0,0,0-.77,3.9ZM184.1,15.32a2,2,0,0,1,1.48-.29,1.93,1.93,0,0,1,1.25.83,2,2,0,0,1,.3,1.47l-.86,4.4h0l-.37,1.93-1.71,8.73c-1.27-.35-2.54-.66-3.83-.93l2.44-12.42.48-2.47A2,2,0,0,1,184.1,15.32Zm-3.89-3.76a2,2,0,0,1,1.26.83,1.94,1.94,0,0,1,.29,1.48l-1.18,6.06-.78,4h0l-1.41,7.18c-1.29-.23-2.59-.42-3.89-.57l2.95-15.08h0l.46-2.32A2,2,0,0,1,180.21,11.56Z"/><path d="M194.74,456.43a1,1,0,0,0,.66-1.25,1,1,0,0,0-1.25-.66,37.32,37.32,0,0,1-4.54,1.05c1.15-.95,2.27-1.95,3.32-3a1,1,0,0,0,0-1.42,1,1,0,0,0-1.41,0,42.93,42.93,0,0,1-5.51,4.67,1,1,0,0,0-.17.18l-1.11,0V433.85h8.44a1,1,0,0,0,0-2h-8.44V409.63h17.89a42.87,42.87,0,0,1,1,17.43,1,1,0,0,0,.84,1.13h.15a1,1,0,0,0,1-.85,45.14,45.14,0,0,0-.92-17.72h12.56a35,35,0,0,1,1.8,11.11,35.43,35.43,0,0,1-1.61,10.6,1,1,0,0,0,.65,1.26,1,1,0,0,0,.3,0,1,1,0,0,0,1-.7,37.37,37.37,0,0,0-46.31-47,1,1,0,0,0-.68,1.25,1,1,0,0,0,1.25.67,35.62,35.62,0,0,1,4.21-1c-.84.7-1.66,1.42-2.45,2.17a1,1,0,0,0,.69,1.72,1,1,0,0,0,.69-.27,42.75,42.75,0,0,1,5-4l1,0v22.19h-9a1,1,0,1,0,0,2h9v22.22H164.84a43,43,0,0,1-1.48-11.11,44.14,44.14,0,0,1,.47-6.4,1,1,0,0,0-2-.29,45,45,0,0,0,.92,17.8H150.19a35.38,35.38,0,0,1-.31-21.3A1,1,0,1,0,148,410a37.37,37.37,0,0,0,46.77,46.46Zm21.79-48.8H204.14a45.11,45.11,0,0,0-14.56-21.73A35.46,35.46,0,0,1,216.53,407.63Zm-31.8-22.2,1,0A43.17,43.17,0,0,1,202,407.63H184.73Zm-2,48.42v22.2l-1.11,0a.77.77,0,0,0-.17-.19,43.19,43.19,0,0,1-16-22Zm-31.81,0h12.4a45.21,45.21,0,0,0,14.54,21.73A35.44,35.44,0,0,1,150.92,433.85Z"/><path d="M150.33,408a1,1,0,0,0,.33.75,15.14,15.14,0,0,0,20.11,0,1,1,0,0,0,0-1.49,15.11,15.11,0,0,0-20.11,0A1,1,0,0,0,150.33,408Zm10.39-2.57a13.14,13.14,0,0,1,7.8,2.57,13.14,13.14,0,0,1-15.61,0A13.15,13.15,0,0,1,160.72,405.42Z"/><path d="M166.23,396.51a5.52,5.52,0,1,0-5.51,5.52A5.52,5.52,0,0,0,166.23,396.51Zm-9,0a3.52,3.52,0,1,1,3.52,3.52A3.53,3.53,0,0,1,157.2,396.51Z"/><path d="M172.51,405.29a1,1,0,0,0,1.37-.37,15.15,15.15,0,1,0-26.32,0,1,1,0,0,0,.87.51,1,1,0,0,0,.86-1.5,13.15,13.15,0,1,1,22.85,0A1,1,0,0,0,172.51,405.29Z"/><path d="M196.93,454.15a1,1,0,0,0,.34.75,15.14,15.14,0,0,0,20.11,0,1,1,0,0,0,0-1.5,15.14,15.14,0,0,0-20.11,0A1,1,0,0,0,196.93,454.15Zm10.39-2.57a13.12,13.12,0,0,1,7.81,2.57,13.14,13.14,0,0,1-15.61,0A13.07,13.07,0,0,1,207.32,451.58Z"/><path d="M212.84,442.67a5.52,5.52,0,1,0-5.52,5.51A5.52,5.52,0,0,0,212.84,442.67Zm-9,0a3.52,3.52,0,1,1,3.52,3.51A3.53,3.53,0,0,1,203.8,442.67Z"/><path d="M219.12,451.45a1,1,0,0,0,1.36-.37,15.15,15.15,0,1,0-26.32,0,1,1,0,0,0,1.74-1,13.15,13.15,0,1,1,22.84,0A1,1,0,0,0,219.12,451.45Z"/><path d="M238,401.85a1,1,0,0,0-.34-.74,11.57,11.57,0,0,0-15.37,0,1,1,0,0,0,0,1.49,11.57,11.57,0,0,0,15.37,0A1,1,0,0,0,238,401.85Zm-8,1.67a9.49,9.49,0,0,1-5.4-1.67,9.61,9.61,0,0,1,10.8,0A9.54,9.54,0,0,1,229.93,403.52Z"/><path d="M225.55,393.27a4.38,4.38,0,1,0,4.38-4.38A4.39,4.39,0,0,0,225.55,393.27Zm6.75,0a2.38,2.38,0,1,1-2.37-2.38A2.38,2.38,0,0,1,232.3,393.27Z"/><path d="M238.62,400.05a1,1,0,0,0,1.36-.37,11.58,11.58,0,1,0-20.11,0,1,1,0,0,0,.87.51,1,1,0,0,0,.49-.14,1,1,0,0,0,.37-1.36,9.58,9.58,0,1,1,16.65,0A1,1,0,0,0,238.62,400.05Z"/><path d="M129.51,459.23a1,1,0,0,0,.33.74,11.59,11.59,0,0,0,15.38,0,1,1,0,0,0,0-1.49,11.59,11.59,0,0,0-15.38,0A1,1,0,0,0,129.51,459.23Zm8-1.67a9.49,9.49,0,0,1,5.4,1.67,9.61,9.61,0,0,1-10.8,0A9.49,9.49,0,0,1,137.53,457.56Z"/><path d="M141.91,450.64a4.38,4.38,0,1,0-4.38,4.38A4.39,4.39,0,0,0,141.91,450.64Zm-6.76,0a2.38,2.38,0,1,1,2.38,2.38A2.39,2.39,0,0,1,135.15,450.64Z"/><path d="M146.22,457.42a1,1,0,0,0,1.37-.37,11.58,11.58,0,1,0-20.12,0,1,1,0,0,0,.87.51,1.13,1.13,0,0,0,.5-.13,1,1,0,0,0,.37-1.37,9.58,9.58,0,1,1,16.64,0A1,1,0,0,0,146.22,457.42Z"/><path d="M78.28,338.48v15.13a4.78,4.78,0,0,0,0,9.35v15.13a7.55,7.55,0,0,0,7.55,7.55h5.43a1,1,0,0,0,0-2H85.83a5.56,5.56,0,0,1-5.55-5.55V363a4.78,4.78,0,0,0,0-9.35V338.48a7.56,7.56,0,0,0-7.55-7.55H67.3a1,1,0,0,0,0,2h5.43A5.56,5.56,0,0,1,78.28,338.48Zm3.78,19.8a2.79,2.79,0,1,1-2.78-2.78A2.79,2.79,0,0,1,82.06,358.28Z"/><path d="M117.19,307.81a1,1,0,0,0-1,1v22.24a4.78,4.78,0,0,0,0,9.35v24.54a1,1,0,0,0,2,0V340.4a4.78,4.78,0,0,0,0-9.35V308.81A1,1,0,0,0,117.19,307.81ZM120,335.73a2.79,2.79,0,1,1-2.78-2.79A2.79,2.79,0,0,1,120,335.73Z"/><path d="M123.69,426.21h17.1a1,1,0,1,0,0-2h-17.1a5.5,5.5,0,0,1-5.5-5.5V405.36a1,1,0,0,0-2,0v13.35A7.5,7.5,0,0,0,123.69,426.21Z"/><path d="M40.22,312.35a1,1,0,0,0,1-1V281.68a4.79,4.79,0,1,0-2,0v29.67A1,1,0,0,0,40.22,312.35ZM37.43,277a2.79,2.79,0,1,1,2.79,2.78A2.79,2.79,0,0,1,37.43,277Z"/><path d="M124.53,282.47a1,1,0,0,0-1.23,1.58l4.83,3.8-4.83,3.81a1,1,0,0,0,.61,1.78,1,1,0,0,0,.62-.21l5.84-4.59a1,1,0,0,0,.38-.79,1,1,0,0,0-.38-.78Z"/><path d="M111.25,282.64a1,1,0,0,0-1.41-.17l-5.83,4.6a1,1,0,0,0-.38.78,1,1,0,0,0,.38.79l5.83,4.59a1,1,0,0,0,.62.21,1,1,0,0,0,.62-1.78l-4.84-3.81,4.84-3.8A1,1,0,0,0,111.25,282.64Z"/><path d="M120.66,280a1,1,0,0,0-1.31.54l-5.78,13.79a1,1,0,0,0,.53,1.31.91.91,0,0,0,.39.08,1,1,0,0,0,.92-.61l5.78-13.8A1,1,0,0,0,120.66,280Z"/><path d="M124.53,379.27a1,1,0,0,0-1.4.16,1,1,0,0,0,.17,1.41l4.83,3.8-4.83,3.81a1,1,0,0,0,.61,1.78,1,1,0,0,0,.62-.21l5.84-4.59a1,1,0,0,0,0-1.57Z"/><path d="M111.25,379.43a1,1,0,0,0-1.41-.16L104,383.86a1,1,0,0,0,0,1.57l5.83,4.59a1,1,0,0,0,.62.21,1,1,0,0,0,.62-1.78l-4.84-3.81,4.84-3.8A1,1,0,0,0,111.25,379.43Z"/><path d="M120.66,376.82a1,1,0,0,0-1.31.54l-5.78,13.8a1,1,0,0,0,.53,1.3.91.91,0,0,0,.39.08,1,1,0,0,0,.92-.61l5.78-13.8A1,1,0,0,0,120.66,376.82Z"/><path d="M46,337.15a1,1,0,0,0,.78.38,1,1,0,0,0,.62-.22l5.84-4.59a1,1,0,0,0,0-1.57l-5.84-4.59a1,1,0,0,0-1.24,1.57L51,331.94l-4.84,3.8A1,1,0,0,0,46,337.15Z"/><path d="M32.68,337.31a1,1,0,0,0,.62.22,1,1,0,0,0,.62-1.79l-4.84-3.8,4.84-3.81a1,1,0,1,0-1.24-1.57l-5.83,4.59a1,1,0,0,0,0,1.57Z"/><path d="M36.94,339.76a1.09,1.09,0,0,0,.39.08,1,1,0,0,0,.92-.62L44,325.43a1,1,0,1,0-1.84-.78l-5.78,13.8A1,1,0,0,0,36.94,339.76Z"/><path d="M138.54,279.76a7.56,7.56,0,0,0-7.55-7.55h-27.6a7.56,7.56,0,0,0-7.55,7.55v16.18a7.56,7.56,0,0,0,7.55,7.55H131a7.56,7.56,0,0,0,7.55-7.55Zm-2,16.18a5.56,5.56,0,0,1-5.55,5.55h-27.6a5.56,5.56,0,0,1-5.55-5.55V279.76a5.56,5.56,0,0,1,5.55-5.55H131a5.56,5.56,0,0,1,5.55,5.55Z"/><path d="M138.54,392.73V376.55A7.56,7.56,0,0,0,131,369h-27.6a7.56,7.56,0,0,0-7.55,7.55v16.18a7.56,7.56,0,0,0,7.55,7.55H131A7.56,7.56,0,0,0,138.54,392.73Zm-40.7,0V376.55a5.56,5.56,0,0,1,5.55-5.55H131a5.56,5.56,0,0,1,5.55,5.55v16.18a5.56,5.56,0,0,1-5.55,5.55h-27.6A5.56,5.56,0,0,1,97.84,392.73Z"/><path d="M53.83,347.58A7.56,7.56,0,0,0,61.38,340V323.85a7.56,7.56,0,0,0-7.55-7.55H26.23a7.56,7.56,0,0,0-7.55,7.55V340a7.56,7.56,0,0,0,7.55,7.55ZM20.68,340V323.85a5.56,5.56,0,0,1,5.55-5.55h27.6a5.56,5.56,0,0,1,5.55,5.55V340a5.56,5.56,0,0,1-5.55,5.55H26.23A5.56,5.56,0,0,1,20.68,340Z"/><path d="M87.79,138.49a5,5,0,0,0-5,5V181a5,5,0,0,0,5,5h29.53a5,5,0,0,0,5-5V143.45a5,5,0,0,0-5-5,1,1,0,0,0,0,2,3,3,0,0,1,3,3V181a3,3,0,0,1-3,3H87.79a3,3,0,0,1-3-3V143.45a3,3,0,0,1,3-3,1,1,0,1,0,0-2Z"/><path d="M96.29,135.81h-3a1,1,0,0,0-1,1v7.92a1,1,0,0,0,1,1H111.8a1,1,0,0,0,1-1v-7.92a1,1,0,0,0-1-1h-3a6.34,6.34,0,0,0-6.29-5.17h0A6.28,6.28,0,0,0,96.29,135.81Zm6.24-3.17a4.38,4.38,0,0,1,4.43,4.25,1,1,0,0,0,1,.92h2.85v5.92H94.31v-5.92h2.84a1,1,0,0,0,1-.91A4.33,4.33,0,0,1,102.53,132.64Z"/><path d="M114.61,144.73v34.51a1,1,0,0,0,2,0V144.73a1,1,0,0,0-2,0Z"/><path d="M89.5,143.73a1,1,0,0,0-1,1v34.51a1,1,0,0,0,1,1h20.86a1,1,0,1,0,0-2H90.5V144.73A1,1,0,0,0,89.5,143.73Z"/><path d="M97.19,149.92a3.85,3.85,0,1,0,3.84,3.84A3.85,3.85,0,0,0,97.19,149.92Zm0,5.69A1.85,1.85,0,1,1,99,153.76,1.85,1.85,0,0,1,97.19,155.61Z"/><path d="M93.34,170.21a3.85,3.85,0,1,0,3.85-3.85A3.86,3.86,0,0,0,93.34,170.21Zm3.85-1.85a1.85,1.85,0,1,1-1.85,1.85A1.85,1.85,0,0,1,97.19,168.36Z"/><path d="M110.45,159.12a1,1,0,0,0-1.41,0l-1.45,1.45-1.45-1.45a1,1,0,1,0-1.42,1.42l1.45,1.45-1.45,1.45a1,1,0,0,0,0,1.41,1,1,0,0,0,1.42,0l1.45-1.45,1.45,1.45a1,1,0,0,0,1.41-1.41L109,162l1.45-1.45A1,1,0,0,0,110.45,159.12Z"/><path d="M106.81,155.12a1,1,0,0,0,1,.77.85.85,0,0,0,.23,0,1,1,0,0,0,.74-1.21,3.89,3.89,0,0,0-3.58-2.93,1,1,0,0,0-1,1,1,1,0,0,0,1,1A1.9,1.9,0,0,1,106.81,155.12Z"/><path d="M105.37,172.53a1,1,0,0,0,.24,0,3.87,3.87,0,0,0,2.93-3.58,1,1,0,0,0-2-.07,1.9,1.9,0,0,1-1.4,1.71,1,1,0,0,0,.23,2Z"/><path d="M98.19,162.83v-2.46a1,1,0,0,0-2,0v2.46a1,1,0,0,0,2,0Z"/><path d="M270.93,450.49h0v0l0,0,3.55,11.22a1,1,0,0,0,.95.7H286a3.24,3.24,0,0,0,2.62-1.3,2.89,2.89,0,0,0,.4-2.61L286.17,450l0-.1a.06.06,0,0,1,0,0l-5.72-17.28a2,2,0,0,0-1.88-1.33h0a2,2,0,0,0-1.87,1.34l-5.71,17.27s0,.08,0,.11a.13.13,0,0,0,0,.06A1,1,0,0,0,270.93,450.49Zm2.32.72h9.85l-7,8.86ZM287,460a1.21,1.21,0,0,1-1,.48h-7.73l6.55-8.23,2.3,7A.85.85,0,0,1,287,460Zm-8.47-26.78,5.27,15.95H273.27Z"/><path d="M309.06,465.49l0-.11s0,0,0,0l-6.35-19.19a2.08,2.08,0,0,0-2-1.41h0a2.06,2.06,0,0,0-2,1.42l-6.12,18.49H272.93l-6.13-18.49a2,2,0,0,0-2-1.42h0a2.07,2.07,0,0,0-2,1.42l-6.33,19.16v0L253.27,475a3.13,3.13,0,0,0,1.16,3.53l27.73,19.78.15.07h0a1,1,0,0,0,.42.1l.13,0a.58.58,0,0,0,.14,0h.07l.08,0,0,0h0l0,0,.08,0,27.73-19.77a3.12,3.12,0,0,0,1.16-3.53Zm-37.58,1.17L280,492.47l-20.51-25.81Zm14,25.82,4.38-13.23L294,466.66h12l-15.07,19Zm15.21-45.74h0c.08,0,.09,0,.09.05l5.91,17.86h-12Zm-8.77,19.91-4.86,14.67-4.3,13-9.16-27.67ZM264.72,446.8s0-.06.09-.06.08,0,.09.05l5.92,17.86h-12Zm-9.13,30.12a1.14,1.14,0,0,1-.42-1.27l2.63-7.92,19.74,24.84Zm54.31,0L288,492.57l3.74-4.7,16-20.14,2.62,7.92A1.11,1.11,0,0,1,309.9,476.92Z"/><path d="M253.67,467h0l.77-2.31,0-.08,2-6.12h0l2.64-8a1,1,0,0,0-.95-1.31h-4.56l-5.49-16.58a1.94,1.94,0,0,0-1.87-1.34h0a2,2,0,0,0-1.89,1.34l-5.7,17.25v0l-2.88,8.71a2.89,2.89,0,0,0,1.08,3.29l13.87,9.9a1,1,0,0,0,.59.18.87.87,0,0,0,.31-.05,1,1,0,0,0,.63-.63l1.42-4.26Zm-1.07-3.1a.43.43,0,0,0,0,.12l-.2.59-10.66-13.42h10.49l2.31,7Zm4.2-12.72L255.54,455l-1.25-3.79Zm-10.57-17.95,5.29,15.95H241Zm4.55,36.12L238,460.26a.91.91,0,0,1-.34-1l2.3-7,11.63,14.64Z"/><path d="M52.76,75.77l-9.13,28.14a3.1,3.1,0,0,0,1.12,3.45l26.52,19.27a1,1,0,0,0,.59.19,1,1,0,0,0,.59-.19L99,107.36a3.09,3.09,0,0,0,1.13-3.45h0L91,75.77A2,2,0,0,0,89,74.37a2,2,0,0,0-2,1.4l-5.85,18H62.5l-5.85-18a2.05,2.05,0,0,0-3.89,0Zm2,.62,6.07,18.69a1,1,0,0,0,1,.69H81.94a1,1,0,0,0,1-.69l6.16-18.69,9.14,28.13a1.08,1.08,0,0,1-.4,1.22L71.86,124.58,45.93,105.74a1.11,1.11,0,0,1-.4-1.22Z"/><path d="M72.33,114.22a1,1,0,0,0,.59-.19l12-8.7a1,1,0,0,0,.22-1.39,1,1,0,0,0-1.39-.23l-12,8.71a1,1,0,0,0,.58,1.8Z"/><path d="M82.67,108.82l-5,3.59a1,1,0,0,0-.22,1.4,1,1,0,0,0,.81.41,1,1,0,0,0,.58-.19l5-3.59a1,1,0,1,0-1.17-1.62Z"/><path d="M73.28,109.2a1,1,0,0,0,.59-.19l4.95-3.6A1,1,0,0,0,79,104a1,1,0,0,0-1.4-.23l-5,3.6a1,1,0,0,0-.22,1.4A1,1,0,0,0,73.28,109.2Z"/><path d="M330.82,90.49l-5.33,16A23.07,23.07,0,0,0,313,102.62h-.48a23.5,23.5,0,0,0-12.91,4l-5.34-16.09A2.22,2.22,0,0,0,292.13,89,2.24,2.24,0,0,0,290,90.49l-7.17,21.68s0,0,0,0l-3.64,11a3.39,3.39,0,0,0,1.27,3.84l10.1,7.19a23.58,23.58,0,0,0,21.72,15.27h.37a23.4,23.4,0,0,0,21.92-15.29L344.63,127a3.37,3.37,0,0,0,1.26-3.84l-3.63-11,0,0-7.17-21.69A2.22,2.22,0,0,0,332.94,89h0A2.2,2.2,0,0,0,330.82,90.49ZM292.11,91l.15,0a.23.23,0,0,1,.08.11l5.54,16.7a23.78,23.78,0,0,0-3.68,3.69h-9.07l6.75-20.38A.22.22,0,0,1,292.11,91Zm-1.93,28-4.36-5.49h6.95A23.22,23.22,0,0,0,290.18,119Zm-8.59,6.36a1.4,1.4,0,0,1-.53-1.58l3.05-9.2,5.44,6.83a24.86,24.86,0,0,0-.48,4.35c0,.08,0,.17,0,.25s0,0,0,0,0,0,0,0a23.16,23.16,0,0,0,.53,5Zm31.94,22V145a1,1,0,0,0-2,0v2.39a21.45,21.45,0,0,1-14.38-6.46,21.06,21.06,0,0,1-6-13.9h2.41a1,1,0,0,0,0-2h-2.41a21.53,21.53,0,0,1,20.41-20.37v2.4a1,1,0,0,0,2,0v-2.41A21.39,21.39,0,0,1,333.93,125h-2.4a1,1,0,0,0,0,2h2.41A21.34,21.34,0,0,1,313.53,147.41Zm18.79-33.9h6.91L334.88,119A23.31,23.31,0,0,0,332.32,113.51Zm11.15,11.85-8,5.71a23.14,23.14,0,0,0,.53-4.59V126a24.14,24.14,0,0,0-.47-4.59l5.43-6.83,3.06,9.19A1.41,1.41,0,0,1,343.47,125.36ZM332.94,91a.24.24,0,0,1,.24.15l6.74,20.39h-9a23,23,0,0,0-1.54-1.75,25.31,25.31,0,0,0-2.17-2l5.53-16.65A.21.21,0,0,1,332.94,91Z"/><path d="M313.57,123l0-10.89a1,1,0,0,0-1-1h0a1,1,0,0,0-1,1l0,10.86a3.23,3.23,0,0,0-2.27,3,3,3,0,0,0,.28,1.34l-5.11,4.25a1,1,0,0,0,.64,1.76,1,1,0,0,0,.64-.23l5.17-4.3a3.11,3.11,0,0,0,1.57.44h.05a3.22,3.22,0,0,0,1-6.27Zm-1.05,4.27A1.22,1.22,0,0,1,311.3,126a1.24,1.24,0,0,1,1.24-1.22h0a1.23,1.23,0,0,1,1.2,1.25A1.26,1.26,0,0,1,312.52,127.26Z"/><path d="M237.23,124.44l6.59,3.53-20.18,37.61-5.71-3.06L236.44,128a1,1,0,1,0-1.77-.95l-19,35.37a1,1,0,0,0-.1.35.48.48,0,0,0,0,.12.86.86,0,0,0,0,.16l2.21,13.81a1,1,0,0,0,1,.84,1,1,0,0,0,.42-.09l12.73-5.79,0,0a1.14,1.14,0,0,0,.28-.21l0,0a1.09,1.09,0,0,0,.13-.17s0,0,0-.06a1.46,1.46,0,0,0,.05-.2.57.57,0,0,0,0-.18.55.55,0,0,0,0-.18,1.17,1.17,0,0,0-.05-.2s0,0,0-.07a.47.47,0,0,0-.06-.09l-.12-.17-.16-.13-.09-.07-6.59-3.54,20.18-37.61,5.71,3.06-18,33.6a1,1,0,0,0,.88,1.48,1,1,0,0,0,.88-.53l18.5-34.48h0l3-5.6a5.87,5.87,0,0,0-2.39-8l-6.36-3.41a5.87,5.87,0,0,0-7.95,2.4l-3,5.6A1,1,0,0,0,237.23,124.44Zm-15.66,49.93L219.2,173l-1.32-8.25,5.69,3h0l5.69,3.05Zm20-55.95a3.89,3.89,0,0,1,5.25-1.58l6.35,3.41a3.87,3.87,0,0,1,1.58,5.25l-2.53,4.72-13.18-7.07Z"/><path d="M256.35,153.57a1,1,0,0,0,1.41,0l6.8-6.8a1,1,0,0,0,0-1.42l-6.8-6.79a1,1,0,1,0-1.41,1.41l6.09,6.09-6.09,6.09A1,1,0,0,0,256.35,153.57Z"/><path d="M205,146.77l6.8,6.8a1,1,0,0,0,.7.29,1,1,0,0,0,.71-.29,1,1,0,0,0,0-1.42l-6.09-6.09,6.09-6.09a1,1,0,0,0-1.41-1.41l-6.8,6.79A1,1,0,0,0,205,146.77Z"/><path d="M77.73,245.47A14.3,14.3,0,0,0,84.91,247a30,30,0,0,0,6.37-.75c2.6,8.48,6.92,12.44,11.22,12.44,4.83,0,8.8-4.68,11.21-12.43a30,30,0,0,0,6.7.85,13.74,13.74,0,0,0,6.93-1.59,7.24,7.24,0,0,0,3.75-6.51c0-1.7-.63-6.19-6.1-12.17,4-4.26,6.15-8.44,6.15-12.13a7.28,7.28,0,0,0-3.76-6.51c-1.48-.85-5.66-2.55-13.56-.81-2.59-8.48-6.91-12.43-11.21-12.43-4.84,0-8.8,4.67-11.21,12.44-5.69-1.33-10.42-1.13-13.63.72A7.25,7.25,0,0,0,74,214.66c0,1.7.62,6.19,6.1,12.18-4,4.25-6.15,8.43-6.15,12.12A7.25,7.25,0,0,0,77.73,245.47Zm24.77,11.25c-2.87,0-5.7-2.6-7.79-7.12a33,33,0,0,1-1.43-3.81,57.8,57.8,0,0,0,9.28-3.49,61,61,0,0,0,9.25,3.49C109.54,253,106,256.72,102.5,256.72ZM90.86,226.85q0-3.51.24-6.62c1.7-1.16,3.56-2.33,5.61-3.51s4-2.21,5.85-3.1q2.77,1.33,5.84,3.1c2,1.18,3.91,2.35,5.61,3.52.16,2.1.24,4.31.24,6.61s-.08,4.55-.24,6.62q-2.55,1.74-5.61,3.51c-2,1.18-4,2.2-5.85,3.1-1.86-.9-3.8-1.92-5.84-3.1s-3.91-2.35-5.61-3.52C90.94,231.36,90.86,229.15,90.86,226.85ZM89,232a55.37,55.37,0,0,1-6.08-5.15A54.44,54.44,0,0,1,89,221.71c-.09,1.66-.14,3.37-.14,5.14S88.91,230.35,89,232Zm6.72-17c-1.53.88-3,1.78-4.37,2.68a56.79,56.79,0,0,1,1.41-7.84,56.83,56.83,0,0,1,7.47,2.71C98.78,213.27,97.28,214.08,95.71,215Zm9.18-2.44a55,55,0,0,1,7.49-2.7,57.16,57.16,0,0,1,1.39,7.82c-1.35-.88-2.8-1.78-4.37-2.68S106.37,213.3,104.89,212.55Zm11.23,9.17a55.37,55.37,0,0,1,6.08,5.15,54.62,54.62,0,0,1-6.1,5.12c.1-1.66.15-3.37.15-5.14S116.2,223.36,116.12,221.72ZM113.77,236a56.79,56.79,0,0,1-1.41,7.84,54.93,54.93,0,0,1-7.47-2.71c1.44-.73,2.94-1.54,4.51-2.45S112.38,236.93,113.77,236Zm-18.06,2.68q2.3,1.33,4.51,2.44a54,54,0,0,1-7.49,2.69A55.26,55.26,0,0,1,91.34,236C92.69,236.91,94.14,237.81,95.71,238.71Zm30.63,5.11c-2.35,1.35-6.41,1.81-12.08.53a61.08,61.08,0,0,0,1.65-9.77,61.91,61.91,0,0,0,7.67-6.27c3.9,4.26,5.51,8,5.51,10.73A5.2,5.2,0,0,1,126.34,243.82Zm-6-35.18a12.2,12.2,0,0,1,6.07,1.33,5.18,5.18,0,0,1,2.76,4.77c0,2.7-1.61,6.43-5.54,10.68a57.21,57.21,0,0,0-7.66-6.29,59.58,59.58,0,0,0-1.58-9.77A28.17,28.17,0,0,1,120.31,208.64ZM102.61,197c2.86,0,5.7,2.59,7.79,7.11a33.69,33.69,0,0,1,1.43,3.81,58,58,0,0,0-9.29,3.5,61.44,61.44,0,0,0-9.24-3.5C95.56,200.7,99.1,197,102.61,197ZM78.77,209.88a12,12,0,0,1,6-1.29,28.22,28.22,0,0,1,6.13.76,61.08,61.08,0,0,0-1.65,9.77,62.8,62.8,0,0,0-7.68,6.27c-3.9-4.26-5.5-8-5.5-10.73A5.2,5.2,0,0,1,78.77,209.88Zm10.4,24.69a59.52,59.52,0,0,0,1.57,9.76c-5.62,1.24-9.66.76-12-.59A5.21,5.21,0,0,1,76,239c0-2.7,1.61-6.43,5.54-10.68A57.21,57.21,0,0,0,89.17,234.57Z"/><path d="M102.08,234.5a1,1,0,0,0,1,0c7.7-4.17,8.19-8,7.8-10a5,5,0,0,0-4.43-3.85,4.48,4.48,0,0,0-3.85,1.48,4.5,4.5,0,0,0-3.84-1.48,5,5,0,0,0-4.43,3.85C93.89,226.46,94.37,230.33,102.08,234.5Zm-5.84-9.58a3,3,0,0,1,2.66-2.26h.26a2.57,2.57,0,0,1,2.47,1.76,1,1,0,0,0,1.85,0,2.59,2.59,0,0,1,2.73-1.75,3,3,0,0,1,2.66,2.26c.46,2.26-1.89,5.06-6.32,7.55C98.13,230,95.78,227.18,96.24,224.92Z"/><path d="M352.82,315.79l-3.75,1.36a1,1,0,0,0-.64.79,22.82,22.82,0,0,0,0,7.19,1,1,0,0,0,.64.78l3.75,1.37a2.35,2.35,0,0,1,1.41,1.35,2.39,2.39,0,0,1,0,2l-1.68,3.6a1,1,0,0,0,.09,1,23.62,23.62,0,0,0,5.09,5.09,1,1,0,0,0,1,.09l3.6-1.68a2.43,2.43,0,0,1,2,0,2.39,2.39,0,0,1,1.35,1.4l1.37,3.75a1,1,0,0,0,.78.64,22.58,22.58,0,0,0,3.59.28h.34a1,1,0,0,0,1-1V328.8a1,1,0,0,0-1-1h-.28a6.28,6.28,0,0,1,0-12.56l.27,0a1,1,0,0,0,.74-.28,1,1,0,0,0,.31-.72V299.32a1,1,0,0,0-1-1,23.32,23.32,0,0,0-3.93.27,1,1,0,0,0-.78.65L365.62,303a2.43,2.43,0,0,1-3.31,1.37l-3.6-1.68a1,1,0,0,0-1,.1,23.4,23.4,0,0,0-5.09,5.09,1,1,0,0,0-.09,1l1.68,3.61a2.41,2.41,0,0,1,0,1.95A2.43,2.43,0,0,1,352.82,315.79Zm3.18-4.16-1.43-3.06a21.36,21.36,0,0,1,3.83-3.83l3.07,1.43a4.46,4.46,0,0,0,6-2.5l1.16-3.19c.67-.08,1.35-.13,2-.15v12.95a8.28,8.28,0,0,0,0,16.51v12.95c-.68,0-1.36-.08-2-.16l-1.16-3.18a4.44,4.44,0,0,0-6-2.5l-3.07,1.43a21.69,21.69,0,0,1-3.83-3.83l1.43-3.07a4.42,4.42,0,0,0-2.5-6l-3.18-1.16a21.37,21.37,0,0,1,0-5.42l3.18-1.15a4.46,4.46,0,0,0,2.5-6Z"/><path d="M377.4,300.32h1.38a1,1,0,0,0,0-2H377.4a1,1,0,0,0,0,2Z"/><path d="M377.4,305.25h3a1,1,0,0,0,0-2h-3a1,1,0,0,0,0,2Z"/><path d="M392,308.19h-2a1,1,0,0,0,0,2h2a1,1,0,0,0,0-2Z"/><path d="M377.4,310.19H386a1,1,0,0,0,0-2H377.4a1,1,0,0,0,0,2Z"/><path d="M377.4,315.13h13a1,1,0,0,0,0-2h-13a1,1,0,0,0,0,2Z"/><path d="M387.18,319.06a1,1,0,0,0,1,1h8.29a1,1,0,0,0,0-2h-8.29A1,1,0,0,0,387.18,319.06Z"/><path d="M382.63,318.06a1,1,0,0,0,0,2h1.54a1,1,0,0,0,0-2Z"/><path d="M397.47,324a1,1,0,0,0-1-1H382.19a1,1,0,0,0,0,2h14.28A1,1,0,0,0,397.47,324Z"/><path d="M377.4,329.94h13a1,1,0,0,0,0-2h-13a1,1,0,0,0,0,2Z"/><path d="M391.89,332.88h-4.77a1,1,0,0,0,0,2h4.77a1,1,0,0,0,0-2Z"/><path d="M377.4,334.88h6a1,1,0,0,0,0-2h-6a1,1,0,0,0,0,2Z"/><path d="M377.4,339.81h2.74a1,1,0,0,0,0-2H377.4a1,1,0,0,0,0,2Z"/><path d="M377.4,344.75h1.38a1,1,0,0,0,0-2H377.4a1,1,0,0,0,0,2Z"/><path d="M229,475.65l-2.43-.88a1.24,1.24,0,0,1-.71-.69,1.19,1.19,0,0,1,0-1l1.09-2.35a1,1,0,0,0-.1-1,15.7,15.7,0,0,0-3.38-3.38,1,1,0,0,0-1-.1l-2.34,1.1a1.22,1.22,0,0,1-1,0,1.2,1.2,0,0,1-.68-.7l-.89-2.44a1,1,0,0,0-.78-.64,15.33,15.33,0,0,0-4.78,0,1,1,0,0,0-.84,1.14,1,1,0,0,0,.32.57,1,1,0,0,0-.89.65l-.26.71a1.18,1.18,0,0,1-.69.71,1.24,1.24,0,0,1-1,0l-2.35-1.1a1,1,0,0,0-1,.1,15.93,15.93,0,0,0-3.38,3.38,1,1,0,0,0-.1,1l1.1,2.35a1.2,1.2,0,0,1,0,1,1.24,1.24,0,0,1-.71.69l-2.43.88a1,1,0,0,0-.65.79c-.07.5-.12,1-.15,1.51H187.74a7.11,7.11,0,0,0-7.1,7.1v2.79a9.09,9.09,0,0,1-18.17,0V475a11.42,11.42,0,1,0-22.83,0v14.71a5.11,5.11,0,0,1-5.11,5.11H64.8l-.09-.07.11-.12a1,1,0,0,0,.29-.86l-1.52-9.64s0-.07,0-.11,0-.12-.07-.19a.88.88,0,0,0-.12-.17.47.47,0,0,0-.06-.09L46.11,466.39h0l-10.9-10.9a7.88,7.88,0,0,0-11.15,11.14l28.1,28.1.09.06.17.11.19.07.1,0,9.64,1.52h.16a1,1,0,0,0,.71-.29l.06-.07.56.44a1.05,1.05,0,0,0,.62.21h70.07a7.12,7.12,0,0,0,7.11-7.11V475a9.42,9.42,0,1,1,18.83,0v12.83a11.09,11.09,0,0,0,22.17,0v-2.79a5.11,5.11,0,0,1,5.1-5.1H199c0,.42.08.85.14,1.27a1,1,0,0,0,.65.78l2.43.89a1.24,1.24,0,0,1,.72.68,1.26,1.26,0,0,1,0,1l-1.1,2.34a1,1,0,0,0,.1,1,15.48,15.48,0,0,0,3.38,3.38,1,1,0,0,0,1,.1l2.35-1.09a1.2,1.2,0,0,1,1,0,1.27,1.27,0,0,1,.69.71l.88,2.43a1,1,0,0,0,.79.65,16,16,0,0,0,4.78,0,1,1,0,0,0,.83-1.14.94.94,0,0,0-.22-.46,1,1,0,0,0,.75-.63l.31-.85a1.22,1.22,0,0,1,.68-.71,1.26,1.26,0,0,1,1,0l2.34,1.09a1,1,0,0,0,1-.1,15.06,15.06,0,0,0,3.38-3.38,1,1,0,0,0,.1-1l-1.09-2.34a1.23,1.23,0,0,1,.69-1.67L229,482a1,1,0,0,0,.65-.78,16,16,0,0,0,0-4.78A1,1,0,0,0,229,475.65Zm-176.15,17L37.09,476.83,42.93,471l2.73,2.74a1,1,0,0,0,.71.29,1,1,0,0,0,.71-.29,1,1,0,0,0,0-1.42l-2.74-2.73,1.06-1.06,15.78,15.78ZM25.48,456.9a5.88,5.88,0,0,1,8.31,0L44,467.1l-1.06,1-9-9a1,1,0,0,0-1.41,0l-1.27,1.27a1,1,0,0,0,0,1.42,1,1,0,0,0,1.41,0l.57-.57,8.33,8.34-5.84,5.84L25.48,465.22A5.88,5.88,0,0,1,25.48,456.9ZM55,493.34l7-6.95,1.13,7.2-.89.89Zm172.81-13-1.86.68a3.21,3.21,0,0,0-1.88,1.8,3.28,3.28,0,0,0,.05,2.59l.84,1.8a13.71,13.71,0,0,1-2.12,2.12l-1.8-.83a3.2,3.2,0,0,0-2.59-.05,3.16,3.16,0,0,0-1.8,1.87l-.31.85a1,1,0,0,0,.16.94,13.53,13.53,0,0,1-3.54.07l-.67-1.86a3.25,3.25,0,0,0-4.4-1.82l-1.79.83a13.35,13.35,0,0,1-2.13-2.12l.84-1.8a3.26,3.26,0,0,0,.06-2.6A3.22,3.22,0,0,0,203,481l-1.87-.68a13.68,13.68,0,0,1,0-3l1.87-.68a3.25,3.25,0,0,0,1.82-4.4l-.84-1.79a13.41,13.41,0,0,1,2.13-2.13l1.79.84a3.22,3.22,0,0,0,2.6.05,3.28,3.28,0,0,0,1.8-1.87l.26-.71a1,1,0,0,0-.27-1.08h.1a13.94,13.94,0,0,1,3.59-.08l.68,1.87a3.24,3.24,0,0,0,4.39,1.82l1.8-.84a13.78,13.78,0,0,1,2.12,2.13l-.84,1.79a3.31,3.31,0,0,0-.05,2.6,3.24,3.24,0,0,0,1.88,1.8l1.86.68A13.68,13.68,0,0,1,227.77,480.33Z"/><path d="M214.43,472.42a6.41,6.41,0,1,0,6.41,6.41A6.41,6.41,0,0,0,214.43,472.42Zm0,10.82a4.41,4.41,0,1,1,4.41-4.41A4.41,4.41,0,0,1,214.43,483.24Z"/><path d="M189.71,84.69h-52a1,1,0,0,0,0,2h52a2.62,2.62,0,0,1,2.62,2.61v31.4h-63V89.3A2.61,2.61,0,0,1,132,86.69a1,1,0,0,0,0-2,4.62,4.62,0,0,0-4.61,4.61v38.39A4.62,4.62,0,0,0,132,132.3h19.48v6.95h-2.29a5.11,5.11,0,0,0-5.1,5.1v1.79a1,1,0,0,0,1,1h31.55a1,1,0,0,0,1-1v-1.79a5.11,5.11,0,0,0-5.1-5.1h-2.29v-3.84a1,1,0,1,0-2,0v3.84H153.47V132.3h36.24a4.62,4.62,0,0,0,4.62-4.61V89.3A4.62,4.62,0,0,0,189.71,84.69Zm-20.47,56.56h3.29a3.1,3.1,0,0,1,3.1,3.1v.79H146.08v-.79a3.1,3.1,0,0,1,3.1-3.1h20.06Zm20.47-10.95H132a2.61,2.61,0,0,1-2.61-2.61v-5h63v5A2.62,2.62,0,0,1,189.71,130.3Z"/><path d="M157.85,104.86a11.2,11.2,0,1,0-11.2,11.19A11.21,11.21,0,0,0,157.85,104.86Zm-20.4,0a9.2,9.2,0,1,1,9.2,9.19A9.21,9.21,0,0,1,137.45,104.86Z"/><path d="M151.25,101.42a1,1,0,0,0-1.41,0l-4.78,4.77-1.6-1.6a1,1,0,0,0-1.41,0,1,1,0,0,0,0,1.42l2.3,2.3a1,1,0,0,0,1.42,0l5.48-5.48A1,1,0,0,0,151.25,101.42Z"/><path d="M186.25,104.86a11.2,11.2,0,1,0-11.19,11.19A11.21,11.21,0,0,0,186.25,104.86Zm-20.39,0a9.2,9.2,0,1,1,9.2,9.19A9.21,9.21,0,0,1,165.86,104.86Z"/><path d="M177.09,108.3a1,1,0,0,0,.71.3,1,1,0,0,0,.71-.3,1,1,0,0,0,0-1.41l-2-2,2-2a1,1,0,0,0,0-1.41,1,1,0,0,0-1.42,0l-2,2-2-2a1,1,0,1,0-1.41,1.41l2,2-2,2a1,1,0,0,0,0,1.41,1,1,0,0,0,1.41,0l2-2Z"/><path d="M214.68,300.63a1,1,0,0,0,1-1v-4.76a2.63,2.63,0,1,0-2,0v4.76A1,1,0,0,0,214.68,300.63Z"/><path d="M227.55,280.14a1,1,0,0,0,1-1v-5.86a13.88,13.88,0,0,0-27.75,0v5.86a1,1,0,0,0,2,0v-5.86a11.88,11.88,0,0,1,23.75,0v5.86A1,1,0,0,0,227.55,280.14Z"/><path d="M234.07,307.9a1,1,0,0,0-1-1H197.28V287.18a1,1,0,0,0-2,0V307.9a1,1,0,0,0,1,1h36.79A1,1,0,0,0,234.07,307.9Z"/><path d="M195.28,281.19a1,1,0,0,0,1,1h35.79v19.72a1,1,0,0,0,2,0V281.19a1,1,0,0,0-1-1H196.28A1,1,0,0,0,195.28,281.19Z"/><path d="M186.5,368.22l7.45,7.45a1,1,0,0,0,.71.3,1,1,0,0,0,1-1v-6.75h3.74a6,6,0,0,0,6-6V344.89a6,6,0,0,0-6-6H182.85v-7.36a6,6,0,0,0-6-6H150.33a6,6,0,0,0-6,6v17.36a6,6,0,0,0,6,6h3.74v6.75a1,1,0,0,0,1.71.7l7.45-7.45h3.65v7.36a6,6,0,0,0,6,6Zm-23.69-15.33a1,1,0,0,0-.7.3l-6,6v-5.33a1,1,0,0,0-1-1h-4.74a4,4,0,0,1-4-4V331.56a4,4,0,0,1,4-4h26.55a4,4,0,0,1,4,4v7.36h-7a7,7,0,0,0-7,7v7Zm18-12v8a4,4,0,0,1-4,4h-8v-7a5,5,0,0,1,5-5Zm-12,21.33v-7.36h8a6,6,0,0,0,6-6v-8H199.4a4,4,0,0,1,4,4v17.36a4,4,0,0,1-4,4h-4.74a1,1,0,0,0-1,1v5.33l-6-6a1,1,0,0,0-.7-.3H172.85A4,4,0,0,1,168.88,362.25Z"/><path d="M319.73,405a33.74,33.74,0,0,0,29-16.65,1,1,0,1,0-1.72-1,31.6,31.6,0,1,1-33.76-46.87,1,1,0,1,0-.4-2A33.6,33.6,0,0,0,319.73,405Z"/><path d="M319.73,395.37A23.87,23.87,0,0,0,341.28,382a1,1,0,0,0-1.8-.88,21.9,21.9,0,0,1-19.75,12.29,22.12,22.12,0,0,1-21.11-15.75,1,1,0,0,0-1.25-.68,1,1,0,0,0-.67,1.25A24.13,24.13,0,0,0,319.73,395.37Z"/><path d="M363.36,377.8a1,1,0,0,0-.07-1l-3.81-5.4,3.81-5.39a1,1,0,0,0,.07-1,1,1,0,0,0-.89-.54H352.6a33.74,33.74,0,0,0-32.87-26.62,1,1,0,0,0,0,2,31.71,31.71,0,0,1,30.81,24.62h-1.45a1,1,0,0,0-.81.43l-3.92,5.54h-.65a24,24,0,0,0-48,1,1,1,0,0,0,2,0,22,22,0,0,1,44-1H334.1a14.38,14.38,0,1,0-1.62,7.75,1,1,0,0,0-1.77-.94,12.44,12.44,0,1,1,1.39-6.81h-7.65a4.84,4.84,0,1,0,0,2h19.91l3.92,5.55a1,1,0,0,0,.81.43h13.38A1,1,0,0,0,363.36,377.8Zm-13.75-11.41h10.93l-2.81,4H346.8Zm-29.88,7.81a2.84,2.84,0,1,1,2.64-3.84h-2.64a1,1,0,0,0,0,2h2.64A2.84,2.84,0,0,1,319.73,374.2Zm29.88,2.14-2.81-4h10.93l2.81,4Z"/><path d="M344.7,218.55h34.62a7.12,7.12,0,0,1,7.12,7.12v28.77a7.13,7.13,0,0,1-7.12,7.12,1,1,0,0,0,0,2,9.13,9.13,0,0,0,9.12-9.12V225.67a9.13,9.13,0,0,0-9.12-9.12H344.7a1,1,0,0,0,0,2Z"/><path d="M339.7,218.55a1,1,0,0,0,0-2,9.13,9.13,0,0,0-9.12,9.12v28.77a9.13,9.13,0,0,0,9.12,9.12h8.23v8.2a1,1,0,0,0,.6.92.92.92,0,0,0,.4.08,1,1,0,0,0,.68-.27l9.51-8.93h14.93a1,1,0,0,0,0-2H358.73a1,1,0,0,0-.69.27l-8.11,7.62v-6.89a1,1,0,0,0-1-1H339.7a7.14,7.14,0,0,1-7.12-7.12V225.67A7.13,7.13,0,0,1,339.7,218.55Z"/><path d="M342.58,247.54a5.24,5.24,0,0,0,5.23,5.24h14.4a5.24,5.24,0,0,0,5.23-5.24v-.4l7.41,5.44a1,1,0,0,0,.6.2,1.06,1.06,0,0,0,.45-.11,1,1,0,0,0,.55-.89v-23a1,1,0,0,0-.56-.9,1,1,0,0,0-1,.1l-7.41,5.53v-.37a5.23,5.23,0,0,0-5.23-5.23h-14.4a5.23,5.23,0,0,0-5.23,5.23Zm2-14.39a3.23,3.23,0,0,1,3.23-3.23h14.4a3.23,3.23,0,0,1,3.23,3.23v2.37a1,1,0,0,0,.55.9,1,1,0,0,0,1.05-.1l7.41-5.54v19L367,244.36a1,1,0,0,0-1-.08,1,1,0,0,0-.55.89v2.37a3.24,3.24,0,0,1-3.23,3.24h-14.4a3.24,3.24,0,0,1-3.23-3.24Z"/><path d="M355.11,247.42a7.1,7.1,0,1,0-7.1-7.1A7.11,7.11,0,0,0,355.11,247.42Zm0-12.2a5.1,5.1,0,1,1-5.1,5.1A5.11,5.11,0,0,1,355.11,235.22Z"/><path d="M72.71,272.05a1,1,0,0,0-1,1v1.38H70.33a1,1,0,1,0,0,2h1.38v1.37a1,1,0,0,0,2,0v-1.37h1.37a1,1,0,0,0,0-2H73.71v-1.38A1,1,0,0,0,72.71,272.05Z"/><path d="M44.62,361.13v-1.38H46a1,1,0,0,0,0-2H44.62v-1.37a1,1,0,0,0-2,0v1.37H41.25a1,1,0,0,0,0,2h1.37v1.38a1,1,0,0,0,2,0Z"/><path d="M210.76,113.13a1,1,0,0,0-1,1v1.37h-1.38a1,1,0,0,0,0,2h1.38v1.38a1,1,0,0,0,2,0V117.5h1.37a1,1,0,0,0,0-2h-1.37v-1.37A1,1,0,0,0,210.76,113.13Z"/><path d="M28.78,13.43h1.38V14.8a1,1,0,1,0,2,0V13.43h1.37a1,1,0,0,0,0-2H32.16V10.05a1,1,0,1,0-2,0v1.38H28.78a1,1,0,0,0,0,2Z"/><path d="M382,132.4a1,1,0,0,0-1,1v1.38H379.6a1,1,0,0,0,0,2H381v1.37a1,1,0,0,0,2,0v-1.37h1.37a1,1,0,0,0,0-2H383V133.4A1,1,0,0,0,382,132.4Z"/><path d="M281.68,342a1,1,0,0,0,1-1V339.6h1.38a1,1,0,1,0,0-2h-1.38v-1.38a1,1,0,0,0-2,0v1.38h-1.37a1,1,0,0,0,0,2h1.37V341A1,1,0,0,0,281.68,342Z"/><path d="M236.7,421.19a1,1,0,0,0,2,0v-1.38h1.37a1,1,0,0,0,0-2H238.7v-1.37a1,1,0,0,0-2,0v1.37h-1.37a1,1,0,1,0,0,2h1.37Z"/><path d="M305.37,227.22a1,1,0,0,0-1,1V232h-3.75a1,1,0,0,0,0,2h3.75v3.75a1,1,0,1,0,2,0V234h3.75a1,1,0,0,0,0-2h-3.75v-3.75A1,1,0,0,0,305.37,227.22Z"/><path d="M385.33,379.51a1,1,0,0,0,1-1v-3.75h3.75a1,1,0,0,0,0-2h-3.75V369a1,1,0,0,0-2,0v3.75h-3.75a1,1,0,1,0,0,2h3.75v3.75A1,1,0,0,0,385.33,379.51Z"/><path d="M21.32,114.47v3.75a1,1,0,0,0,2,0v-3.75h3.75a1,1,0,0,0,0-2H23.32v-3.75a1,1,0,0,0-2,0v3.75H17.57a1,1,0,1,0,0,2Z"/><path d="M141.55,11h3.75v3.75a1,1,0,0,0,2,0V11h3.75a1,1,0,0,0,0-2H147.3V5.29a1,1,0,1,0-2,0V9h-3.75a1,1,0,0,0,0,2Z"/><path d="M388.41,280l-3.32-1.44,2.39-6.8a1,1,0,0,0-.38-1.16,1,1,0,0,0-1.22.07l-9.9,8.62a1,1,0,0,0-.33.91,1,1,0,0,0,.59.76l3.27,1.42-3.24,7.65a1,1,0,0,0,.33,1.2,1.06,1.06,0,0,0,.59.19,1,1,0,0,0,.66-.25l10.82-9.5a1,1,0,0,0,.33-.91A1,1,0,0,0,388.41,280Zm-8.6,6.78,1.92-4.53a1,1,0,0,0-.52-1.31l-2.72-1.18,5.85-5.09-1.45,4.11a1,1,0,0,0,.55,1.25l2.72,1.18Z"/><path d="M97.37,340.17h.09a1,1,0,0,0,.9-.86L100.28,325a1,1,0,0,0-.35-.9,1,1,0,0,0-.94-.19L95.54,325l-2.67-6.7a1,1,0,0,0-1.05-.62,1,1,0,0,0-.87.85l-1.8,13a1,1,0,0,0,.35.9,1,1,0,0,0,1,.19l3.39-1.08,2.58,7.9A1,1,0,0,0,97.37,340.17Zm-2.89-10.84a1,1,0,0,0-.3.05l-2.83.89,1.07-7.67,1.61,4a1,1,0,0,0,1.23.59l2.83-.9L97,334.7,95.43,330A1,1,0,0,0,94.48,329.33Z"/><path d="M41.39,55.22l3.31.86-2,7.78A1,1,0,0,0,43.25,65a1,1,0,0,0,.45.11,1,1,0,0,0,.77-.36l9-10.69a1,1,0,0,0,.19-.95,1,1,0,0,0-.7-.66l-3.37-.88,1.28-6.84a1,1,0,0,0-1.74-.83l-8.21,9.72a1,1,0,0,0-.19.94A1,1,0,0,0,41.39,55.22Zm6.78-7.15-.75,4a1,1,0,0,0,.73,1.15l2.73.71-5.14,6.14,1.14-4.5a1,1,0,0,0-.72-1.21l-2.73-.71Z"/><path d="M320.65,422.82l-3.85-.44-1.6-3.52a1,1,0,0,0-.91-.59,1,1,0,0,0-.91.59l-1.61,3.52-3.84.44a1,1,0,0,0-.84.68,1,1,0,0,0,.27,1.05l2.85,2.61-.76,3.8a1,1,0,0,0,1.47,1.06l3.37-1.9,3.36,1.9a1,1,0,0,0,.5.13,1,1,0,0,0,.58-.19,1,1,0,0,0,.4-1l-.77-3.8,2.85-2.61a1,1,0,0,0,.27-1.05A1,1,0,0,0,320.65,422.82Zm-4.06,3.25a1,1,0,0,0-.3.94l.44,2.2-2-1.11a1.07,1.07,0,0,0-.49-.12,1.11,1.11,0,0,0-.5.12l-2,1.11.44-2.2a1,1,0,0,0-.3-.94l-1.65-1.51,2.23-.26a1,1,0,0,0,.79-.58l.94-2,.93,2a1,1,0,0,0,.79.58l2.23.26Z"/><path d="M36.74,422.88l-3.84-.44-1.61-3.52a1,1,0,0,0-.91-.59,1,1,0,0,0-.91.59l-1.6,3.52-3.85.44a1,1,0,0,0-.83.68,1,1,0,0,0,.27,1.05l2.85,2.61-.77,3.8a1,1,0,0,0,.4,1,1,1,0,0,0,1.08.06l3.36-1.9,3.37,1.9A1,1,0,0,0,35.22,431l-.76-3.8,2.85-2.61a1,1,0,0,0,.27-1.05A1,1,0,0,0,36.74,422.88Zm-4.05,3.25a1,1,0,0,0-.3.94l.44,2.2-1.95-1.11a1.11,1.11,0,0,0-.5-.12,1.07,1.07,0,0,0-.49.12l-1.95,1.11.44-2.2a1,1,0,0,0-.3-.94l-1.65-1.51,2.23-.26a1,1,0,0,0,.79-.58l.93-2,.94,2a1,1,0,0,0,.79.58l2.23.26Z"/><path d="M247.47,16.63l-.77,3.79a1,1,0,0,0,.39,1,1,1,0,0,0,1.08.06l3.37-1.9,3.37,1.9a1,1,0,0,0,.49.13,1.06,1.06,0,0,0,.59-.19,1,1,0,0,0,.39-1l-.76-3.79L258.46,14a1,1,0,0,0,.28-1,1,1,0,0,0-.84-.69l-3.84-.44-1.61-3.52a1,1,0,0,0-.91-.58,1,1,0,0,0-.91.58L249,11.84l-3.84.44a1,1,0,0,0-.83.69,1,1,0,0,0,.27,1Zm2.34-2.87a1,1,0,0,0,.8-.57l.93-2,.94,2a1,1,0,0,0,.79.57l2.23.26-1.65,1.52a1,1,0,0,0-.31.93l.45,2.2-2-1.1a1,1,0,0,0-1,0l-2,1.1.44-2.2a1,1,0,0,0-.3-.93L247.58,14Z"/><path d="M352.69,44.15h9a1,1,0,0,0,0-2h-9a1,1,0,0,0,0,2Z"/><path d="M352.61,49.73H374.7a1,1,0,0,0,0-2H352.61a1,1,0,0,0,0,2Z"/><path d="M352.61,55.32h16.47a1,1,0,0,0,0-2H352.61a1,1,0,0,0,0,2Z"/><path d="M361.72,58.9h-9.11a1,1,0,0,0,0,2h9.11a1,1,0,0,0,0-2Z"/><path d="M345.69,74.73h35.93a1,1,0,0,0,1-1V68.3h5.43a1,1,0,0,0,1-1V61.88h5.44a1,1,0,0,0,1-1V11a1,1,0,0,0-1-1H358.56a1,1,0,0,0-1,1v5.42h-5.44a1,1,0,0,0-1,1v5.44h-5.43a1,1,0,0,0-1,1V73.73A1,1,0,0,0,345.69,74.73Zm22.37-49.92V36.36a1,1,0,0,0,1,1h11.56V72.73H346.69V24.81ZM379.2,35.36h-9.14V26.22ZM359.56,12h33.93V59.88h-4.44V17.37a1,1,0,0,0-1-1H359.56Zm-6.44,6.42h33.93V66.3h-4.43V36.36a1,1,0,0,0-.3-.71L369.77,23.1a1.21,1.21,0,0,0-.32-.22,1.07,1.07,0,0,0-.39-.07H353.12Z"/><path d="M375,185.85a1,1,0,0,0-1.59-1.22,4.83,4.83,0,0,0-.89,1.94H355.23a4.79,4.79,0,0,0-2-3,19.58,19.58,0,0,1-7.49-9.36,1,1,0,0,0-1.88.7,21.6,21.6,0,0,0,8.27,10.33,2.78,2.78,0,0,1,1.23,2.33v4.05h-.44a1,1,0,0,0,0,2h.46a10.53,10.53,0,0,0,.61,3.09,1,1,0,0,0-.79,1,1,1,0,0,0,1,1h.73a10.52,10.52,0,0,0,18,0h1.05a1,1,0,0,0,0-2h-.09a10.65,10.65,0,0,0,.59-3h.45a1,1,0,0,0,0-2h-.43v-4A2.82,2.82,0,0,1,375,185.85Zm-11.15,15.86a8.52,8.52,0,0,1-6.53-3h13.06A8.52,8.52,0,0,1,363.89,201.71Zm7.79-5H356.1a8.44,8.44,0,0,1-.74-3h17.06A8.65,8.65,0,0,1,371.68,196.67Zm-16.34-5v-3.05h17.1v3.05Z"/><path d="M349,152.17a4.56,4.56,0,1,0,4.56,4.55A4.56,4.56,0,0,0,349,152.17Zm0,7.11a2.56,2.56,0,1,1,2.56-2.56A2.56,2.56,0,0,1,349,159.28Z"/><path d="M381,163.12a4.56,4.56,0,1,0,4.56,4.55A4.55,4.55,0,0,0,381,163.12Zm0,7.11a2.56,2.56,0,1,1,2.56-2.56A2.56,2.56,0,0,1,381,170.23Z"/><path d="M382,156.42a1,1,0,0,0-.14-.72,21.55,21.55,0,0,0-19-9.74,21.26,21.26,0,0,0-5.86,1.12,1,1,0,0,0-.58.51,13.09,13.09,0,0,0-7.4-2.28,13.26,13.26,0,1,0,9,3.55,19.33,19.33,0,0,1,21.9,7.56,13.27,13.27,0,1,0,2.08,0ZM342.48,167.6a11.13,11.13,0,0,1,13.07,0,11.13,11.13,0,0,1-13.07,0Zm17.77-9.07a11.17,11.17,0,0,1-3.16,7.78,13.1,13.1,0,0,0-16.15-.05,11.21,11.21,0,1,1,19.31-7.73Zm14.21,20.13a11.15,11.15,0,0,1,13.07,0,11.15,11.15,0,0,1-13.07,0Zm14.61-1.3a13.1,13.1,0,0,0-16.14,0,11.21,11.21,0,1,1,16.14,0Z"/><path d="M316.62,306.54h-2.71v-2.71a1,1,0,0,0-2,0v2.71h-2.72a1,1,0,0,0,0,2h2.72v2.71a1,1,0,0,0,2,0v-2.71h2.71a1,1,0,0,0,0-2Z"/><path d="M344.3,289.88l-10.72-7.76a3.21,3.21,0,0,0-2.56-1.29H317.88a3.23,3.23,0,0,0-3.22,3.23V296.3a11.46,11.46,0,0,0-1.56-.11A11.86,11.86,0,1,0,324.58,311H331a3.22,3.22,0,0,0,2.78-1.62l11.27-15A3.2,3.2,0,0,0,344.3,289.88Zm-31.2,28A9.86,9.86,0,1,1,323,308,9.86,9.86,0,0,1,313.1,317.9ZM324.91,309c0-.3,0-.61,0-.92a11.88,11.88,0,0,0-8.3-11.31V284.06a1.23,1.23,0,0,1,1.22-1.23H331a1.23,1.23,0,0,1,1.22,1.23v23.68a1.19,1.19,0,0,1-.09.47l-.33.44a1.21,1.21,0,0,1-.8.31Zm18.54-15.81-9.21,12.27V285.07l8.89,6.43A1.22,1.22,0,0,1,343.45,293.15Z"/><path d="M391.72,438.45H338.35a6.45,6.45,0,0,0-6.43,6.44v43.53a6.44,6.44,0,0,0,6.43,6.43h53.37a6.44,6.44,0,0,0,6.43-6.43V444.89A6.45,6.45,0,0,0,391.72,438.45Zm-53.37,2h53.37a4.44,4.44,0,0,1,4.43,4.44v3.49H333.92v-3.49A4.44,4.44,0,0,1,338.35,440.45Zm-4.43,48v-38H346v42.33a.7.7,0,0,0,0,.14h-7.72A4.44,4.44,0,0,1,333.92,488.42Zm57.8,4.43H348a.7.7,0,0,0,0-.14V450.38h48.11v38A4.44,4.44,0,0,1,391.72,492.85Z"/><path d="M356.73,458.13h18.19a1,1,0,0,0,0-2H356.73a1,1,0,0,0,0,2Z"/><path d="M380.61,458.13H384a1,1,0,0,0,0-2h-3.39a1,1,0,0,0,0,2Z"/><path d="M391.72,463.54h-35a1,1,0,0,0,0,2h35a1,1,0,0,0,0-2Z"/><path d="M356.73,473H365a1,1,0,0,0,0-2h-8.22a1,1,0,0,0,0,2Z"/><path d="M386.33,471h-16.8a1,1,0,0,0,0,2h16.8a1,1,0,0,0,0-2Z"/><path d="M373.17,478.37H356.73a1,1,0,0,0,0,2h16.44a1,1,0,0,0,0-2Z"/><path d="M342.85,454.12h-6a1,1,0,0,0,0,2h6a1,1,0,0,0,0-2Z"/><path d="M342.85,457.84h-6a1,1,0,0,0,0,2h6a1,1,0,0,0,0-2Z"/><path d="M342.85,461.56h-6a1,1,0,0,0,0,2h6a1,1,0,0,0,0-2Z"/><path d="M338.13,445.07a1,1,0,0,0,.71.3,1,1,0,0,0,.71-.3,1,1,0,0,0,0-1.41,1,1,0,0,0-1.09-.22,1.19,1.19,0,0,0-.33.22,1,1,0,0,0-.29.71,1,1,0,0,0,.29.7Z"/><path d="M342.85,445.37a1,1,0,0,0,1-1,1,1,0,0,0-.3-.71.64.64,0,0,0-.15-.13l-.17-.09-.19-.06a1,1,0,0,0-.9.28,1,1,0,0,0-.29.71,1,1,0,0,0,.29.7A1,1,0,0,0,342.85,445.37Z"/><path d="M346.14,445.07a.83.83,0,0,0,.33.22,1,1,0,0,0,.38.08,1,1,0,0,0,1-1,1,1,0,0,0-1.71-.71,1,1,0,0,0-.29.71.84.84,0,0,0,.08.38A1,1,0,0,0,346.14,445.07Z"/><path d="M245,65.34a9.94,9.94,0,0,0,12.34,6.79l1.3-.37L270.16,87.6A1,1,0,0,0,271,88a1.35,1.35,0,0,0,.28,0l11.16-3.24a1,1,0,0,0,.66-.63,1,1,0,0,0-.13-.92L274.56,71.7a1,1,0,0,0-1.4-.22,1,1,0,0,0-.22,1.39l7.54,10.34-9.11,2.64L260.65,71.16l19.79-5.73,26.17,12a1,1,0,0,0,.42.09,1,1,0,0,0,1-1.28l-6.05-20.86A11.74,11.74,0,0,0,296,35l-6-20.86a1,1,0,0,0-.81-.71,1,1,0,0,0-1,.43L272.33,37.4l-10,2.89a1,1,0,0,0-.69,1.24L269,66.68l-12.2,3.53a8,8,0,0,1-9.86-5.43l-2.58-8.89A7.95,7.95,0,0,1,249.74,46l7-2a1,1,0,1,0-.56-1.92l-7,2a10,10,0,0,0-6.79,12.33ZM303.53,43.9a9.75,9.75,0,0,1-2.22,9.35l-4.65-16.06A9.74,9.74,0,0,1,303.53,43.9ZM288.66,16.77l16.8,58-24.1-11.09-7.31-25.22Zm-24.8,25.16,8.42-2.43,3.5,12.09,3.51,12.09-8.42,2.44Z"/><path d="M322.44,45.49a1,1,0,0,0,.94,1.06l6.77.4h.06a1,1,0,0,0,.05-2l-6.76-.4A1,1,0,0,0,322.44,45.49Z"/><path d="M314.57,53a1,1,0,0,0,.29,1.39l12.27,8a1,1,0,0,0,1.1-1.68l-12.27-8A1,1,0,0,0,314.57,53Z"/><path d="M319.3,32.25a1,1,0,0,0,.58-.19l5.5-4a1,1,0,0,0,.23-1.4,1,1,0,0,0-1.39-.23l-5.51,4a1,1,0,0,0-.22,1.39A1,1,0,0,0,319.3,32.25Z"/><path d="M307.8,29.67a1.06,1.06,0,0,0,.42.09,1,1,0,0,0,.91-.59l6.07-13.35a1,1,0,0,0-.5-1.33,1,1,0,0,0-1.32.5l-6.07,13.35A1,1,0,0,0,307.8,29.67Z"/><path d="M139.71,74.8a1,1,0,1,0,1.41-1.42l-9.46-9.45a1,1,0,0,0,.13-.09,5.58,5.58,0,0,0,.19-7.7,30.49,30.49,0,0,0,4.3-11,5.6,5.6,0,0,0,0-11.16,31.08,31.08,0,0,0-5-12,5.52,5.52,0,0,0,1.34-3.59,5.59,5.59,0,0,0-9.2-4.27,31.08,31.08,0,0,0-12-5,5.61,5.61,0,0,0-11.17,0,30.52,30.52,0,0,0-11,4.31,5.61,5.61,0,0,0-7.72.17s0,.07-.07.1l-9.4-9.4A1,1,0,1,0,70.7,5.79ZM89.51,21.6a5.54,5.54,0,0,0,1-6.5,28.58,28.58,0,0,1,10-3.91,5.6,5.6,0,0,0,10.79,0,29.08,29.08,0,0,1,10.89,4.52,5.54,5.54,0,0,0,.9,6.7,5.54,5.54,0,0,0,6.7.9,29.09,29.09,0,0,1,4.51,10.88,5.6,5.6,0,0,0,0,10.78,28.38,28.38,0,0,1-3.91,9.94,5.59,5.59,0,0,0-6.52,1s0,.08-.08.12L89.4,21.67A1.05,1.05,0,0,0,89.51,21.6Zm35.64,35.81a.83.83,0,0,0,.12-.08,3.62,3.62,0,0,1,5.11,0,3.62,3.62,0,0,1,0,5.1.54.54,0,0,0-.09.12Zm14.26-17.82a3.61,3.61,0,1,1-3.6-3.6A3.61,3.61,0,0,1,139.41,39.59ZM129.6,15.91a3.61,3.61,0,1,1-5.1,0A3.57,3.57,0,0,1,129.6,15.91ZM105.9,6.09a3.61,3.61,0,1,1-3.61,3.6A3.61,3.61,0,0,1,105.9,6.09ZM83,15.09a3.6,3.6,0,0,1,5.1,0,3.59,3.59,0,0,1,0,5.09s0,.08-.07.11l-5.13-5.14A.53.53,0,0,0,83,15.09Z"/><path d="M81.48,22.23a1,1,0,0,0-1.38.27,30.84,30.84,0,0,0,2.53,37.43.43.43,0,0,0,.09.1A30.91,30.91,0,0,0,123,65.32a1,1,0,0,0-1.1-1.67A28.91,28.91,0,0,1,85.74,60.3h29a1,1,0,0,0,0-2H83.86A28.73,28.73,0,0,1,79,50.12h26.49a1,1,0,0,0,0-2H78.66a.93.93,0,0,0-.4.09,28.9,28.9,0,0,1,.42-18.45H84.8a1,1,0,0,0,0-2H79.48a30,30,0,0,1,2.28-4.15A1,1,0,0,0,81.48,22.23Z"/><path d="M77.66,38.94a1,1,0,0,0,1,1H95.25a1,1,0,0,0,0-2H78.66A1,1,0,0,0,77.66,38.94Z"/><path d="M263.84,334.39a.84.84,0,0,0-.06-.14,1.45,1.45,0,0,0-.09-.22v0a.5.5,0,0,0-.13-.12,1.42,1.42,0,0,0-.12-.13l-3.65-2.53V320a1,1,0,0,0-1-1H228.32a1,1,0,1,0,0,2h29.46v15.7a.8.8,0,0,0,0,.15l-15.93,11-15.92-11c0-.05,0-.1,0-.15V320a1,1,0,0,0-2,0v11.23h0l-3.64,2.53a.74.74,0,0,0-.12.13s-.1.07-.13.12v0a1.89,1.89,0,0,0-.09.21,1.56,1.56,0,0,0-.06.15,1.21,1.21,0,0,0,0,.19,1.21,1.21,0,0,0,0,.19.59.59,0,0,0,.06.14.73.73,0,0,0,.09.22v0s0,0,.06.06a.86.86,0,0,0,.19.19l21,14.5a1,1,0,0,0,1.13,0l21-14.5a.86.86,0,0,0,.19-.19s0,0,.06-.06v0a.73.73,0,0,0,.09-.22.59.59,0,0,0,.06-.14,1.21,1.21,0,0,0,0-.19A1.21,1.21,0,0,0,263.84,334.39ZM224,333.66v1.83l-1.32-.91Zm35.79,0,1.32.92-1.32.91Z"/><path d="M263.86,362V338.56a1,1,0,0,0-2,0v20.78l-9.58-9.57a1,1,0,0,0-1.41,1.41l9.76,9.77H223.14l9.76-9.77a1,1,0,0,0-1.41-1.41l-9.58,9.57V338.56a1,1,0,0,0-2,0v22.88a1,1,0,0,0,.2,1.12l.06,0a1,1,0,0,0,.74.35h42A1,1,0,0,0,263.86,362Z"/><path d="M240.77,332.05a6.4,6.4,0,1,0-6.4,6.4A6.4,6.4,0,0,0,240.77,332.05Zm-10.79,0a4.4,4.4,0,1,1,4.39,4.4A4.4,4.4,0,0,1,230,332.05Z"/><path d="M237.14,329.9a1,1,0,0,0-1.41,0l-2.2,2.19-.51-.51a1,1,0,0,0-1.41,0,1,1,0,0,0,0,1.42l1.22,1.22a1,1,0,0,0,1.41,0l2.9-2.9A1,1,0,0,0,237.14,329.9Z"/><path d="M255.79,332.05a6.4,6.4,0,1,0-6.39,6.4A6.4,6.4,0,0,0,255.79,332.05Zm-10.79,0a4.4,4.4,0,1,1,4.4,4.4A4.4,4.4,0,0,1,245,332.05Z"/><path d="M250.14,334.21a1,1,0,0,0,1.41,0,1,1,0,0,0,0-1.41l-.74-.75.74-.74a1,1,0,0,0-1.41-1.41l-.75.74-.74-.74a1,1,0,0,0-1.41,1.41l.74.74-.74.75a1,1,0,0,0,0,1.41,1,1,0,0,0,1.41,0l.74-.74Z"/><path d="M398.2,101.71a1,1,0,0,0-1,1v15.51c0,1.94-.67,1.94-1.07,1.94H368a1.94,1.94,0,0,1-1.94-1.94V102.71a1,1,0,1,0-2,0v15.51a4,4,0,0,0,3.94,3.94h28.16c1.14,0,3.07-.51,3.07-3.94V102.71A1,1,0,0,0,398.2,101.71Z"/><path d="M396.13,88.92a1,1,0,0,0,0,2c.4,0,1.07,0,1.07,1.94V97H366V92.86A1.94,1.94,0,0,1,368,90.92h2.47v.84a1,1,0,0,0,2,0v-.84h18.34v.84a1,1,0,0,0,2,0V88.08a1,1,0,1,0-2,0v.84H372.44v-.84a1,1,0,1,0-2,0v.84H368A4,4,0,0,0,364,92.86V98a1,1,0,0,0,1,1H398.2a1,1,0,0,0,1-1V92.86C399.2,89.43,397.27,88.92,396.13,88.92Z"/><path d="M380,105.62h3.23a1,1,0,0,0,0-2H380a1,1,0,0,0,0,2Z"/><path d="M389.08,105.62h3.23a1,1,0,0,0,0-2h-3.23a1,1,0,0,0,0,2Z"/><path d="M370.84,110.58h3.24a1,1,0,0,0,0-2h-3.24a1,1,0,0,0,0,2Z"/><path d="M380,110.58h3.23a1,1,0,0,0,0-2H380a1,1,0,0,0,0,2Z"/><path d="M389.08,110.58h3.23a1,1,0,0,0,0-2h-3.23a1,1,0,0,0,0,2Z"/><path d="M370.84,115.53h3.24a1,1,0,0,0,0-2h-3.24a1,1,0,0,0,0,2Z"/><path d="M380,115.53h3.23a1,1,0,0,0,0-2H380a1,1,0,0,0,0,2Z"/><path d="M228.66,76.15a1,1,0,1,0-.74,1.85,10.54,10.54,0,1,1-3.88-.73,1,1,0,0,0,0-2,12.51,12.51,0,1,0,4.62.88Z"/><path d="M223.15,82.68a1,1,0,0,0-1.41,0l-4.4,4.4a1,1,0,0,0,0,1.42l4.4,4.4a1,1,0,0,0,.71.29,1,1,0,0,0,.7-.29,1,1,0,0,0,0-1.42l-3.69-3.69,3.69-3.69A1,1,0,0,0,223.15,82.68Z"/><path d="M229.75,82.68a1,1,0,0,0-1.42,0l-4.4,4.4a1,1,0,0,0,0,1.42l4.4,4.4a1,1,0,0,0,.71.29,1,1,0,0,0,.71-.29,1,1,0,0,0,0-1.42l-3.7-3.69,3.7-3.69A1,1,0,0,0,229.75,82.68Z"/><path d="M158.15,272.66a1,1,0,0,0,.61-.92v-3.86a1,1,0,0,0-2,0v3.21a15.33,15.33,0,1,0,13.13,0v-7H172a1,1,0,0,0,0-2H154.62a1,1,0,0,0,0,2h13.27v7.62a1,1,0,0,0,.61.92,13.34,13.34,0,0,1,7.42,7.95H150.73A13.31,13.31,0,0,1,158.15,272.66Zm-7.85,9.95h26.14a13.85,13.85,0,0,1,.21,2.34A13.33,13.33,0,0,1,150,285a14.18,14.18,0,0,1,.21-2.36Z"/><path d="M158.43,291l.09.17.13.15a1,1,0,0,0,.7.29,1,1,0,0,0,.71-.29l.13-.15.09-.17a1.8,1.8,0,0,0,.05-.19.68.68,0,0,0,0-.2,1,1,0,0,0-.07-.38,1,1,0,0,0-.22-.32l-.15-.13a1.08,1.08,0,0,0-.36-.15,1,1,0,0,0-.9.28.87.87,0,0,0-.22.32,1,1,0,0,0-.08.38,1.36,1.36,0,0,0,0,.2C158.39,290.82,158.4,290.88,158.43,291Z"/><path d="M167,287.82a.56.56,0,0,0,.17.09.7.7,0,0,0,.19.06l.19,0a1,1,0,0,0,.39-.08,1,1,0,0,0,.32-.21,1.19,1.19,0,0,0,.22-.33,1,1,0,0,0-.54-1.3,1,1,0,0,0-.58-.06.7.7,0,0,0-.19.06.56.56,0,0,0-.17.09.44.44,0,0,0-.15.12,1,1,0,0,0,0,1.42Z"/><path d="M112,447.35a1,1,0,0,0,1-1V432.5a4.64,4.64,0,0,0-4.63-4.63H82.14a4.64,4.64,0,0,0-4.63,4.63v13.85a1,1,0,0,0,2,0V432.5a2.63,2.63,0,0,1,2.63-2.63h26.22A2.63,2.63,0,0,1,111,432.5v13.85A1,1,0,0,0,112,447.35Z"/><path d="M116.58,453.63V450.8a1,1,0,0,0-1-1H74.92a1,1,0,0,0-1,1v2.83a3.83,3.83,0,0,0,3.82,3.83h35A3.83,3.83,0,0,0,116.58,453.63Zm-2,0a1.83,1.83,0,0,1-1.82,1.83h-35a1.83,1.83,0,0,1-1.82-1.83V451.8h38.66Z"/><path d="M92.79,433.33a1,1,0,0,0-1-.07,1,1,0,0,0-.54.89V445.7a1,1,0,0,0,.54.89,1,1,0,0,0,.46.11,1.06,1.06,0,0,0,.57-.17l8.38-5.78a1,1,0,0,0,0-1.65Zm.43,10.47v-7.75l5.62,3.88Z"/><path d="M270.57,424.72c4.86,0,13.08-.86,13.08-4.1a1,1,0,0,0-1-1,1,1,0,0,0-1,1c-.31.75-4.4,2.15-11.09,2.15s-10.78-1.4-11.09-2.1V406.18c2.74,1.33,7.72,1.74,11.09,1.74s8.34-.41,11.08-1.74v6c-.35.75-4.42,2.14-11.08,2.14a32,32,0,0,1-9.18-1.13,1,1,0,0,0-.62,1.9,34.09,34.09,0,0,0,9.8,1.23c3.36,0,8.34-.41,11.08-1.74v3.22a1,1,0,1,0,2,0V395.43c0-3.24-8.22-4.1-13.08-4.1s-13.09.86-13.09,4.1,8.23,4.09,13.09,4.09c3.36,0,8.34-.41,11.08-1.74v6c-.35.76-4.42,2.14-11.08,2.14s-10.78-1.4-11.09-2.1v-3.25a1,1,0,1,0-2,0v20.05C257.48,423.86,265.71,424.72,270.57,424.72Zm0-27.2c-6.54,0-10.6-1.33-11.07-2.09.47-.77,4.53-2.1,11.07-2.1s10.59,1.33,11.07,2.1C281.16,396.19,277.11,397.52,270.57,397.52Z"/><path d="M162.78,252.49a3.49,3.49,0,1,0,3.49-3.49A3.5,3.5,0,0,0,162.78,252.49Zm5,0a1.49,1.49,0,1,1-1.49-1.49A1.49,1.49,0,0,1,167.76,252.49Z"/><path d="M166.68,238.81l.13.15a.88.88,0,0,0,.15.12.56.56,0,0,0,.17.09.7.7,0,0,0,.19.06l.19,0a.85.85,0,0,0,.39-.08,1,1,0,0,0,.32-.21l.13-.15.09-.18.06-.18a1.36,1.36,0,0,0,0-.2,1,1,0,0,0-.3-.71,1,1,0,0,0-.32-.21,1,1,0,0,0-.58-.06.7.7,0,0,0-.19.06.56.56,0,0,0-.17.09l-.15.12a1.19,1.19,0,0,0-.22.33,1,1,0,0,0-.07.38.68.68,0,0,0,0,.2,1.21,1.21,0,0,0,.05.18Z"/><path d="M365.76,421.53a1,1,0,0,0,.34.75,15.84,15.84,0,0,0,21,0,1,1,0,0,0,.33-.75,1,1,0,0,0-.33-.75,15.84,15.84,0,0,0-21,0A1,1,0,0,0,365.76,421.53Zm10.85-2.74a13.77,13.77,0,0,1,8.26,2.74,13.84,13.84,0,0,1-16.53,0A13.8,13.8,0,0,1,376.61,418.79Z"/><path d="M382.34,409.49a5.74,5.74,0,1,0-5.73,5.74A5.74,5.74,0,0,0,382.34,409.49Zm-9.47,0a3.74,3.74,0,1,1,3.74,3.74A3.74,3.74,0,0,1,372.87,409.49Z"/><path d="M388.31,419.61a1,1,0,0,0,1.39-.26,15.83,15.83,0,1,0-26.16,0,1,1,0,0,0,.83.44,1,1,0,0,0,.56-.18,1,1,0,0,0,.26-1.39,13.84,13.84,0,1,1,22.85,0A1,1,0,0,0,388.31,419.61Z"/><path d="M255,302.49a3.5,3.5,0,1,0-3.5,3.5A3.5,3.5,0,0,0,255,302.49Zm-5,0a1.5,1.5,0,1,1,1.5,1.5A1.51,1.51,0,0,1,250,302.49Z"/><path d="M243,486.42a3.5,3.5,0,1,0,3.5,3.5A3.5,3.5,0,0,0,243,486.42Zm0,5a1.5,1.5,0,1,1,1.5-1.5A1.51,1.51,0,0,1,243,491.42Z"/><path d="M332.89,189.56a3.5,3.5,0,1,0,3.5,3.5A3.5,3.5,0,0,0,332.89,189.56Zm0,5a1.5,1.5,0,1,1,1.5-1.5A1.5,1.5,0,0,1,332.89,194.56Z"/><path d="M20,256.54a1,1,0,0,0,.29-.7,1,1,0,1,0-2,0,1,1,0,0,0,1.71.7Z"/><path d="M272.58,375a.83.83,0,0,0-.33.22,1,1,0,0,0,0,1.41.83.83,0,0,0,.33.22,1,1,0,0,0,.38.07,1,1,0,0,0,.7-.29,1,1,0,0,0,.3-.71,1,1,0,0,0-.3-.7A1,1,0,0,0,272.58,375Z"/><path d="M65.25,137.6a1,1,0,0,0-.13-.16,1,1,0,0,0-1.09-.21,1,1,0,0,0-.32.21,1,1,0,0,0-.13.16l-.09.17-.06.19a1.23,1.23,0,0,0,0,.19,1,1,0,0,0,1.71.71,1,1,0,0,0,.29-.71.62.62,0,0,0,0-.19,1.05,1.05,0,0,0,0-.19Z"/><path d="M231.13,11a1,1,0,0,0,.38.08,1,1,0,0,0,.39-.08,1,1,0,0,0,.32-.21,1,1,0,0,0,.3-.71,1,1,0,0,0-.3-.71,1,1,0,0,0-.32-.21.94.94,0,0,0-.77,0,1,1,0,0,0-.32.21,1,1,0,0,0-.3.71,1,1,0,0,0,.3.71A1,1,0,0,0,231.13,11Z"/><path d="M351.42,90.71a1,1,0,0,0-.3.71,1,1,0,0,0,.08.38.83.83,0,0,0,.22.33,1,1,0,0,0,.7.29,1.07,1.07,0,0,0,.39-.07,1.21,1.21,0,0,0,.32-.22,1,1,0,0,0,.22-.33,1,1,0,0,0,.07-.38,1,1,0,0,0-.29-.71,1,1,0,0,0-.32-.21A1,1,0,0,0,351.42,90.71Z"/><path d="M391.4,207.1a1,1,0,0,0,0-1.41,1,1,0,0,0-1.41,0,1,1,0,0,0,0,1.41,1,1,0,0,0,.71.3A1,1,0,0,0,391.4,207.1Z"/><path d="M247.11,175.44a1,1,0,0,0,.38.07l.2,0,.19-.05.17-.1a.79.79,0,0,0,.15-.12,1,1,0,0,0,.22-.33,1,1,0,0,0,.07-.38.62.62,0,0,0,0-.19,1.05,1.05,0,0,0-.05-.19,1,1,0,0,0-.1-.17.44.44,0,0,0-.12-.15l-.15-.13a1.08,1.08,0,0,0-.36-.15,1,1,0,0,0-.58.06.87.87,0,0,0-.32.22,1,1,0,0,0-.3.7,1,1,0,0,0,.08.38.83.83,0,0,0,.22.33A1.21,1.21,0,0,0,247.11,175.44Z"/><path d="M234.23,259.47a1,1,0,0,0,.38.07,1,1,0,0,0,.71-.29,1,1,0,0,0,.29-.71,1,1,0,0,0-.29-.7,1,1,0,0,0-1.09-.22.83.83,0,0,0-.33.22,1,1,0,0,0-.29.7.91.91,0,0,0,.08.39,1,1,0,0,0,.21.32A1,1,0,0,0,234.23,259.47Z"/><path d="M349,412.71a1,1,0,0,0,1-1,1.09,1.09,0,0,0-.08-.39,1,1,0,0,0-.21-.32,1,1,0,0,0-1.42,0,1,1,0,0,0-.21.32,1.09,1.09,0,0,0-.08.39,1,1,0,0,0,1,1Z"/><path d="M132.06,368.11a1,1,0,1,0-1.42-1.42,1.12,1.12,0,0,0-.22.33,1,1,0,0,0-.07.38,1,1,0,0,0,1.71.71Z"/><path d="M71.21,402.73a.6.6,0,0,0-.19.06.56.56,0,0,0-.17.09.61.61,0,0,0-.15.12.83.83,0,0,0-.22.33,1,1,0,0,0-.08.38,1.23,1.23,0,0,0,0,.19,1.06,1.06,0,0,0,.06.19.91.91,0,0,0,.09.17,1,1,0,0,0,.13.16l.15.12a.56.56,0,0,0,.17.09.6.6,0,0,0,.19.06l.19,0a1,1,0,0,0,.38-.08.93.93,0,0,0,.33-.21.61.61,0,0,0,.12-.16,1,1,0,0,0,.1-.17,1.05,1.05,0,0,0,0-.19.62.62,0,0,0,0-.19,1,1,0,0,0-.07-.38,1,1,0,0,0-.22-.33A1,1,0,0,0,71.21,402.73Z"/><path d="M173.27,468.76a1,1,0,0,0-.33.22,1.21,1.21,0,0,0-.22.32,1.07,1.07,0,0,0-.07.39,1,1,0,0,0,.29.7,1,1,0,0,0,.71.3,1,1,0,0,0,1-1,1.09,1.09,0,0,0-.08-.39.87.87,0,0,0-.22-.32A1,1,0,0,0,173.27,468.76Z"/><path d="M112,485.63a1,1,0,0,0,1-1v-1.38h1.37a1,1,0,1,0,0-2H113v-1.37a1,1,0,0,0-2,0v1.37h-1.38a1,1,0,0,0,0,2H111v1.38A1,1,0,0,0,112,485.63Z"/></svg>