<svg id="Layer_1" data-name="Layer 1" xmlns="http://www.w3.org/2000/svg" viewBox="0 0 396.65 500"><path d="M303.74,31.67a1,1,0,0,0,.33-.75,1,1,0,0,0-.33-.75,17.84,17.84,0,0,0-23.67,0,1,1,0,0,0-.34.75,1,1,0,0,0,.34.75,17.81,17.81,0,0,0,23.67,0Zm-11.84-4a15.79,15.79,0,0,1,9.6,3.24,15.79,15.79,0,0,1-19.19,0A15.78,15.78,0,0,1,291.9,27.68Z"/><path d="M298.28,17.26a6.38,6.38,0,1,0-6.38,6.38A6.38,6.38,0,0,0,298.28,17.26Zm-10.75,0a4.38,4.38,0,1,1,4.37,4.38A4.37,4.37,0,0,1,287.53,17.26Z"/><path d="M278,28.84a1,1,0,0,0,.56-.17,1,1,0,0,0,.26-1.39,15.83,15.83,0,1,1,26.15,0,1,1,0,0,0,1.65,1.12,17.82,17.82,0,1,0-29.45,0A1,1,0,0,0,278,28.84Z"/><path d="M98.84,262.24a12.62,12.62,0,0,0,8.39-3.19,1,1,0,0,0,.33-.75,1,1,0,0,0-.33-.75,12.63,12.63,0,0,0-16.78,0,1,1,0,0,0-.34.75,1,1,0,0,0,.34.75A12.59,12.59,0,0,0,98.84,262.24Zm0-5.88A10.69,10.69,0,0,1,105,258.3a10.62,10.62,0,0,1-12.24,0A10.67,10.67,0,0,1,98.84,256.36Z"/><path d="M94.12,248.85a4.72,4.72,0,1,0,4.72-4.71A4.73,4.73,0,0,0,94.12,248.85Zm7.44,0a2.72,2.72,0,1,1-2.72-2.71A2.72,2.72,0,0,1,101.56,248.85Z"/><path d="M107.9,257a1,1,0,0,0,1.39-.26,12.64,12.64,0,1,0-20.88,0,1,1,0,0,0,.82.43,1.08,1.08,0,0,0,.57-.17,1,1,0,0,0,.26-1.4,10.51,10.51,0,0,1-1.86-6,10.64,10.64,0,1,1,19.44,6A1,1,0,0,0,107.9,257Z"/><path d="M136.7,107a1,1,0,0,0,1.41,0l6.79-6.84a32.48,32.48,0,0,1,22-9.82l-6.15,7.06a1,1,0,0,0,0,1.31l6.24,7.15a17.08,17.08,0,0,0-11,5.15l-7.08,7.14a1,1,0,0,0,0,1.41,1,1,0,0,0,1.42,0l7.09-7.15a15.25,15.25,0,1,1,.44,21.73L122.7,98.76A34.51,34.51,0,0,0,97.87,88.3h-.3s0,0-.07,0a34.74,34.74,0,0,0,.37,69.48c.48,0,1,0,1.43,0a1.24,1.24,0,0,0,.16,0,.87.87,0,0,0,.32-.06,34.52,34.52,0,0,0,22.33-9.82l7.12-7.17a1,1,0,0,0-1.42-1.41l-7.1,7.16a32.56,32.56,0,0,1-20.85,9.23L93.16,148l6.89-7.9a17.14,17.14,0,0,0,9.65-4.55l7.32-7.37a1,1,0,1,0-1.42-1.41l-7.29,7.35a15.25,15.25,0,1,1,.49-21.75l14.32,14.42a.81.81,0,0,0,.26.26L144.12,148a34.56,34.56,0,0,0,22.8,9.76.72.72,0,0,0,.19,0l.12,0c.35,0,.7,0,1.06,0a34.74,34.74,0,0,0,.89-69.47H169l-.68,0a34.47,34.47,0,0,0-24.82,10.45l-6.78,6.83A1,1,0,0,0,136.7,107ZM97.29,140.27l-6.21,7.12a1,1,0,0,0,0,1.31l6.17,7.07a32.77,32.77,0,0,1-31.93-29.21l7.83-6.83L81,126.55A17.28,17.28,0,0,0,97.29,140.27ZM80.61,123c0,.2,0,.38,0,.57l-6.83-6a1,1,0,0,0-1.32,0l-7.34,6.4c0-.33,0-.67,0-1A32.77,32.77,0,0,1,97.05,90.32L103.79,98,97,105.83A17.27,17.27,0,0,0,80.61,123Zm19-17.17,6.26-7.17a1,1,0,0,0,0-1.31l-6.14-7a32.41,32.41,0,0,1,21.54,9.81l14,14.09-.7,10.29-10.2.7L110.22,111A17.09,17.09,0,0,0,99.61,105.87Zm26.62,21.26,9.35-.64a1,1,0,0,0,.93-.93l.64-9.41,19.27,19.41a17.13,17.13,0,0,0,10.16,4.65l6.83,7.83-6.72,7.71a32.52,32.52,0,0,1-21.16-9.18Zm43.1,28.63,6.16-7.06a1,1,0,0,0,0-1.31l-6.23-7.14a17.27,17.27,0,0,0,15.88-13.54l8-7,7.71,6.72A32.78,32.78,0,0,1,169.33,155.76ZM201,123c0,.3,0,.6,0,.9l-7.21-6.29a1,1,0,0,0-1.31,0l-7,6.09c0-.24,0-.46,0-.7a17.27,17.27,0,0,0-15.94-17.19L162.79,98l6.72-7.71A32.78,32.78,0,0,1,201,123Z"/><path d="M199.85,147.45A41.13,41.13,0,0,1,167,163.94a40.67,40.67,0,0,1-28.44-11.53,1,1,0,0,0-1.39,1.43A42.63,42.63,0,0,0,167,165.94a43.11,43.11,0,0,0,34.41-17.3,1,1,0,1,0-1.6-1.19Z"/><path d="M206.8,132.69A40.76,40.76,0,0,1,202.18,144a1,1,0,0,0,.34,1.38,1.1,1.1,0,0,0,.52.14,1,1,0,0,0,.86-.49,42.81,42.81,0,0,0,4.84-11.83,1,1,0,1,0-1.94-.47Z"/><path d="M209,122a1,1,0,0,0-1,1,41.22,41.22,0,0,1-.38,5.56,1,1,0,0,0,.86,1.12h.13a1,1,0,0,0,1-.86A43.59,43.59,0,0,0,210,123,1,1,0,0,0,209,122Z"/><path d="M56.07,124a1,1,0,0,0,1-1,42,42,0,0,1,.21-4.2,1,1,0,1,0-2-.21,43.26,43.26,0,0,0-.22,4.41A1,1,0,0,0,56.07,124Z"/><path d="M58.34,112.9a40.76,40.76,0,0,1,6.59-14,1,1,0,0,0-1.61-1.18A42.71,42.71,0,0,0,56.4,112.4a1,1,0,0,0,.72,1.22,1.07,1.07,0,0,0,.25,0A1,1,0,0,0,58.34,112.9Z"/><path d="M66.53,95.3a1,1,0,0,0,1.41,0A41.17,41.17,0,0,1,98.1,82a40.71,40.71,0,0,1,29.32,12.36,1,1,0,0,0,1.42,0,1,1,0,0,0,0-1.41A42.67,42.67,0,0,0,98.1,80,43.18,43.18,0,0,0,66.47,93.89,1,1,0,0,0,66.53,95.3Z"/><path d="M350.91,177.09a4.49,4.49,0,1,0-4.49,4.49A4.5,4.5,0,0,0,350.91,177.09Zm-7,0a2.49,2.49,0,1,1,2.49,2.49A2.5,2.5,0,0,1,343.93,177.09Z"/><path d="M124.33,169a1,1,0,0,0-1,1v1.37H122a1,1,0,1,0,0,2h1.37v1.38a1,1,0,0,0,2,0v-1.38h1.38a1,1,0,0,0,0-2h-1.38V170A1,1,0,0,0,124.33,169Z"/><path d="M323.19,18.37h1.37v1.38a1,1,0,0,0,2,0V18.37h1.38a1,1,0,0,0,0-2h-1.38V15a1,1,0,0,0-2,0v1.37h-1.37a1,1,0,0,0,0,2Z"/><path d="M106.56,387.78a1,1,0,0,0,1-1V385.4h1.38a1,1,0,0,0,0-2h-1.38V382a1,1,0,0,0-2,0v1.37h-1.37a1,1,0,0,0,0,2h1.37v1.38A1,1,0,0,0,106.56,387.78Z"/><path d="M315.53,399.14a1,1,0,0,0,1-1v-1.38h1.37a1,1,0,0,0,0-2h-1.37v-1.37a1,1,0,0,0-2,0v1.37h-1.38a1,1,0,0,0,0,2h1.38v1.38A1,1,0,0,0,315.53,399.14Z"/><path d="M264.25,316.3h-1.37v-1.38a1,1,0,1,0-2,0v1.38H259.5a1,1,0,0,0,0,2h1.38v1.37a1,1,0,0,0,2,0V318.3h1.37a1,1,0,0,0,0-2Z"/><path d="M81.61,301a1,1,0,0,0,1-1v-1.37H84a1,1,0,1,0,0-2H82.61v-1.38a1,1,0,0,0-2,0v1.38H79.24a1,1,0,0,0,0,2h1.37V300A1,1,0,0,0,81.61,301Z"/><path d="M193.8,250.09a1,1,0,0,0-1,1v1.37h-1.37a1,1,0,0,0,0,2h1.37v1.38a1,1,0,1,0,2,0v-1.38h1.38a1,1,0,0,0,0-2H194.8v-1.37A1,1,0,0,0,193.8,250.09Z"/><path d="M187.53,488.19h-1.38v-1.38a1,1,0,0,0-2,0v1.38h-1.37a1,1,0,0,0,0,2h1.37v1.37a1,1,0,0,0,2,0v-1.37h1.38a1,1,0,1,0,0-2Z"/><path d="M72,10.24h1.37v1.37a1,1,0,0,0,2,0V10.24h1.38a1,1,0,0,0,0-2H75.39V6.86a1,1,0,1,0-2,0V8.24H72a1,1,0,0,0,0,2Z"/><path d="M214.71,148.76a1,1,0,0,0-1,1v3.75H210a1,1,0,0,0,0,2h3.75v3.75a1,1,0,0,0,2,0v-3.75h3.75a1,1,0,1,0,0-2h-3.75v-3.75A1,1,0,0,0,214.71,148.76Z"/><path d="M82.65,54.84H86.4v3.75a1,1,0,0,0,2,0V54.84h3.75a1,1,0,0,0,0-2H88.4V49.09a1,1,0,0,0-2,0v3.75H82.65a1,1,0,0,0,0,2Z"/><path d="M202.4,25.26a1,1,0,0,0,.7-.3l5.15-5.15a1,1,0,1,0-1.41-1.41l-5.15,5.15a1,1,0,0,0,0,1.41A1,1,0,0,0,202.4,25.26Z"/><path d="M157.45,25a1,1,0,0,0,1.41,0,1,1,0,0,0,0-1.41l-5.15-5.15a1,1,0,1,0-1.41,1.41Z"/><path d="M180.35,15.48a1,1,0,0,0,1-1V6.75a1,1,0,0,0-2,0v7.73A1,1,0,0,0,180.35,15.48Z"/><path d="M169.41,58.17a4.36,4.36,0,0,1,1.87,3.55v6.16a9.08,9.08,0,1,0,18.15,0V61.72a4.22,4.22,0,0,1,1.81-3.5,19.18,19.18,0,1,0-21.83,0Zm18,4.34v5.23H173.28V62.51ZM176.34,46.16h-1.48a1.5,1.5,0,0,1-1.48-1.56,1.48,1.48,0,0,1,1.46-1.48h0a1.46,1.46,0,0,1,1,.43,1.48,1.48,0,0,1,.44,1.05Zm5.87,14.35h-3.87V48.16h3.87ZM180.35,75a7.08,7.08,0,0,1-6.82-5.23h13.64A7.07,7.07,0,0,1,180.35,75Zm-.24-49.7h.24a17.17,17.17,0,0,1,9.75,31.31,6.23,6.23,0,0,0-2.55,3.94h-3.34V48.16h1.48a3.52,3.52,0,1,0-2.44-6,3.46,3.46,0,0,0-1,2.48v1.56h-3.87V44.6a3.42,3.42,0,0,0-1-2.47,3.5,3.5,0,1,0-2.44,6h1.48V60.51h-3.19a6.39,6.39,0,0,0-2.6-4,17.11,17.11,0,0,1-7.36-14.62A17.34,17.34,0,0,1,180.11,25.26Zm4.1,20.9V44.6a1.48,1.48,0,0,1,.44-1.05,1.55,1.55,0,0,1,1.06-.43,1.5,1.5,0,0,1,1.46,1.56,1.48,1.48,0,0,1-1.48,1.48Z"/><path d="M354.8,129.26H340a1,1,0,0,0,0,2H354.8a1,1,0,0,0,0-2Z"/><path d="M363.36,113H340.09a14,14,0,0,0-.14,28.06v5a1,1,0,0,0,.61.92,1,1,0,0,0,1.08-.19l6.15-5.78h15.57a14,14,0,0,0,0-28.06Zm0,26.06h-16a1,1,0,0,0-.68.27L342,143.83v-3.74a1,1,0,0,0-1-1h-.86a12,12,0,1,1,0-24.06h23.27a12,12,0,0,1,0,24.06Z"/><path d="M363.4,123.61H340a1,1,0,0,0,0,2H363.4a1,1,0,0,0,0-2Z"/><path d="M241.37,479.07a1,1,0,0,0,.43,1.34l4.12,2.12a1.07,1.07,0,0,0,.46.11,1,1,0,0,0,.89-.55,1,1,0,0,0-.44-1.34l-4.11-2.12A1,1,0,0,0,241.37,479.07Z"/><path d="M243.64,476.83l6.54,3.36a1.07,1.07,0,0,0,.46.11,1,1,0,0,0,.45-1.89l-6.53-3.36a1,1,0,1,0-.92,1.78Z"/><path d="M258.9,475.33l-16.39-8.42a1,1,0,0,0-1.34.43l-8.42,16.39a1,1,0,0,0,.43,1.35l11.25,5.78h.07a.92.92,0,0,0,.39.09h0a1,1,0,0,0,.28-.05h0l7.77-2.5h0a1,1,0,0,0,.29-.16l.08-.07a1.06,1.06,0,0,0,.16-.21l0-.05,5.78-11.26A1,1,0,0,0,258.9,475.33Zm-12,12.95,1.08-2.1,2.1,1.08Zm5.35-2.16L248,483.94a1,1,0,0,0-.76-.06,1,1,0,0,0-.58.5l-2.18,4.24L235,483.76l7.51-14.61,14.61,7.5Z"/><path d="M361.09,370.78a1,1,0,0,0,.82.52l3.55.24-.49,8.29a1,1,0,0,0,.72,1,.9.9,0,0,0,.28,0,1,1,0,0,0,.87-.51l7-12.58a1,1,0,0,0,0-1,1,1,0,0,0-.82-.52l-3.61-.24,0-7.21a1,1,0,0,0-.75-1,1,1,0,0,0-1.12.48l-6.43,11.44A1,1,0,0,0,361.09,370.78Zm6.33-8.12,0,4.35a1,1,0,0,0,.93,1l3,.2-4.12,7.39.29-4.92a1,1,0,0,0-.93-1.06l-3-.2Z"/><path d="M67.1,270.5a1,1,0,0,0,.81.53l3.55.23L71,279.55a1,1,0,0,0,.72,1,.86.86,0,0,0,.28,0,1,1,0,0,0,.87-.51l7-12.58a1,1,0,0,0-.81-1.48l-3.61-.25,0-7.21a1,1,0,0,0-1.87-.48l-6.43,11.44A1,1,0,0,0,67.1,270.5Zm6.33-8.12,0,4.35a1,1,0,0,0,.93,1l3,.2-4.11,7.38.29-4.92a1,1,0,0,0-.93-1.05l-3-.2Z"/><path d="M136.52,69.21,134,62.46a1,1,0,0,0-1-.64,1,1,0,0,0-.89.84l-2.05,13a1,1,0,0,0,.32.91,1,1,0,0,0,.95.2l3.41-1,2.42,7.94a1,1,0,0,0,1,.71h.07a1,1,0,0,0,.91-.85l2.21-14.23A1,1,0,0,0,140,68.19Zm1.23,9.69-1.44-4.71a1,1,0,0,0-.95-.7,1,1,0,0,0-.29,0l-2.84.84,1.22-7.66L135,70.79a1,1,0,0,0,1.22.61l2.85-.85Z"/><path d="M275.57,251.3a.9.9,0,0,0,.15-.19.34.34,0,0,0,.06-.12.86.86,0,0,0,.07-.21.68.68,0,0,0,0-.14.43.43,0,0,0,0,0v-3.36c0-7.61-2.68-14-7.74-18.51a26.44,26.44,0,0,0-33.95,0c-5.08,4.5-7.76,10.9-7.76,18.51v3.36a1,1,0,0,0,1.87.5,8.2,8.2,0,0,1,7-4.06,8.11,8.11,0,0,1,6.4,3.12,2.31,2.31,0,0,0,.36.34l6.64,16.22-16.88-13.79a1,1,0,0,0-1.41.14,1,1,0,0,0,.15,1.4l19.84,16.22a1.07,1.07,0,0,0-.14.16l-10.72,17.43a1,1,0,0,0,0,1,1,1,0,0,0,.88.51h21.44a1,1,0,0,0,.85-1.52L252,270.84a1.15,1.15,0,0,0-.14-.17,0,0,0,0,0,0,0,.79.79,0,0,0,.2-.3l8.14-19.87a1.56,1.56,0,0,0,.35-.33,8.11,8.11,0,0,1,13,.24l-18.76,15.33a1,1,0,0,0,.63,1.78,1,1,0,0,0,.64-.23l19.46-15.91S275.55,251.32,275.57,251.3Zm-24.41,16-6.87-16.78a2.27,2.27,0,0,0,.47-.41,8.12,8.12,0,0,1,12.8,0,1.81,1.81,0,0,0,.47.4Zm7.39-19.08a10.08,10.08,0,0,0-14.79,0c-.3-4.31-.48-17.28,7.4-23.2C259,231,258.85,244,258.55,248.26ZM235.34,245a10.22,10.22,0,0,0-6.91,2.73v-.53c0-14.32,9.95-21.47,20.06-22.53-6.73,6.4-7.05,17.48-6.8,22.57A10.06,10.06,0,0,0,235.34,245Zm24.75,42.76H242.23l8.93-14.52ZM267,245a10,10,0,0,0-6.34,2.24c.25-5.09-.08-16.16-6.8-22.57a23,23,0,0,1,13,5.51c4.62,4.11,7.07,10,7.07,17v.53A10.2,10.2,0,0,0,267,245Z"/><path d="M232.38,73.8l1.12-1.12v12.1a1,1,0,0,0,2,0V72.68l1.13,1.12a1,1,0,0,0,1.41,0,1,1,0,0,0,0-1.41l-2.83-2.83a1,1,0,0,0-1.41,0L231,72.39a1,1,0,0,0,1.41,1.41Z"/><path d="M223.41,78a1,1,0,0,0,.7-.29l1.18-1.18v8.26a1,1,0,0,0,2,0V76.63l1.07,1.07a1,1,0,0,0,1.42-1.42l-2.84-2.83a1,1,0,0,0-.7-.29,1,1,0,0,0-.71.29l-2.83,2.83a1,1,0,0,0,.71,1.71Z"/><path d="M216,81.59l1.12-1.12v4.31a1,1,0,0,0,2,0V80.47l1.13,1.12a1,1,0,0,0,.7.3,1,1,0,0,0,.71-1.71l-2.83-2.83a1,1,0,0,0-1.41,0l-2.84,2.83a1,1,0,0,0,0,1.41A1,1,0,0,0,216,81.59Z"/><path d="M206.09,76.86h-3.65a1,1,0,0,0,0,2h3.65A20.24,20.24,0,0,0,225.28,98v3.64a1,1,0,1,0,2,0V98a20.23,20.23,0,0,0,19.18-19.19h3.65a1,1,0,0,0,0-2h-3.65a20.23,20.23,0,0,0-19.18-19.19V53.93a1,1,0,1,0-2,0v3.69A20.23,20.23,0,0,0,206.09,76.86Zm19.19-17.24v3.5a1,1,0,1,0,2,0v-3.5a18.23,18.23,0,0,1,17.18,17.19h-3.54a1,1,0,0,0,0,2h3.54A18.23,18.23,0,0,1,227.28,96V92.45a1,1,0,0,0-2,0V96a18.25,18.25,0,0,1-17.19-17.14h3.55a1,1,0,0,0,0-2h-3.55A18.23,18.23,0,0,1,225.28,59.62Z"/><path d="M315.29,66.29A1,1,0,0,0,316,66l6.71-6.71a1,1,0,0,0,0-1.41,1,1,0,0,0-1.41,0l-6.71,6.7a1,1,0,0,0,.7,1.71Z"/><path d="M326.29,76.29,333,69.58a1,1,0,0,0-1.42-1.42l-6.71,6.71a1,1,0,0,0,0,1.42,1,1,0,0,0,.71.29A1,1,0,0,0,326.29,76.29Z"/><path d="M314,77.75a1,1,0,0,0,.7-.29l9.39-9.38a1,1,0,1,0-1.42-1.42l-9.38,9.39a1,1,0,0,0,0,1.41A1,1,0,0,0,314,77.75Z"/><path d="M360.78,23.94a7.49,7.49,0,0,0,0,15,7.49,7.49,0,1,0,0-15Zm3.88,11.36a5.48,5.48,0,0,1-9.36-3.88,5.49,5.49,0,0,1,1.6-3.88h0a5.49,5.49,0,0,1,7.76,7.76Z"/><path d="M380.24,11.2C365.13,8,352.1,13.85,341.46,28.7c-7.48,1.2-13,4.22-16.36,9-5,7.1-3.45,15.41-3.38,15.76a1,1,0,0,0,.63.74,1,1,0,0,0,1-.14l7.62-5.84,13,13-5.84,7.62a1,1,0,0,0,.6,1.59,20.8,20.8,0,0,0,3.53.28,21.29,21.29,0,0,0,12.23-3.66c4.78-3.36,7.8-8.86,9-16.32C378.34,40.15,384.25,27.1,381,12A1,1,0,0,0,380.24,11.2ZM379.18,13a33.07,33.07,0,0,1,.36,11L368.13,12.67A32.82,32.82,0,0,1,379.18,13ZM326.74,38.84C329.52,34.91,334,32.29,340,31l-9.63,15.16-6.82,5.23A19.94,19.94,0,0,1,326.74,38.84Zm8.18,3.82,14.62,14.62-4.12,2.62L332.31,46.78Zm18.43,22.78a19.89,19.89,0,0,1-12.57,3.25L346,61.92l15.2-9.65C359.89,58.24,357.27,62.68,353.35,65.44ZM362,49.35l-10.76,6.83L336.32,41.24A.89.89,0,0,0,336,41l6.86-10.8c6.68-9.47,14.35-15.17,22.91-17.1l0,0,13.31,13.31,0,0C377.17,35,371.48,42.69,362,49.35Z"/><path d="M173.62,401.94h10.51a5.05,5.05,0,0,0,0-10.1l-.4,0a5.61,5.61,0,0,0-10.5,1.12,4.49,4.49,0,0,0,.39,9Zm0-7,.33,0a1,1,0,0,0,.76-.22,1,1,0,0,0,.37-.71,3.61,3.61,0,0,1,7.06-.8,1,1,0,0,0,1.21.68,3.33,3.33,0,0,1,.78-.1,3.05,3.05,0,0,1,0,6.1H173.62a2.49,2.49,0,1,1,0-5Z"/><path d="M77,186.59a1,1,0,0,0,.7-.3l4.89-4.89a1,1,0,0,0,.3-.7,1,1,0,0,0-.3-.71l-4.89-4.89a1,1,0,0,0-1.41,0L71.36,180a1,1,0,0,0-.29.71,1,1,0,0,0,.29.7l4.89,4.89A1,1,0,0,0,77,186.59Zm0-9.37,3.47,3.48L77,184.17l-3.48-3.47Z"/><path d="M122.3,404.15h.06l8.83-.58A1,1,0,0,0,132,403a1,1,0,0,0-.07-1l-5-7.3a1,1,0,0,0-1.73.12l-3.84,7.89a1,1,0,0,0,.07,1A1,1,0,0,0,122.3,404.15Zm4-6.9,3,4.44L124,402Z"/><path d="M223.72,452.91a1,1,0,0,0-1.41,0,1,1,0,0,0,0,1.42l3,3a1,1,0,0,0,1.41,0,1,1,0,0,0,0-1.41Z"/><path d="M213.21,464.46a1,1,0,1,0-1.41,1.41l9.65,9.65a1,1,0,0,0,1.41,0,1,1,0,0,0,0-1.41Z"/><path d="M220,449.52a1,1,0,0,0-.63-.84l-36.08-14h0a1,1,0,0,0-.33-.06h-.1a1,1,0,0,0-.25,0l-.1,0a1.07,1.07,0,0,0-.28.19h0a1.32,1.32,0,0,0-.19.29,1,1,0,0,1,0,.1,1,1,0,0,0,0,.25.34.34,0,0,0,0,.1.83.83,0,0,0,.07.34h0L197,473a1,1,0,0,0,.89.63h0a1,1,0,0,0,.89-.55l7.31-14.37,13.38-8.29A1,1,0,0,0,220,449.52Zm-21.95,20.74-12.36-30.49,18.47,18.47Zm7.48-13.48L187,438.23l29.79,11.58Z"/><path d="M201.67,475a1,1,0,0,0-1.42,0,1,1,0,0,0,0,1.41l3,3a1,1,0,0,0,.71.29,1,1,0,0,0,.7-.29,1,1,0,0,0,0-1.41Z"/><path d="M79.78,232.89a1,1,0,0,0-.14-.93L70.4,219.7l-.06-.06-.15-.13a1.08,1.08,0,0,0-.18-.11l-.07,0L28.57,204.9l-.09-.05s-.06,0-.1,0L23.17,203l0,0h-.05l-4-1.39a6,6,0,0,0-7.68,3.72h0L9.12,212a6.05,6.05,0,0,0,3.72,7.69L63.66,237.4h0a1,1,0,0,0,.33.06,1.07,1.07,0,0,0,.25,0l14.85-3.9A1,1,0,0,0,79.78,232.89ZM65.55,235l1.26-3.61h0l3.12-9,5.17,6.86a.59.59,0,0,0-.06.14l-.88,3.36Zm-47.1-15.54,5-14.27,3.46,1.21-1.53,4.42h0l-3.42,9.84Zm46.8,10.32L25.68,216l1.22-3.5L66.46,226.3ZM25,217.84l39.57,13.85-1.21,3.5L23.8,221.35Zm42.1,6.57L27.55,210.56l1.21-3.48,39.57,13.84ZM11,212.61,13.32,206h0a4,4,0,0,1,2-2.31,3.95,3.95,0,0,1,3.08-.18l3.07,1.07-4.95,14.27-3.07-1.07A4,4,0,0,1,11,212.61Z"/><path d="M227.22,165.17a49.67,49.67,0,1,0,49.67-49.67A49.72,49.72,0,0,0,227.22,165.17Zm97.34,0a47.67,47.67,0,1,1-47.67-47.67A47.72,47.72,0,0,1,324.56,165.17Z"/><path d="M276.89,176.26a1,1,0,0,0,.61-.21l10.58-7.69a1.82,1.82,0,0,0,.67-2.05l-1.2-3.7a.14.14,0,0,1,0-.07l-2.43-7.48a1.43,1.43,0,0,0-1.35-1h0a1.43,1.43,0,0,0-1.34,1l-2.2,6.78h-6.61l-2.21-6.78a1.41,1.41,0,0,0-1.34-1h0a1.43,1.43,0,0,0-1.35,1L265,166.31a1.83,1.83,0,0,0,.66,2.05l10.6,7.7A1,1,0,0,0,276.89,176.26ZM270,157.39l1.87,5.77a1,1,0,0,0,1,.69h7.9a1,1,0,0,0,1.05-.69l1.87-5.77,1.85,5.7s0,0,0,.07l1.19,3.66-9.92,7.2-9.91-7.2Z"/><path d="M244.15,166.33h17.7a1,1,0,0,0,0-2h-17.7c.23-15.55,5.63-29.94,14.56-38.64a1,1,0,0,0-1.39-1.44c-9.32,9.08-14.94,24-15.17,40.08h-5.81a1,1,0,0,0,0,2h5.81c.23,16.17,5.9,31.14,15.3,40.21a1.05,1.05,0,0,0,.7.28,1,1,0,0,0,.72-.31,1,1,0,0,0,0-1.41C249.82,196.4,244.38,182,244.15,166.33Z"/><path d="M309.61,164.33H291.9a1,1,0,0,0,0,2h17.71c-.22,15.54-5.62,29.93-14.55,38.64a1,1,0,0,0,0,1.41,1,1,0,0,0,.72.31,1,1,0,0,0,.69-.29c9.32-9.07,14.94-24,15.16-40.07h5.83a1,1,0,0,0,0-2h-5.83c-.22-16.23-5.93-31.24-15.38-40.29a1,1,0,1,0-1.39,1.44C303.91,134.17,309.39,148.63,309.61,164.33Z"/><path d="M303.4,181.7a1,1,0,0,0-.47-1.95c-2.47.6-5.07,1.09-7.76,1.51.33-2.56.59-5.2.76-7.91a1,1,0,1,0-2-.12c-.17,2.85-.45,5.64-.82,8.33a122.52,122.52,0,0,1-15.23,1v-3.14a1,1,0,0,0-2,0v3.14a122.49,122.49,0,0,1-15.22-1c-.37-2.7-.65-5.49-.82-8.34a1,1,0,1,0-2,.12c.17,2.72.43,5.36.76,7.92-2.73-.42-5.38-.93-7.88-1.53a1,1,0,0,0-.47,1.94c2.74.66,5.63,1.21,8.63,1.66,1.77,11.93,5.24,21.71,9.8,27.12a1,1,0,0,0,.76.35,1.05,1.05,0,0,0,.65-.23,1,1,0,0,0,.12-1.41c-4.19-5-7.51-14.32-9.25-25.55a122,122,0,0,0,14.92,1v13.45a68.52,68.52,0,0,1-6.9-.42,1,1,0,1,0-.23,2c2.34.27,4.74.41,7.13.45v5.82a1,1,0,0,0,2,0v-5.82c2.41,0,4.81-.18,7.16-.45a1,1,0,1,0-.23-2,68.94,68.94,0,0,1-6.93.42V184.6a122.19,122.19,0,0,0,14.93-1c-1.75,11.28-5.09,20.65-9.3,25.61a1,1,0,0,0,.76,1.64,1,1,0,0,0,.76-.35c4.59-5.39,8.09-15.2,9.86-27.18C297.84,182.89,300.7,182.35,303.4,181.7Z"/><path d="M275.88,126.8v3.79c-2.39,0-4.79.18-7.13.45a1,1,0,1,0,.23,2,68.52,68.52,0,0,1,6.9-.42v13.44A126.28,126.28,0,0,0,261,147c1.77-11.4,5.16-20.84,9.43-25.76a1,1,0,1,0-1.5-1.31c-4.67,5.36-8.22,15.24-10,27.36-2.94.44-5.78,1-8.46,1.62a1,1,0,1,0,.47,1.94c2.45-.59,5-1.08,7.71-1.49-.33,2.51-.58,5.09-.75,7.76a1,1,0,0,0,.93,1.06h.07a1,1,0,0,0,1-.94c.17-2.8.45-5.54.81-8.18a120.56,120.56,0,0,1,15.22-1v10.49a1,1,0,0,0,2,0V148.05a122.48,122.48,0,0,1,15.23,1c.37,2.68.64,5.46.82,8.31a1,1,0,0,0,1,.93H295a1,1,0,0,0,.94-1.06c-.17-2.71-.43-5.34-.76-7.88,2.69.41,5.29.91,7.75,1.5l.23,0a1,1,0,0,0,.24-2c-2.7-.65-5.55-1.19-8.5-1.63-1.8-12.25-5.41-22.18-10.14-27.51a1,1,0,1,0-1.49,1.33C287.6,126,291,135.52,292.81,147a126.3,126.3,0,0,0-14.93-1V132.61a69.12,69.12,0,0,1,6.93.42h.11a1,1,0,0,0,.12-2c-2.35-.27-4.75-.41-7.16-.45V126.8a1,1,0,0,0-2,0Z"/><path d="M191.65,196.13a1,1,0,0,0-1.42,1.42l3.78,3.77a1,1,0,0,0,1.41,0l9-9a1,1,0,0,0-1.41-1.41l-8.27,8.27Z"/><path d="M191.52,172.1a12,12,0,0,1-3,2.15,12.44,12.44,0,0,1-3.79.64c-2.24.17-4.55.35-6.1,1.9s-1.72,3.85-1.89,6.09a13.09,13.09,0,0,1-.64,3.8,12.45,12.45,0,0,1-2.16,3c-1.42,1.64-3,3.5-3,5.79s1.62,4.16,3,5.8a12.26,12.26,0,0,1,2.16,3,13.09,13.09,0,0,1,.64,3.8c.17,2.23.35,4.54,1.89,6.09s3.86,1.72,6.1,1.89a13.08,13.08,0,0,1,3.79.64,12.34,12.34,0,0,1,3,2.16c1.64,1.42,3.51,3,5.8,3s4.15-1.62,5.8-3a12.5,12.5,0,0,1,3-2.16,13.09,13.09,0,0,1,3.8-.64l.32,0v19.72l-12.42-6.86a1,1,0,0,0-1,0l-12.41,6.86v-14a1,1,0,0,0-2,0v15.75a1,1,0,0,0,1.48.87l13.42-7.41,13.42,7.41a.91.91,0,0,0,.48.13,1,1,0,0,0,.51-.14,1,1,0,0,0,.49-.86V215.79a6.49,6.49,0,0,0,3.77-1.65c1.55-1.55,1.73-3.86,1.9-6.09a12.76,12.76,0,0,1,.64-3.8,12.2,12.2,0,0,1,2.15-3c1.43-1.64,3-3.51,3-5.8s-1.62-4.15-3-5.79a12.39,12.39,0,0,1-2.15-3,12.76,12.76,0,0,1-.64-3.8c-.17-2.23-.35-4.55-1.9-6.09s-3.85-1.73-6.09-1.9a12.45,12.45,0,0,1-3.8-.64,12.16,12.16,0,0,1-3-2.15c-1.65-1.43-3.51-3-5.8-3S193.16,170.67,191.52,172.1Zm13.82,4a14.79,14.79,0,0,0,4.41.79c2,.15,3.81.29,4.83,1.31s1.16,2.87,1.31,4.83a14.79,14.79,0,0,0,.79,4.41,14,14,0,0,0,2.49,3.54c1.32,1.51,2.56,2.94,2.56,4.48s-1.24,3-2.56,4.49a14.1,14.1,0,0,0-2.49,3.53,14.84,14.84,0,0,0-.79,4.41c-.15,2-.29,3.81-1.31,4.83s-2.87,1.17-4.83,1.32a14.47,14.47,0,0,0-4.41.78,13.77,13.77,0,0,0-3.54,2.5c-1.51,1.31-2.94,2.55-4.48,2.55s-3-1.24-4.49-2.55a13.89,13.89,0,0,0-3.53-2.5,14.53,14.53,0,0,0-4.41-.78c-2-.15-3.81-.29-4.83-1.32s-1.17-2.87-1.32-4.83a14.53,14.53,0,0,0-.78-4.41,13.89,13.89,0,0,0-2.5-3.53c-1.31-1.51-2.55-2.94-2.55-4.49s1.24-3,2.55-4.48a13.77,13.77,0,0,0,2.5-3.54,14.47,14.47,0,0,0,.78-4.41c.15-2,.29-3.81,1.32-4.83s2.87-1.16,4.83-1.31a14.84,14.84,0,0,0,4.41-.79,14.1,14.1,0,0,0,3.53-2.49c1.52-1.32,2.94-2.56,4.49-2.56s3,1.24,4.48,2.56A14,14,0,0,0,205.34,176.1Z"/><path d="M180.71,195.46a16.61,16.61,0,1,0,16.61-16.61A16.63,16.63,0,0,0,180.71,195.46Zm31.22,0a14.61,14.61,0,1,1-14.61-14.61A14.63,14.63,0,0,1,211.93,195.46Z"/><path d="M123.82,235.71l.1,0,.17,0h0l.06,0,.1,0h0l0,0,.09-.05h0l31-22.16a3.36,3.36,0,0,0,1.25-3.82l-1.62-4.91a1,1,0,0,0-1.27-.64,1,1,0,0,0-.63,1.26l1.62,4.92a1.38,1.38,0,0,1-.51,1.56l-25.26,18,18.61-23.45a1,1,0,0,0-1.57-1.25l-19.52,24.61L136.36,200H141a1,1,0,1,0,0-2h-4l6.67-20.2a.19.19,0,0,1,.21-.14c.11,0,.19.05.22.14l7.22,21.8-6.64-2.83a1,1,0,0,0-.78,1.85l8.68,3.69h0a1,1,0,0,0,.35.07h0a.94.94,0,0,0,.3,0h0l0,0a1.1,1.1,0,0,0,.26-.15l.08-.07a.83.83,0,0,0,.16-.21.35.35,0,0,0,0-.08l0,0,3.69-8.68a1,1,0,0,0-1.84-.79l-2.65,6.25-7.1-21.4a2.23,2.23,0,0,0-2.13-1.5,2.19,2.19,0,0,0-2.09,1.51L134.91,198H112.75l-6.88-20.81a2.2,2.2,0,0,0-2.1-1.51h0a2.22,2.22,0,0,0-2.12,1.51l-6.45,19.56a1,1,0,1,0,1.9.63l6.45-19.55a.21.21,0,0,1,.22-.15c.14,0,.2.11.21.14L110.65,198H100.5a1,1,0,0,0,0,2h10.8l9.81,29.68L102,205.6a1,1,0,1,0-1.57,1.25l18.2,22.94L93.37,211.72a1.38,1.38,0,0,1-.52-1.56l2-6.1,3.41,6.27a1,1,0,0,0,.88.52.89.89,0,0,0,.47-.12,1,1,0,0,0,.4-1.35l-4.5-8.29a1,1,0,0,0-1.36-.4l-8.28,4.5a1,1,0,1,0,1,1.76l6.06-3.29-2,5.87a3.38,3.38,0,0,0,1.26,3.82l31,22.17A1,1,0,0,0,123.82,235.71ZM134.25,200l-10.42,31.53L113.42,200Z"/><path d="M128.43,303.53l0,0a27.57,27.57,0,0,0,39,0h0a27.58,27.58,0,0,0,0-39l0,0,0,0a27.58,27.58,0,0,0-39,0l-.06,0s0,0,0,.06a27.58,27.58,0,0,0,0,39Zm2.14-.72,7.59-7.59a14.85,14.85,0,0,0,19.62,0l7.59,7.59a25.58,25.58,0,0,1-34.8,0Zm8.25-27.93h0l0,0a12.9,12.9,0,0,1,18.21,0s0,0,0,0l0,0a12.92,12.92,0,1,1-18.31,0Zm28,26.51-7.59-7.58a14.85,14.85,0,0,0,0-19.62l7.59-7.59a25.57,25.57,0,0,1,0,34.79Zm-1.42-36.2-7.59,7.58a14.86,14.86,0,0,0-19.61,0l-7.58-7.59a25.55,25.55,0,0,1,34.78,0Zm-36.2,1.41,7.59,7.59a14.84,14.84,0,0,0,0,19.61l-7.59,7.59a25.57,25.57,0,0,1,0-34.79Z"/><path d="M148,231.56a9.57,9.57,0,1,0,9.57,9.57A9.58,9.58,0,0,0,148,231.56Zm0,17.14a7.57,7.57,0,1,1,7.57-7.57A7.58,7.58,0,0,1,148,248.7Z"/><path d="M138.4,326.87A9.57,9.57,0,1,0,148,317.3,9.58,9.58,0,0,0,138.4,326.87Zm17.14,0A7.57,7.57,0,1,1,148,319.3,7.58,7.58,0,0,1,155.54,326.87Z"/><path d="M181.27,284a9.57,9.57,0,1,0,9.57-9.57A9.58,9.58,0,0,0,181.27,284Zm9.57-7.57a7.57,7.57,0,1,1-7.57,7.57A7.58,7.58,0,0,1,190.84,276.43Z"/><path d="M105.1,293.57A9.57,9.57,0,1,0,95.53,284,9.58,9.58,0,0,0,105.1,293.57Zm0-17.14A7.57,7.57,0,1,1,97.53,284,7.58,7.58,0,0,1,105.1,276.43Z"/><path d="M143.34,238.58a1.48,1.48,0,0,0,0,2.11,1.48,1.48,0,0,0,1,.44,1.52,1.52,0,0,0,1.06-.44,1.49,1.49,0,0,0-2.11-2.11Z"/><path d="M150.5,238.58a1.48,1.48,0,0,0,0,2.11,1.47,1.47,0,0,0,2.1,0,1.48,1.48,0,0,0,0-2.11A1.53,1.53,0,0,0,150.5,238.58Z"/><path d="M143.34,327.28a1.48,1.48,0,0,0,0,2.11,1.48,1.48,0,0,0,1,.44,1.49,1.49,0,0,0,1.49-1.49,1.49,1.49,0,0,0-2.54-1.06Z"/><path d="M151.55,329.83a1.48,1.48,0,0,0,1-.44,1.48,1.48,0,0,0,0-2.11,1.53,1.53,0,0,0-2.1,0,1.48,1.48,0,0,0,0,2.11A1.48,1.48,0,0,0,151.55,329.83Z"/><path d="M192.33,281.91a1.52,1.52,0,0,0,1.06-.44,1.56,1.56,0,0,0,0-2.11,1.52,1.52,0,0,0-1.06-.44,1.48,1.48,0,0,0-1.05.44,1.48,1.48,0,0,0,0,2.11A1.48,1.48,0,0,0,192.33,281.91Z"/><path d="M192.33,289.07a1.52,1.52,0,0,0,1.06-.44,1.56,1.56,0,0,0,0-2.11,1.52,1.52,0,0,0-1.06-.44,1.48,1.48,0,0,0-1.05.44,1.48,1.48,0,0,0,0,2.11A1.48,1.48,0,0,0,192.33,289.07Z"/><path d="M103.63,281.91a1.48,1.48,0,0,0,1.05-.44,1.54,1.54,0,0,0,0-2.11,1.48,1.48,0,0,0-1.05-.44,1.52,1.52,0,0,0-1.06.44,1.51,1.51,0,0,0,0,2.11A1.52,1.52,0,0,0,103.63,281.91Z"/><path d="M103.63,289.07a1.48,1.48,0,0,0,1.05-.44,1.54,1.54,0,0,0,0-2.11,1.48,1.48,0,0,0-1.05-.44,1.49,1.49,0,0,0-1.49,1.49,1.53,1.53,0,0,0,.43,1.06A1.52,1.52,0,0,0,103.63,289.07Z"/><path d="M254,405.73l2.94-1.06a1,1,0,0,0,.65-.79,18.85,18.85,0,0,0,0-5.71,1,1,0,0,0-.65-.78L254,396.32A1.69,1.69,0,0,1,253,394l1.32-2.83a1,1,0,0,0-.1-1,18.43,18.43,0,0,0-4-4,1,1,0,0,0-1-.1l-2.83,1.32a1.69,1.69,0,0,1-1.36,0,1.65,1.65,0,0,1-.94-1L243,383.47a1,1,0,0,0-.79-.65,18.78,18.78,0,0,0-5.7,0,1,1,0,0,0-.79.65l-1.07,2.94a1.63,1.63,0,0,1-.94,1,1.69,1.69,0,0,1-1.36,0L229.49,386a1,1,0,0,0-1,.1,18.35,18.35,0,0,0-3.95,3.92,1,1,0,1,0,1.6,1.19,16.55,16.55,0,0,1,3.06-3.14l2.29,1.06a3.67,3.67,0,0,0,5-2.08l.87-2.37a16.15,16.15,0,0,1,3.93,0l.86,2.37a3.68,3.68,0,0,0,5,2.08l2.28-1.06a15.9,15.9,0,0,1,2.78,2.78l-1.06,2.28a3.69,3.69,0,0,0,2.08,5l2.37.86a16.15,16.15,0,0,1,0,3.93l-2.37.86a3.76,3.76,0,0,0-2.15,2.06,3.7,3.7,0,0,0,.07,3l1.06,2.29a16.62,16.62,0,0,1-2.78,2.78l-2.28-1.07a3.71,3.71,0,0,0-3-.06,1,1,0,1,0,.77,1.85,1.68,1.68,0,0,1,1.37,0l2.83,1.33a1,1,0,0,0,.42.09,1,1,0,0,0,.59-.19,18.43,18.43,0,0,0,4-4,1,1,0,0,0,.1-1L253,408a1.7,1.7,0,0,1,.95-2.31Z"/><path d="M246,401a6.71,6.71,0,1,0-6.71,6.71A6.72,6.72,0,0,0,246,401Zm-6.71,4.71A4.71,4.71,0,1,1,244,401,4.72,4.72,0,0,1,239.33,405.74Z"/><path d="M225.39,398.2a3.67,3.67,0,0,0,2.15-2.06,1,1,0,0,0-.54-1.3,1,1,0,0,0-1.31.54,1.65,1.65,0,0,1-1,.94l-2.94,1.07a1,1,0,0,0-.64.78,18.23,18.23,0,0,0,0,5.71,1,1,0,0,0,.64.79l2.94,1.06a1.67,1.67,0,0,1,1,.95,1.62,1.62,0,0,1,0,1.36l-1.32,2.83a1,1,0,0,0,.1,1,18.43,18.43,0,0,0,4,4,1,1,0,0,0,1,.1l2.83-1.33a1.69,1.69,0,0,1,1.36,0,1.67,1.67,0,0,1,.94,1l1.07,2.94a1,1,0,0,0,.79.64,18.57,18.57,0,0,0,5.7,0,1,1,0,1,0-.3-2,16.62,16.62,0,0,1-4.51.08L236.5,415a3.69,3.69,0,0,0-5-2.08L229.19,414a17,17,0,0,1-2.78-2.78l1.07-2.29a3.7,3.7,0,0,0-2.09-5L223,403a17.22,17.22,0,0,1,0-3.93Z"/><path d="M266.46,389.16a1,1,0,0,0,.92.6,1,1,0,0,0,.4-.09,1,1,0,0,0,.51-1.31,31.6,31.6,0,0,0-29-18.94,1,1,0,0,0-.41.1l3.85-3.85a1,1,0,0,0,0-1.42,1,1,0,0,0-1.41,0l-5.47,5.47a1,1,0,0,0,0,1.41l5.47,5.46a1,1,0,0,0,.7.3,1,1,0,0,0,.71-1.71l-3.85-3.85a1,1,0,0,0,.41.09A29.62,29.62,0,0,1,266.46,389.16ZM238,370.42l.41-.41a1.16,1.16,0,0,0-.09.41,1.07,1.07,0,0,0,.09.41Z"/><path d="M235.89,437.8a1,1,0,0,0,1.42,0l5.46-5.46a1,1,0,0,0,0-1.41l-5.46-5.47a1,1,0,1,0-1.42,1.42l3.85,3.84a1.07,1.07,0,0,0-.41-.09,29.5,29.5,0,0,1-27.43-18.45,1,1,0,0,0-1.31-.55,1,1,0,0,0-.54,1.3,31.48,31.48,0,0,0,29.28,19.7.91.91,0,0,0,.41-.09l-3.85,3.85A1,1,0,0,0,235.89,437.8Zm4.35-6.58.41.41-.41.41a.91.91,0,0,0,.09-.41A1,1,0,0,0,240.24,431.22Z"/><path d="M270.64,397.59a1,1,0,0,0-1.41,0l-5.46,5.46a1,1,0,0,0,0,1.42,1,1,0,0,0,1.41,0l3.75-3.75c0,.1,0,.2,0,.31a29.8,29.8,0,0,1-16.72,26.66,1,1,0,0,0,.44,1.89,1,1,0,0,0,.44-.1A31.81,31.81,0,0,0,270.94,401c0-.11,0-.22,0-.33l3.76,3.77a1,1,0,0,0,1.42,0,1,1,0,0,0,0-1.42Z"/><path d="M208,404.47a1,1,0,0,0,1.41,0L214.9,399a1,1,0,0,0,0-1.41,1,1,0,0,0-1.42,0l-3.74,3.74c0-.1,0-.2,0-.3a29.4,29.4,0,0,1,16.68-26.64,1,1,0,0,0,.46-1.34,1,1,0,0,0-1.34-.46A31.39,31.39,0,0,0,207.73,401c0,.11,0,.22,0,.33L204,397.59a1,1,0,1,0-1.41,1.41Z"/><path d="M332,457.94h-10.3a1.06,1.06,0,0,1-.33-.63,2.55,2.55,0,0,1,.76-1.71,5.69,5.69,0,1,0-8.74,0,2.48,2.48,0,0,1,.74,1.71,1.11,1.11,0,0,1-.31.63h-9.38v-9.71a1,1,0,0,0-.23-.64,3.2,3.2,0,0,0-2.16-1.28,4.29,4.29,0,0,0-3.21,1.17,3.68,3.68,0,1,1,0-5.64A4.3,4.3,0,0,0,302,443a3.09,3.09,0,0,0,2.13-1.26,1,1,0,0,0,.28-.69V430.38a1,1,0,0,0-1-1H274.89a1,1,0,0,0-1,1V487.5a1,1,0,0,0,1,1H332a1,1,0,0,0,1-1V458.94A1,1,0,0,0,332,457.94Zm-29.56-26.56v9.34a1.13,1.13,0,0,1-.63.34,2.59,2.59,0,0,1-1.71-.77,5.69,5.69,0,1,0,0,8.74,2.51,2.51,0,0,1,1.71-.74,1.12,1.12,0,0,1,.63.32v9.33H292.8a1,1,0,0,0-.69.28,3.12,3.12,0,0,0-1.26,2.14,4.37,4.37,0,0,0,1.21,3.19,3.69,3.69,0,1,1-5.65,0,4.32,4.32,0,0,0,1.18-3.21,3.2,3.2,0,0,0-1.28-2.16,1,1,0,0,0-.65-.24h-9.77V431.38Zm-26.56,28.56h9.4a1.11,1.11,0,0,1,.31.63,2.53,2.53,0,0,1-.74,1.71,5.69,5.69,0,1,0,8.74,0,2.55,2.55,0,0,1-.76-1.71,1.06,1.06,0,0,1,.33-.63h9.28v9.14a1,1,0,0,0,.28.69,3.1,3.1,0,0,0,2.14,1.26,4.33,4.33,0,0,0,3.19-1.21,3.69,3.69,0,1,1,0,5.65,4.32,4.32,0,0,0-3.21-1.18,3.22,3.22,0,0,0-2.16,1.28,1,1,0,0,0-.24.65V486.5H275.89ZM331,486.5H304.45v-9.91a1.11,1.11,0,0,1,.63-.31,2.49,2.49,0,0,1,1.71.74,5.69,5.69,0,1,0,0-8.74,2.55,2.55,0,0,1-1.71.76,1.06,1.06,0,0,1-.63-.33v-8.77h9.75a1,1,0,0,0,.64-.23,3.21,3.21,0,0,0,1.29-2.16,4.36,4.36,0,0,0-1.18-3.22,3.68,3.68,0,1,1,5.65,0,4.39,4.39,0,0,0-1.21,3.2,3.13,3.13,0,0,0,1.26,2.13,1,1,0,0,0,.7.28H331Z"/><path d="M356.89,405.44a1,1,0,0,0-1.41,0l-7.34,7.28a1.05,1.05,0,0,1-.69-.2,2.59,2.59,0,0,1-.66-1.76,5.69,5.69,0,1,0-6.18,6.19,2.47,2.47,0,0,1,1.72.68,1.1,1.1,0,0,1,.23.73l-7.28,7.28a1,1,0,0,0-.29.7,1,1,0,0,0,.29.71l7.57,7.57a1,1,0,0,0,.62.29,3.19,3.19,0,0,0,2.44-.62,4.32,4.32,0,0,0,1.43-3.1,3.69,3.69,0,1,1,4,4,4.34,4.34,0,0,0-3.11,1.4,3.13,3.13,0,0,0-.62,2.4,1,1,0,0,0,.29.69l7.58,7.57a1,1,0,0,0,.7.3,1,1,0,0,0,.71-.3l20.2-20.19a1,1,0,0,0,.29-.71,1,1,0,0,0-.29-.7Zm-.71,39.68-6.6-6.6a1,1,0,0,1,.21-.68,2.58,2.58,0,0,1,1.75-.67,5.69,5.69,0,1,0-6.19-6.18,2.52,2.52,0,0,1-.68,1.73,1.08,1.08,0,0,1-.67.22l-6.6-6.6,6.87-6.86a1,1,0,0,0,.27-.73v-.06a3.18,3.18,0,0,0-.63-2.3A4.34,4.34,0,0,0,340.8,415a3.69,3.69,0,1,1,4-4,4.34,4.34,0,0,0,1.4,3.11,3.09,3.09,0,0,0,2.4.62,1,1,0,0,0,.69-.29l6.89-6.84L375,426.34Z"/><path d="M4.81,54.18a1,1,0,0,0,.37-.08,1,1,0,0,0,.56-1.29A34.51,34.51,0,0,1,50.52,8a1,1,0,0,0,.74-1.86A36.52,36.52,0,0,0,3.88,53.54,1,1,0,0,0,4.81,54.18Z"/><path d="M74.3,40.1a36.33,36.33,0,0,0-3.17-14.91A1,1,0,0,0,69.3,26,34.5,34.5,0,0,1,37.81,74.58a34,34,0,0,1-15.1-3.47,1,1,0,0,0-1.34.46,1,1,0,0,0,.46,1.34,36.14,36.14,0,0,0,16,3.67A36.52,36.52,0,0,0,74.3,40.1Z"/><path d="M19.87,22.15a25.24,25.24,0,0,0-7.43,18,1,1,0,0,0,2,0,23.37,23.37,0,0,1,39.9-16.53c.33.33.65.68,1,1H50.92a1,1,0,0,0,0,2h6.49l.12,0,.19,0a.66.66,0,0,0,.19-.09l.1,0,0-.05a1.14,1.14,0,0,0,.15-.16l.1-.15.06-.18a1.18,1.18,0,0,0,0-.2s0,0,0-.07V19.11a1,1,0,0,0-2,0v3.75c-.22-.23-.43-.48-.66-.71A25.4,25.4,0,0,0,19.87,22.15Z"/><path d="M21.28,56.63q-.53-.54-1-1.11h4.41a1,1,0,0,0,0-2h-6.5a1.42,1.42,0,0,0-.2,0l0,0a.8.8,0,0,0-.31.14h0s0,0,0,0a1.15,1.15,0,0,0-.21.23.35.35,0,0,1-.05.08,1,1,0,0,0-.08.22,1.22,1.22,0,0,0,0,.17.25.25,0,0,0,0,.07V61a1,1,0,0,0,2,0V57.29c.23.25.46.51.7.75A25.38,25.38,0,0,0,63.19,40.1a1,1,0,1,0-2,0A23.38,23.38,0,0,1,21.28,56.63Z"/><path d="M37.81,51.59a1,1,0,0,0,.59-.19l10.53-7.64a1.83,1.83,0,0,0,.66-2L46,30.55a1.36,1.36,0,0,0-1.35-1,1.43,1.43,0,0,0-1.34,1l-2.18,6.72H34.54l-2.19-6.72a1.42,1.42,0,0,0-1.33-1h0a1.43,1.43,0,0,0-1.35,1L26,41.72a1.82,1.82,0,0,0,.66,2L37.23,51.4A1,1,0,0,0,37.81,51.59ZM31,32.89l1.85,5.7a1,1,0,0,0,1,.69h8a1,1,0,0,0,1-.69l1.85-5.7,3,9.33-9.84,7.14L28,42.22Z"/><path d="M117.69,353.06c3.14-6.52,3-12,2.88-20.27-.07-3.69-.15-7.87,0-13.06a1,1,0,0,0-.35-.79,1,1,0,0,0-.83-.23,27.5,27.5,0,0,1-23.68-8.81,1.07,1.07,0,0,0-1.5,0,27.59,27.59,0,0,1-19.85,9,1,1,0,0,0-1,1,1,1,0,0,0,1,1A29.55,29.55,0,0,0,95,312a29.28,29.28,0,0,0,23.58,8.82c-.12,4.7,0,8.56,0,12,.15,8.28.25,13.27-2.69,19.37-2.81,5.85-12.51,13.56-20.9,16.67-8.39-3.11-18.09-10.82-20.91-16.67-2.93-6.1-2.84-11.09-2.68-19.37.07-3.71.15-7.92,0-13.16a1,1,0,0,0-1-1,1,1,0,0,0-1,1c.17,5.19.09,9.37,0,13.06-.16,8.28-.26,13.75,2.88,20.27,3.37,7,14.49,15,22.37,17.82h0a1.13,1.13,0,0,0,.32.05h0a1.13,1.13,0,0,0,.32-.05h0C103.2,368.07,114.32,360.06,117.69,353.06Z"/><path d="M92.32,350.3a3.66,3.66,0,0,0,2.6-1.07l11.87-11.87a2.67,2.67,0,0,0,0-3.77L104,330.78a2.68,2.68,0,0,0-3.78,0l-7.88,7.88-2.57-2.57a2.67,2.67,0,0,0-3.77,0l-2.81,2.81a2.67,2.67,0,0,0,0,3.77l6.56,6.56A3.64,3.64,0,0,0,92.32,350.3Zm-7.93-9.52a.65.65,0,0,1,.2-.47l2.8-2.81a.69.69,0,0,1,1,0l3.28,3.28a1,1,0,0,0,1.41,0l8.59-8.59a.66.66,0,0,1,.94,0l2.81,2.81h0a.66.66,0,0,1,0,.95L93.51,347.81a1.72,1.72,0,0,1-2.37,0l-6.55-6.55A.67.67,0,0,1,84.39,340.78Z"/><path d="M30.05,365.12l5.85,7.32a1,1,0,0,0,.78.38H67.92a1,1,0,1,0,0-2H37.17l-5.86-7.32a1,1,0,0,0-.78-.38H4.2a1,1,0,0,0-1,1v48a10,10,0,0,0,10,10H68.34a10,10,0,0,0,10-10V378.55a1,1,0,0,0-1-1H22.24a1,1,0,0,0-1,1v33.54a8,8,0,1,1-16,0v-47Zm-6.81,47V379.55H76.36v32.54a8,8,0,0,1-8,8H19.22A10,10,0,0,0,23.24,412.09Z"/><path d="M37.5,431.72a1,1,0,0,0,1-1v-3.45a1,1,0,0,0-2,0v2.45H4.2a1,1,0,0,0-1,1v6.56a1,1,0,0,0,1,1H77.36a1,1,0,0,0,1-1v-6.56a1,1,0,0,0-1-1H45.06v-2.27a1,1,0,0,0-2,0v3.27a1,1,0,0,0,1,1H59.4v4.56H22.15v-4.56Zm23.9,0h15v4.56h-15Zm-41.25,4.56H5.2v-4.56h15Z"/><path d="M42.1,393.1a1,1,0,0,0-1.42,0l-4.29,4.29a1,1,0,0,0,0,1.42l4.29,4.29a1,1,0,0,0,.71.29,1,1,0,0,0,.71-.29,1,1,0,0,0,0-1.41l-3.59-3.59,3.59-3.58A1,1,0,0,0,42.1,393.1Z"/><path d="M58.91,393.1a1,1,0,0,0-1.41,0,1,1,0,0,0,0,1.42l3.58,3.58-3.58,3.59a1,1,0,0,0,0,1.41,1,1,0,0,0,.71.29,1,1,0,0,0,.7-.29l4.3-4.29a1,1,0,0,0,0-1.42Z"/><path d="M52.36,390.59a1,1,0,0,0-1.26.63l-4.49,13.22a1,1,0,0,0,.62,1.27,1.26,1.26,0,0,0,.33.05,1,1,0,0,0,.94-.68L53,391.86A1,1,0,0,0,52.36,390.59Z"/><path d="M164.13,454.2h-1.54l-.08,0V446a1,1,0,0,0-1-1H146.74a1,1,0,0,0,0,2h13.77V484.9a8.29,8.29,0,0,1-8.28,8.28H129.29A8.28,8.28,0,0,1,121,484.9V463.73a1,1,0,0,0-2,0V484.9a10.29,10.29,0,0,0,10.28,10.28h22.94a10.3,10.3,0,0,0,10.28-10.28v-4l.08,0h1.54a13.35,13.35,0,0,0,0-26.69Zm0,24.69h-1.54l-.08,0V456.18l.08,0h1.54a11.35,11.35,0,0,1,0,22.69Z"/><path d="M137,467.58,134.59,460a1.46,1.46,0,0,0-1.38-1,1.51,1.51,0,0,0-1.4,1l-4,12.39a1.94,1.94,0,0,0,.7,2.15l11.69,8.48a1,1,0,0,0,1.18,0L153,474.58a1.92,1.92,0,0,0,.69-2.15l-4-12.4a1.46,1.46,0,0,0-1.38-1h0a1.45,1.45,0,0,0-1.38,1l-2.45,7.54Zm9.12,1.31,2.16-6.67L151.86,473,140.76,481l-11.07-8,3.51-10.82,2.17,6.66a1,1,0,0,0,.95.69h8.89A1,1,0,0,0,146.16,468.89Z"/><path d="M125.62,461.22a.94.94,0,0,0,.43-.1,1,1,0,0,0,.57-.9v-6.79h9.61a6,6,0,0,0,6-5.95V426a6,6,0,0,0-6-5.94H103.79a6,6,0,0,0-6,5.94v21.49a6,6,0,0,0,6,5.95H116l9,7.55A1,1,0,0,0,125.62,461.22Zm-1-8.79v5.64l-7.61-6.4a1,1,0,0,0-.64-.24H103.79a4,4,0,0,1-4-3.95V426a4,4,0,0,1,4-3.94h32.44a4,4,0,0,1,4,3.94v21.49a4,4,0,0,1-4,3.95H125.62A1,1,0,0,0,124.62,452.43Z"/><path d="M132.12,432.06a1,1,0,0,0-1-1H108.9a1,1,0,0,0,0,2h22.22A1,1,0,0,0,132.12,432.06Z"/><path d="M157.36,421.23a1,1,0,0,0,0-2h-11.6a1,1,0,0,0,0,2Z"/><path d="M123,439.63H108.9a1,1,0,1,0,0,2H123a1,1,0,1,0,0-2Z"/><path d="M148.4,439.1a1,1,0,0,0,.4.08,1,1,0,0,0,.68-.26l7.34-6.71h7.29a6,6,0,0,0,5.95-5.95V415.39a6,6,0,0,0-5.95-5.95H139a6,6,0,0,0-5.94,5.95,1,1,0,0,0,2,0,4,4,0,0,1,3.94-3.95h25.1a4,4,0,0,1,3.95,3.95v10.87a4,4,0,0,1-3.95,3.95h-7.68a1,1,0,0,0-.68.26l-5.95,5.44v-4.7a1,1,0,0,0-1-1h-2.3a1,1,0,0,0,0,2h1.3v6A1,1,0,0,0,148.4,439.1Z"/><path d="M47,153.51H31.73a4.52,4.52,0,0,0-8.81,0h-4a1,1,0,0,0,0,2h4a4.51,4.51,0,0,0,8.81,0H47a1,1,0,0,0,0-2ZM27.32,157a2.53,2.53,0,1,1,2.53-2.53A2.53,2.53,0,0,1,27.32,157Z"/><path d="M47,167.82H43a4.52,4.52,0,0,0-8.81,0H18.9a1,1,0,0,0,0,2H34.2a4.51,4.51,0,0,0,8.81,0h4a1,1,0,0,0,0-2Zm-8.42,3.53a2.53,2.53,0,1,1,2.52-2.53A2.53,2.53,0,0,1,38.61,171.35Z"/><path d="M3,161.67a30.93,30.93,0,0,1,.28-4.07l6.48-2.35a1,1,0,0,0,.61-.65A24.2,24.2,0,0,1,12,150.68a1,1,0,0,0,0-.89l-2.93-6.26a29.88,29.88,0,0,1,5.76-5.75l6.26,2.92a1,1,0,0,0,.89,0A22.54,22.54,0,0,1,25.9,139a1,1,0,0,0,.64-.62l2.36-6.48a29.91,29.91,0,0,1,8.13,0l2.36,6.48A1,1,0,0,0,40,139,22.54,22.54,0,0,1,44,140.68a1,1,0,0,0,.89,0l6.26-2.92a30.16,30.16,0,0,1,5.76,5.75l-2.93,6.26a1,1,0,0,0,0,.89,24.2,24.2,0,0,1,1.64,3.92,1,1,0,0,0,.61.65l7,2.56a1,1,0,0,0,1.29-.6,1,1,0,0,0-.6-1.28l-6.59-2.4a25,25,0,0,0-1.4-3.34l3-6.35a1,1,0,0,0-.1-1,31.93,31.93,0,0,0-7-7,1,1,0,0,0-1-.1l-6.36,3a25,25,0,0,0-3.34-1.4l-2.39-6.58a1,1,0,0,0-.79-.65,32.29,32.29,0,0,0-9.91,0,1,1,0,0,0-.79.65l-2.39,6.58a25,25,0,0,0-3.34,1.4l-6.36-3a1,1,0,0,0-1,.1,31.93,31.93,0,0,0-7,7,1,1,0,0,0-.1,1l3,6.35a25,25,0,0,0-1.4,3.34L2,155.93a1,1,0,0,0-.64.78,31.79,31.79,0,0,0-.39,5,1,1,0,0,0,2,0Z"/><path d="M10,173.14,7,179.5a1,1,0,0,0,.1,1,32.19,32.19,0,0,0,7,7,1,1,0,0,0,1,.1l6.36-3a27.91,27.91,0,0,0,3.34,1.4l2.39,6.58a1,1,0,0,0,.79.65,32.5,32.5,0,0,0,9.91,0,1,1,0,0,0,.79-.65l2.39-6.58a27.91,27.91,0,0,0,3.34-1.4l6.36,3a1,1,0,0,0,1-.1,32.19,32.19,0,0,0,7-7,1,1,0,0,0,.1-1l-3-6.36a23.93,23.93,0,0,0,1.4-3.34l6.59-2.39a1,1,0,0,0,.64-.79,31.56,31.56,0,0,0,.39-5,1,1,0,0,0-2,0,30.93,30.93,0,0,1-.28,4.07l-6.48,2.35a1,1,0,0,0-.61.64A23.93,23.93,0,0,1,54,172.66a1,1,0,0,0,0,.88l2.93,6.27a30.16,30.16,0,0,1-5.76,5.75l-6.26-2.92a1,1,0,0,0-.89,0A24.2,24.2,0,0,1,40,184.3a1,1,0,0,0-.64.61L37,191.4a30.74,30.74,0,0,1-8.13,0l-2.36-6.49a1,1,0,0,0-.64-.61A24.2,24.2,0,0,1,22,182.66a1,1,0,0,0-.89,0l-6.26,2.92a30.16,30.16,0,0,1-5.76-5.75L12,173.55a1,1,0,0,0,0-.89,23.93,23.93,0,0,1-1.64-3.93,1,1,0,0,0-.61-.64l-7-2.56A1,1,0,1,0,2,167.41l6.59,2.39A23.93,23.93,0,0,0,10,173.14Z"/><path d="M226.71,35.56l2.44.89a1.17,1.17,0,0,1,.7.68,1.22,1.22,0,0,1,0,1l-1.09,2.34a1,1,0,0,0,.09,1,15.48,15.48,0,0,0,3.38,3.38,1,1,0,0,0,1.4-.21,1,1,0,0,0-.22-1.4,13.53,13.53,0,0,1-2.59-2.48l.84-1.8a3.24,3.24,0,0,0-1.82-4.39L228,33.89a12.63,12.63,0,0,1,0-3l1.86-.67a3.28,3.28,0,0,0,1.87-1.8,3.22,3.22,0,0,0,0-2.6L230.81,24a13.41,13.41,0,0,1,2.13-2.13l1.79.84a3.24,3.24,0,0,0,4.4-1.83l.68-1.86a13.68,13.68,0,0,1,3,0l.68,1.86a3.24,3.24,0,0,0,4.4,1.83,1,1,0,0,0-.85-1.82,1.2,1.2,0,0,1-1,0,1.24,1.24,0,0,1-.69-.71l-.88-2.43a1,1,0,0,0-.79-.65,16,16,0,0,0-4.78,0,1,1,0,0,0-.78.65l-.89,2.43a1.24,1.24,0,0,1-.68.72,1.22,1.22,0,0,1-1,0l-2.34-1.09a1,1,0,0,0-1,.1,15.7,15.7,0,0,0-3.38,3.38,1,1,0,0,0-.09,1l1.09,2.34a1.22,1.22,0,0,1,0,1,1.25,1.25,0,0,1-.7.69l-2.44.88a1,1,0,0,0-.64.79,15.33,15.33,0,0,0,0,4.78A1,1,0,0,0,226.71,35.56Z"/><path d="M251.81,24,251,25.81a3.22,3.22,0,0,0-.05,2.6,3.28,3.28,0,0,0,1.87,1.8l1.87.67a13.77,13.77,0,0,1,0,3l-1.87.68A3.24,3.24,0,0,0,251,39l.84,1.8a13.35,13.35,0,0,1-2.13,2.12l-1.79-.83a3.23,3.23,0,0,0-4.4,1.82l-.68,1.86a13.68,13.68,0,0,1-3,0l-.68-1.86a3.19,3.19,0,0,0-1.8-1.87,3.22,3.22,0,0,0-2.6,0,1,1,0,0,0,.85,1.81,1.24,1.24,0,0,1,1.67.69l.89,2.43a1,1,0,0,0,.78.65,15.13,15.13,0,0,0,4.78,0,1,1,0,0,0,.79-.65l.88-2.43a1.19,1.19,0,0,1,.68-.71,1.18,1.18,0,0,1,1,0L249.38,45a1,1,0,0,0,1-.1,15.26,15.26,0,0,0,3.38-3.38,1,1,0,0,0,.1-1l-1.1-2.34a1.22,1.22,0,0,1,0-1,1.19,1.19,0,0,1,.71-.68l2.43-.89a1,1,0,0,0,.65-.78,16,16,0,0,0,0-4.78,1,1,0,0,0-.65-.79l-2.43-.88a1.18,1.18,0,0,1-.71-.69,1.24,1.24,0,0,1,0-1l1.1-2.35a1,1,0,0,0-.1-1,15.48,15.48,0,0,0-3.38-3.38,1,1,0,0,0-1.4.22,1,1,0,0,0,.22,1.39A13.58,13.58,0,0,1,251.81,24Z"/><path d="M241.31,38.12a5.73,5.73,0,1,0-5.73-5.73A5.74,5.74,0,0,0,241.31,38.12Zm0-9.46a3.73,3.73,0,1,1-3.73,3.73A3.73,3.73,0,0,1,241.31,28.66Z"/><path d="M340.7,301.93l2.43.88a1.24,1.24,0,0,1,.71.69,1.19,1.19,0,0,1,0,1l-1.09,2.35a1,1,0,0,0,.1,1,15.48,15.48,0,0,0,3.38,3.38,1,1,0,0,0,.59.19,1,1,0,0,0,.81-.41,1,1,0,0,0-.22-1.4,13.53,13.53,0,0,1-2.59-2.48l.84-1.79a3.31,3.31,0,0,0,.05-2.6,3.24,3.24,0,0,0-1.88-1.8l-1.86-.68a13.68,13.68,0,0,1,0-3l1.86-.68a3.21,3.21,0,0,0,1.88-1.8,3.31,3.31,0,0,0-.05-2.6l-.84-1.79a14.23,14.23,0,0,1,2.12-2.13l1.8.84a3.23,3.23,0,0,0,4.4-1.82l.67-1.86a13.77,13.77,0,0,1,3,0l.68,1.86a3.24,3.24,0,0,0,4.39,1.82,1,1,0,1,0-.84-1.81,1.18,1.18,0,0,1-1,0,1.2,1.2,0,0,1-.68-.7l-.89-2.44a1,1,0,0,0-.79-.64,15.26,15.26,0,0,0-4.77,0,1,1,0,0,0-.79.64l-.88,2.44a1.24,1.24,0,0,1-.69.71,1.18,1.18,0,0,1-1,0l-2.34-1.09a1,1,0,0,0-1,.09,15.31,15.31,0,0,0-3.38,3.39,1,1,0,0,0-.1,1l1.09,2.34a1.22,1.22,0,0,1,0,1,1.19,1.19,0,0,1-.71.68l-2.43.89a1,1,0,0,0-.65.78,15.33,15.33,0,0,0,0,4.78A1,1,0,0,0,340.7,301.93Z"/><path d="M365.79,290.38l-.83,1.79a3.22,3.22,0,0,0,0,2.6,3.16,3.16,0,0,0,1.87,1.8l1.86.68a13.68,13.68,0,0,1,0,3l-1.86.68a3.25,3.25,0,0,0-1.82,4.4l.83,1.79a13.35,13.35,0,0,1-2.12,2.13l-1.8-.84a3.23,3.23,0,0,0-4.39,1.82l-.68,1.87a13.77,13.77,0,0,1-3,0l-.67-1.87a3.28,3.28,0,0,0-1.8-1.87,3.22,3.22,0,0,0-2.6.05,1,1,0,0,0-.48,1.33,1,1,0,0,0,1.32.48,1.26,1.26,0,0,1,1,0,1.24,1.24,0,0,1,.69.71l.88,2.43a1,1,0,0,0,.79.65,15.89,15.89,0,0,0,4.77,0,1,1,0,0,0,.79-.65l.89-2.43a1.21,1.21,0,0,1,.68-.72,1.26,1.26,0,0,1,1,0l2.34,1.1a1,1,0,0,0,1-.1,15.48,15.48,0,0,0,3.38-3.38,1,1,0,0,0,.1-1l-1.09-2.35a1.2,1.2,0,0,1,0-1,1.27,1.27,0,0,1,.71-.69l2.43-.88a1,1,0,0,0,.65-.79,15.33,15.33,0,0,0,0-4.78,1,1,0,0,0-.65-.78l-2.43-.89a1.22,1.22,0,0,1-.71-.68,1.26,1.26,0,0,1,0-1l1.09-2.34a1,1,0,0,0-.1-1,15.31,15.31,0,0,0-3.38-3.39,1,1,0,0,0-1.18,1.62A13,13,0,0,1,365.79,290.38Z"/><path d="M355.3,304.48a5.73,5.73,0,1,0-5.73-5.73A5.73,5.73,0,0,0,355.3,304.48Zm0-9.46a3.73,3.73,0,1,1-3.73,3.73A3.73,3.73,0,0,1,355.3,295Z"/><path d="M196.87,381.5a1,1,0,0,0,0-2h-4.72V358.67h3.43a1,1,0,0,0,0-2h-3.43v-5.89a1,1,0,0,0-1-1h-12a1,1,0,0,0-1,1v5.89h-3.42a1,1,0,1,0,0,2h3.42V379.5h-8.48v-7.44h3.43a1,1,0,0,0,0-2h-3.43V350.78a1,1,0,0,0-1-1h-12a1,1,0,0,0-1,1v19.28h-3.42a1,1,0,1,0,0,2h3.42v7.44h-8.48V361.9h3.43a1,1,0,0,0,0-2h-3.43v-9.12a1,1,0,0,0-1-1h-12a1,1,0,0,0-1,1v9.12h-3.42a1,1,0,1,0,0,2h3.42v17.6h-4.88a1,1,0,0,0,0,2h68.56Zm-16.72-29.72h10v4.89h-10Zm-22.48,0h10v18.28h-10Zm-22.48,0h10v8.12h-10Zm0,27.72V361.9h10v17.6Zm22.48,0v-7.44h10v7.44Zm22.48,0V358.67h10V379.5Z"/><path d="M13.41,280.24h9a1,1,0,0,0,0-2h-9a1,1,0,0,0,0,2Z"/><path d="M12.32,284.82a1,1,0,0,0,1,1h22.1a1,1,0,1,0,0-2H13.32A1,1,0,0,0,12.32,284.82Z"/><path d="M29.8,289.41H13.32a1,1,0,1,0,0,2H29.8a1,1,0,1,0,0-2Z"/><path d="M22.44,295H13.32a1,1,0,1,0,0,2h9.12a1,1,0,0,0,0-2Z"/><path d="M55.2,246H19.28a1,1,0,0,0-1,1v5.42H12.84a1,1,0,0,0-1,1v5.44H6.41a1,1,0,0,0-1,1v49.92a1,1,0,0,0,1,1H42.33a1,1,0,0,0,1-1v-5.43h5.44a1,1,0,0,0,1-1V298H55.2a1,1,0,0,0,1-1V247A1,1,0,0,0,55.2,246ZM29.78,273.45H41.33v35.37H7.41V260.9H28.78v11.55A1,1,0,0,0,29.78,273.45Zm10.14-2H30.78v-9.14Zm7.85,30.94H43.33V272.45a1,1,0,0,0-.07-.38,1,1,0,0,0-.22-.33L30.49,259.19a1,1,0,0,0-.33-.22,1,1,0,0,0-.38-.07H13.84v-4.44H47.77ZM54.2,296H49.77V253.46a1,1,0,0,0-1-1H20.28V248H54.2Z"/><path d="M266.56,105.83h20.68a8.88,8.88,0,0,0,7-14.33l-10.13-13V67.31a3.8,3.8,0,0,0-.12-7.59H269.79a3.8,3.8,0,0,0-.11,7.59V78.47l-10.13,13a8.88,8.88,0,0,0,7,14.33ZM268,63.49a1.77,1.77,0,0,1,1.77-1.77H284a1.8,1.8,0,0,1,0,3.6H269.79A1.79,1.79,0,0,1,268,63.49Zm-6.89,29.24,10.34-13.3a1.08,1.08,0,0,0,.21-.62V67.32h10.45V78.81a1,1,0,0,0,.21.62l10.34,13.3a6.88,6.88,0,0,1-5.44,11.1H266.56a6.88,6.88,0,0,1-5.43-11.1Z"/><path d="M276.75,87.41h4.91a1,1,0,0,0,0-2h-4.91a1,1,0,0,0,0,2Z"/><path d="M281.81,97.29H276.9a1,1,0,0,0,0,2h4.91a1,1,0,0,0,0-2Z"/><path d="M276.75,93.35h4.91a1,1,0,0,0,0-2h-4.91a1,1,0,0,0,0,2Z"/><path d="M277.23,55.4A1.77,1.77,0,1,0,279,53.63,1.77,1.77,0,0,0,277.23,55.4Zm2,0c0,.25-.46.25-.46,0a.23.23,0,0,1,.23-.23A.24.24,0,0,1,279.23,55.4Z"/><path d="M274.89,73.79a1.15,1.15,0,1,0-1.15-1.15A1.16,1.16,0,0,0,274.89,73.79Zm0-2a.85.85,0,0,1,.85.85.85.85,0,1,1-1.7,0A.85.85,0,0,1,274.89,71.79Z"/><path d="M271.36,46.84a1.15,1.15,0,1,0-1.14-1.15A1.14,1.14,0,0,0,271.36,46.84Zm0-2a.86.86,0,1,1-.85.85A.85.85,0,0,1,271.36,44.84Z"/><path d="M36.8,114.78a1,1,0,0,0,1-1V89.72c0-3.42-8.8-4.34-14-4.34s-14,.92-14,4.34,8.8,4.33,14,4.33c3.66,0,9.1-.46,12-1.92v6.6c-.29.82-4.66,2.35-12,2.35s-11.72-1.53-12-2.33v-3.5a1,1,0,0,0-2,0v21.57c0,3.42,8.8,4.33,14,4.33s14-.91,14-4.33a1,1,0,0,0-1-1,1,1,0,0,0-1,1c-.28.82-4.65,2.36-12,2.36s-11.72-1.54-12-2.33V101.16c2.9,1.47,8.34,1.92,12,1.92s9.1-.45,12-1.92v6.6c-.29.83-4.66,2.36-12,2.36a34.67,34.67,0,0,1-9.89-1.22,1,1,0,0,0-.62,1.9,36.4,36.4,0,0,0,10.51,1.32c3.66,0,9.1-.46,12-1.92v3.58A1,1,0,0,0,36.8,114.78Zm-13-22.73c-7.35,0-11.72-1.54-12-2.3.28-.83,4.64-2.37,12-2.37s11.63,1.51,12,2.34C35.43,90.55,31.07,92.05,23.8,92.05Z"/><path d="M19.8,336.25a1,1,0,0,0-.68-1.88l-2.57.93a1,1,0,0,0-.64.79,16.25,16.25,0,0,0,0,5,1,1,0,0,0,.64.78l2.57.93a1.33,1.33,0,0,1,.78.76,1.31,1.31,0,0,1,0,1.08l-1.15,2.47a1,1,0,0,0,.1,1,15.94,15.94,0,0,0,3.55,3.55,1,1,0,0,0,1,.1l2.47-1.15a1.31,1.31,0,0,1,1.08,0,1.34,1.34,0,0,1,.75.78l.94,2.56a1,1,0,0,0,.78.65,16.67,16.67,0,0,0,5,0,1,1,0,0,0,.79-.65l.93-2.56a1.35,1.35,0,0,1,1.83-.76l2.47,1.15a1,1,0,0,0,1-.1A16.37,16.37,0,0,0,45,348.14a1,1,0,0,0,.1-1L44,344.66a1.35,1.35,0,0,1,0-1.08,1.37,1.37,0,0,1,.77-.76l2.57-.93a1,1,0,0,0,.65-.78,16.89,16.89,0,0,0,0-5,1,1,0,0,0-.65-.79l-2.57-.93a1.35,1.35,0,0,1-.77-.75,1.38,1.38,0,0,1,0-1.09l1.16-2.47a1,1,0,0,0-.1-1,16.37,16.37,0,0,0-3.55-3.55,1,1,0,0,0-1-.1L38,326.55a1.31,1.31,0,0,1-1.08,0,1.37,1.37,0,0,1-.75-.78l-.93-2.56a1,1,0,0,0-.79-.65,16.25,16.25,0,0,0-5,0,1,1,0,0,0-.78.65l-.94,2.56a1.28,1.28,0,0,1-.75.78,1.31,1.31,0,0,1-1.08,0l-2.47-1.15a1,1,0,0,0-1,.1,16.15,16.15,0,0,0-3.55,3.55,1,1,0,0,0-.14.92l.56,1.65a1,1,0,0,0,1.9-.65l-.4-1.15a14.45,14.45,0,0,1,2.34-2.35l1.92.9a3.38,3.38,0,0,0,2.7.05,3.32,3.32,0,0,0,1.86-1.94l.73-2a14.62,14.62,0,0,1,3.24,0l.73,2a3.37,3.37,0,0,0,4.56,1.89l1.92-.9a14.71,14.71,0,0,1,2.3,2.3l-.9,1.92A3.37,3.37,0,0,0,44,336.25l2,.72a14.72,14.72,0,0,1,0,3.25l-2,.72a3.37,3.37,0,0,0-1.89,4.57l.9,1.92a14.23,14.23,0,0,1-2.3,2.29l-1.92-.89a3.35,3.35,0,0,0-4.56,1.89l-.73,2a13.51,13.51,0,0,1-3.24,0l-.73-2A3.34,3.34,0,0,0,25,348.83l-1.92.89a14.23,14.23,0,0,1-2.3-2.29l.9-1.92a3.36,3.36,0,0,0-1.89-4.57l-2-.72a13.59,13.59,0,0,1,0-3.25Z"/><path d="M30.31,341.9a1,1,0,0,0,.7-.29L36.59,336a1,1,0,0,0,0-1.41,1,1,0,0,0-1.42,0l-4.86,4.87-1.64-1.64a1,1,0,0,0-1.41,1.42l2.34,2.34A1,1,0,0,0,30.31,341.9Z"/><path d="M22.1,466.93l-4.24,4.23-1.37-1.37a1,1,0,0,0-1.41,0,1,1,0,0,0,0,1.42l2.08,2.07a1,1,0,0,0,.7.3,1,1,0,0,0,.71-.3l4.94-4.94a1,1,0,0,0-1.41-1.41Z"/><path d="M77,459a11.1,11.1,0,0,0-11,10.1H59.18a11.1,11.1,0,0,0-22.11,0H30.35a11.1,11.1,0,1,0,0,2h6.72a11.1,11.1,0,0,0,22.11,0h6.73A11.1,11.1,0,1,0,77,459ZM19.29,479.2a9.1,9.1,0,1,1,9.11-9.1A9.11,9.11,0,0,1,19.29,479.2Zm28.84,0a9.1,9.1,0,1,1,9.1-9.1A9.12,9.12,0,0,1,48.13,479.2Zm28.83,0a9.1,9.1,0,1,1,9.1-9.1A9.12,9.12,0,0,1,77,479.2Z"/><path d="M79.76,466.93l-4.23,4.23-1.37-1.37a1,1,0,1,0-1.42,1.42l2.08,2.07a1,1,0,0,0,1.41,0l4.94-4.94a1,1,0,1,0-1.41-1.41Z"/><path d="M50.93,466.93l-4.24,4.23-1.37-1.37a1,1,0,0,0-1.41,0,1,1,0,0,0,0,1.42L46,473.28a1,1,0,0,0,1.41,0l4.94-4.94a1,1,0,1,0-1.41-1.41Z"/><path d="M91.76,31.94h3.16v5.81a1,1,0,0,0,.62.92,1.08,1.08,0,0,0,.38.08,1,1,0,0,0,.71-.3l6.51-6.51h3v6.35a5.37,5.37,0,0,0,5.36,5.36h11.94L130,50.16a1,1,0,0,0,.71.29,1,1,0,0,0,.38-.07,1,1,0,0,0,.62-.93v-5.8h3.16a5.38,5.38,0,0,0,5.37-5.36V23a5.38,5.38,0,0,0-5.37-5.37H120.45V11.33A5.37,5.37,0,0,0,115.08,6H91.76a5.36,5.36,0,0,0-5.36,5.36V26.58A5.36,5.36,0,0,0,91.76,31.94Zm43.1-12.27A3.37,3.37,0,0,1,138.23,23V38.29a3.37,3.37,0,0,1-3.37,3.36H130.7a1,1,0,0,0-1,1V47l-5.1-5.1a1,1,0,0,0-.7-.29H111.54a3.37,3.37,0,0,1-3.36-3.36V31.94h6.9a5.37,5.37,0,0,0,5.37-5.36V19.67ZM108.18,29.94v-6a4.26,4.26,0,0,1,4.25-4.26h6v6.91a3.37,3.37,0,0,1-3.37,3.36ZM88.4,11.33A3.36,3.36,0,0,1,91.76,8h23.32a3.36,3.36,0,0,1,3.37,3.36v6.34h-6a6.26,6.26,0,0,0-6.25,6.26v6h-3.45a1,1,0,0,0-.71.3l-5.1,5.09V30.94a1,1,0,0,0-1-1H91.76a3.37,3.37,0,0,1-3.36-3.36Z"/><path d="M246.07,337.7v-4.1a1,1,0,0,0-1-1h-4.26V304.52a4,4,0,0,0-4-4h-5.66a1,1,0,0,0,0,2h5.66a2,2,0,0,1,2,2V332.6H191.9V304.52a2,2,0,0,1,2-2h5.32a1,1,0,0,0,0-2h-5.32a4,4,0,0,0-4,4V332.6h-4.26a1,1,0,0,0-1,1v4.1a4,4,0,0,0,4,4h53.48A4,4,0,0,0,246.07,337.7Zm-59.43,0v-3.1h57.43v3.1a2,2,0,0,1-2,2H188.61A2,2,0,0,1,186.64,337.7Z"/><path d="M200,311.35a15.34,15.34,0,0,0,2.8,8.82s0,.05.06.07a15.37,15.37,0,0,0,25.69-16.83.41.41,0,0,1,0-.08.43.43,0,0,0-.09-.1A15.37,15.37,0,0,0,200,311.35Zm10.91-12.6,3.34,2.18a3.71,3.71,0,0,1,1.68,3.11v.54a2.66,2.66,0,0,1-2.66,2.66h-2a3.79,3.79,0,0,0-3.79,3.79v.82a3.79,3.79,0,0,0,3.79,3.79,1.45,1.45,0,1,1,0,2.89h-7.16a13.34,13.34,0,0,1,6.8-19.78Zm15.21,20.57v-2.84a3.55,3.55,0,0,0-3.54-3.54.88.88,0,0,1-.88-.88v-2.57a2.11,2.11,0,0,1,1.08-1.84l4.47-2.48a13.26,13.26,0,0,1-1.13,14.15Zm.07-15.85-4.37,2.43a4.1,4.1,0,0,0-2.12,3.59v2.57a2.88,2.88,0,0,0,2.88,2.88,1.54,1.54,0,0,1,1.54,1.54v4.8a1,1,0,0,0,0,.17,13.33,13.33,0,0,1-18.49-.92h5.6a3.45,3.45,0,1,0,0-6.89,1.79,1.79,0,0,1-1.79-1.79V311a1.79,1.79,0,0,1,1.79-1.79h2a4.66,4.66,0,0,0,4.66-4.66V304a5.7,5.7,0,0,0-2.59-4.78l-1.76-1.16a13.53,13.53,0,0,1,1.81-.13A13.36,13.36,0,0,1,226.15,303.47Z"/><path d="M285.84,372.71a3.16,3.16,0,0,1,1.78,1.84l1.67,4.58a1,1,0,0,0,.78.65,27.88,27.88,0,0,0,4.37.34,1,1,0,0,0,0-2,27.12,27.12,0,0,1-3.48-.23l-1.46-4a5.22,5.22,0,0,0-7.08-2.93l-3.87,1.8a26,26,0,0,1-4.91-4.91l1.8-3.87a5.2,5.2,0,0,0-2.93-7.08l-4-1.46a26.16,26.16,0,0,1,0-7l4-1.46a5.22,5.22,0,0,0,2.93-7.08,1,1,0,1,0-1.81.85,3.23,3.23,0,0,1-1.8,4.35l-4.59,1.67a1,1,0,0,0-.64.79,28.33,28.33,0,0,0,0,8.72,1,1,0,0,0,.64.79l4.59,1.67a3.19,3.19,0,0,1,1.8,4.35l-2.06,4.41a1,1,0,0,0,.1,1,28.48,28.48,0,0,0,6.17,6.18,1,1,0,0,0,1,.1l4.41-2.06A3.19,3.19,0,0,1,285.84,372.71Z"/><path d="M310.46,332.51a1,1,0,0,0-1-1h-6.61a1,1,0,0,0-1,1v6.61a1,1,0,0,0,1,1h6.61a1,1,0,0,0,1-1Zm-2,5.61h-4.61v-4.61h4.61Z"/><path d="M310.46,348.64a1,1,0,0,0-1-1h-6.61a1,1,0,0,0-1,1v6.6a1,1,0,0,0,1,1h6.61a1,1,0,0,0,1-1Zm-2,5.6h-4.61v-4.6h4.61Z"/><path d="M324,340.58a1,1,0,0,0-1-1h-6.6a1,1,0,0,0-1,1v6.6a1,1,0,0,0,1,1H323a1,1,0,0,0,1-1Zm-2,5.6h-4.6v-4.6H322Z"/><path d="M324,363.3v-6.6a1,1,0,0,0-1-1h-6.6a1,1,0,0,0-1,1v6.6a1,1,0,0,0,1,1H323A1,1,0,0,0,324,363.3Zm-2-1h-4.6v-4.6H322Z"/><path d="M302.85,372.36h6.61a1,1,0,0,0,1-1v-6.6a1,1,0,0,0-1-1h-6.61a1,1,0,0,0-1,1v6.6A1,1,0,0,0,302.85,372.36Zm1-6.6h4.61v4.6h-4.61Z"/><path d="M294.44,373.78a1,1,0,0,0,1-1v-48a1,1,0,0,0-1-1,27.88,27.88,0,0,0-4.37.34,1,1,0,0,0-.78.64l-1.67,4.59a3.23,3.23,0,0,1-4.35,1.8l-4.41-2.06a1,1,0,0,0-1,.1,28.48,28.48,0,0,0-6.17,6.18,1,1,0,1,0,1.61,1.17,26.35,26.35,0,0,1,5.27-5.38l3.87,1.8A5.22,5.22,0,0,0,289.5,330l1.46-4c.82-.11,1.65-.17,2.48-.2v16.29a9.91,9.91,0,0,0,0,19.72v11A1,1,0,0,0,294.44,373.78Zm-7.91-21.84a7.92,7.92,0,0,1,6.91-7.84v15.68A7.92,7.92,0,0,1,286.53,351.94Z"/><path d="M341.2,237.21a1,1,0,0,0,.78.39,1,1,0,0,0,.62-.22l4.72-3.71a1,1,0,0,0,0-1.57l-4.72-3.71a1,1,0,0,0-1.4.16,1,1,0,0,0,.16,1.41l3.72,2.92-3.72,2.93A1,1,0,0,0,341.2,237.21Z"/><path d="M330.49,237.38a1,1,0,0,0,.61.22,1,1,0,0,0,.79-.39,1,1,0,0,0-.17-1.4L328,232.88l3.72-2.92a1,1,0,0,0-1.23-1.58l-4.72,3.72a1,1,0,0,0,0,1.57Z"/><path d="M334,239.38a.84.84,0,0,0,.38.08,1,1,0,0,0,.92-.61L340,227.69a1,1,0,1,0-1.85-.77l-4.67,11.16A1,1,0,0,0,334,239.38Z"/><path d="M319.09,226.34v13.09a6.29,6.29,0,0,0,6.29,6.29H347.7a6.3,6.3,0,0,0,6.3-6.29V226.34a6.31,6.31,0,0,0-6.3-6.3H325.38A6.3,6.3,0,0,0,319.09,226.34Zm32.91,0v13.09a4.3,4.3,0,0,1-4.3,4.29H325.38a4.3,4.3,0,0,1-4.29-4.29V226.34a4.3,4.3,0,0,1,4.29-4.3H347.7A4.31,4.31,0,0,1,352,226.34Z"/><path d="M221.21,270.66a3.5,3.5,0,1,0,3.5,3.5A3.5,3.5,0,0,0,221.21,270.66Zm0,5a1.5,1.5,0,1,1,1.5-1.5A1.5,1.5,0,0,1,221.21,275.66Z"/><path d="M253.35,452.44a3.5,3.5,0,1,0-3.5-3.5A3.5,3.5,0,0,0,253.35,452.44Zm0-5a1.5,1.5,0,1,1-1.5,1.5A1.5,1.5,0,0,1,253.35,447.44Z"/><path d="M291.07,226.24a1,1,0,0,0,.83.45,1,1,0,0,0,.71-.29.61.61,0,0,0,.12-.16,1,1,0,0,0,.1-.17,1.05,1.05,0,0,0,.05-.19.62.62,0,0,0,0-.19,1,1,0,0,0-.29-.71.79.79,0,0,0-.15-.12l-.18-.1-.18,0a.86.86,0,0,0-.39,0l-.19,0a1,1,0,0,0-.17.1.44.44,0,0,0-.15.12,1,1,0,0,0-.3.71,1.23,1.23,0,0,0,0,.19,1.06,1.06,0,0,0,.06.19A.91.91,0,0,0,291.07,226.24Z"/><path d="M378.27,190.44a1,1,0,0,0,.83.45,1,1,0,0,0,.71-.29.61.61,0,0,0,.12-.16,1,1,0,0,0,.1-.17,1.05,1.05,0,0,0,.05-.19.62.62,0,0,0,0-.19,1,1,0,0,0-.29-.71l-.15-.12-.18-.1-.18-.05a.86.86,0,0,0-.39,0l-.19.05a1,1,0,0,0-.17.1.44.44,0,0,0-.15.12,1,1,0,0,0-.3.71,1.23,1.23,0,0,0,0,.19,1.06,1.06,0,0,0,.06.19A.91.91,0,0,0,378.27,190.44Z"/><path d="M101.75,462.38a1,1,0,0,0-.32.21,1,1,0,0,0-.29.71,1,1,0,0,0,.07.38,1,1,0,0,0,.22.33,1,1,0,0,0,.32.21,1.09,1.09,0,0,0,.39.08l.19,0a.6.6,0,0,0,.19-.06.56.56,0,0,0,.17-.09.61.61,0,0,0,.15-.12,1,1,0,0,0-1.09-1.63Z"/><path d="M64.12,202.71a1,1,0,0,0,.71-.29,1.58,1.58,0,0,0,.12-.15l.1-.17a1.33,1.33,0,0,0,0-.19.68.68,0,0,0,0-.2,1,1,0,0,0-.29-.7,1,1,0,0,0-1.42,0,1,1,0,0,0-.29.7,1,1,0,0,0,.29.71,1.19,1.19,0,0,0,.33.22A1,1,0,0,0,64.12,202.71Z"/><path d="M235.3,113.57a.94.94,0,0,0,.76,0,.9.9,0,0,0,.54-.54.94.94,0,0,0,0-.76.93.93,0,0,0-.21-.33,1.15,1.15,0,0,0-.33-.21.92.92,0,0,0-.76,0,.9.9,0,0,0-.54.54.94.94,0,0,0,0,.76,1.15,1.15,0,0,0,.21.33A.93.93,0,0,0,235.3,113.57Z"/><path d="M384.76,54.52a1,1,0,0,0-1.38.92,1,1,0,0,0,.07.38,1.19,1.19,0,0,0,.22.33,1,1,0,0,0,.71.29,1,1,0,0,0,.38-1.92Z"/><path d="M357.16,471.87a1,1,0,0,0-1.09-.22,1.27,1.27,0,0,0-.33.22.93.93,0,0,0-.21.33,1,1,0,0,0-.08.38,1.05,1.05,0,0,0,.29.71.93.93,0,0,0,.33.21.94.94,0,0,0,.76,0,1,1,0,0,0,.33-.21,1.05,1.05,0,0,0,.29-.71,1,1,0,0,0-.08-.38A.93.93,0,0,0,357.16,471.87Z"/><path d="M348.46,355.05a.61.61,0,0,0,.12.16,1,1,0,0,0,.32.21,1.09,1.09,0,0,0,.39.08,1,1,0,0,0,.38-.08,1.15,1.15,0,0,0,.33-.21l.12-.16a.91.91,0,0,0,.09-.17,1.06,1.06,0,0,0,.06-.19,1.23,1.23,0,0,0,0-.19,1.36,1.36,0,0,0,0-.2c0-.06,0-.12-.06-.19a1.4,1.4,0,0,0-.09-.17l-.12-.15a1.15,1.15,0,0,0-.33-.21.94.94,0,0,0-.77,0,1,1,0,0,0-.32.21.79.79,0,0,0-.12.15l-.1.17a1.8,1.8,0,0,0-.05.19.68.68,0,0,0,0,.2.62.62,0,0,0,0,.19,1.05,1.05,0,0,0,.05.19A1,1,0,0,0,348.46,355.05Z"/><path d="M298.44,273.55v3.75a1,1,0,0,0,2,0v-3.75h3.75a1,1,0,0,0,0-2h-3.75V267.8a1,1,0,0,0-2,0v3.75h-3.75a1,1,0,0,0,0,2Z"/></svg>